<svg width="315" height="65" viewBox="0 0 315 65" fill="none" xmlns="http://www.w3.org/2000/svg">
<g opacity="0.6" filter="url(#filter0_b_1_1774)">
<rect width="315" height="65" rx="32.5" fill="url(#paint0_linear_1_1774)"/>
</g>
<path d="M24.198 21.154V18.274H29.346V31H26.106V21.154H24.198ZM48.6715 18.364V31H45.5935V23.098L42.8575 31H40.1935L37.4395 23.08V31H34.3615V18.364H38.1235L41.5615 27.166L44.9275 18.364H48.6715ZM55.1351 20.83C56.1311 20.83 57.0191 21.04 57.7991 21.46C58.5911 21.868 59.2091 22.462 59.6531 23.242C60.1091 24.022 60.3371 24.934 60.3371 25.978C60.3371 27.022 60.1091 27.934 59.6531 28.714C59.2091 29.494 58.5911 30.094 57.7991 30.514C57.0191 30.922 56.1311 31.126 55.1351 31.126C54.1391 31.126 53.2451 30.922 52.4531 30.514C51.6611 30.094 51.0371 29.494 50.5811 28.714C50.1371 27.934 49.9151 27.022 49.9151 25.978C49.9151 24.934 50.1371 24.022 50.5811 23.242C51.0371 22.462 51.6611 21.868 52.4531 21.46C53.2451 21.04 54.1391 20.83 55.1351 20.83ZM55.1351 23.494C54.5471 23.494 54.0491 23.71 53.6411 24.142C53.2451 24.562 53.0471 25.174 53.0471 25.978C53.0471 26.782 53.2451 27.394 53.6411 27.814C54.0491 28.234 54.5471 28.444 55.1351 28.444C55.7231 28.444 56.2151 28.234 56.6111 27.814C57.0071 27.394 57.2051 26.782 57.2051 25.978C57.2051 25.174 57.0071 24.562 56.6111 24.142C56.2151 23.71 55.7231 23.494 55.1351 23.494ZM67.9452 20.848C69.0972 20.848 70.0092 21.232 70.6812 22C71.3652 22.768 71.7072 23.824 71.7072 25.168V31H68.6292V25.528C68.6292 24.856 68.4492 24.334 68.0892 23.962C67.7412 23.578 67.2732 23.386 66.6852 23.386C66.0612 23.386 65.5632 23.584 65.1912 23.98C64.8312 24.376 64.6512 24.94 64.6512 25.672V31H61.5732V20.956H64.6512V22.792C64.9392 22.192 65.3652 21.718 65.9292 21.37C66.5052 21.022 67.1772 20.848 67.9452 20.848ZM79.0652 28.354V31H77.6792C76.5032 31 75.5852 30.712 74.9252 30.136C74.2772 29.548 73.9532 28.582 73.9532 27.238V23.548H72.6032V20.956H73.9532V18.49H77.0312V20.956H79.0472V23.548H77.0312V27.292C77.0312 27.688 77.1092 27.964 77.2652 28.12C77.4332 28.276 77.7092 28.354 78.0932 28.354H79.0652ZM86.8072 20.848C87.9592 20.848 88.8712 21.232 89.5432 22C90.2272 22.768 90.5692 23.824 90.5692 25.168V31H87.4912V25.528C87.4912 24.856 87.3112 24.334 86.9512 23.962C86.6032 23.578 86.1352 23.386 85.5472 23.386C84.9232 23.386 84.4252 23.584 84.0532 23.98C83.6932 24.376 83.5132 24.94 83.5132 25.672V31H80.4352V17.68H83.5132V22.792C83.8012 22.192 84.2272 21.718 84.7912 21.37C85.3672 21.022 86.0392 20.848 86.8072 20.848Z" fill="white"/>
<path d="M196.35 22.75C196.35 19.31 197.01 16.6 198.33 14.62C199.67 12.64 201.82 11.65 204.78 11.65C207.74 11.65 209.88 12.64 211.2 14.62C212.54 16.6 213.21 19.31 213.21 22.75C213.21 26.23 212.54 28.96 211.2 30.94C209.88 32.92 207.74 33.91 204.78 33.91C201.82 33.91 199.67 32.92 198.33 30.94C197.01 28.96 196.35 26.23 196.35 22.75ZM208.17 22.75C208.17 20.73 207.95 19.18 207.51 18.1C207.07 17 206.16 16.45 204.78 16.45C203.4 16.45 202.49 17 202.05 18.1C201.61 19.18 201.39 20.73 201.39 22.75C201.39 24.11 201.47 25.24 201.63 26.14C201.79 27.02 202.11 27.74 202.59 28.3C203.09 28.84 203.82 29.11 204.78 29.11C205.74 29.11 206.46 28.84 206.94 28.3C207.44 27.74 207.77 27.02 207.93 26.14C208.09 25.24 208.17 24.11 208.17 22.75ZM218.23 34.24C217.33 34.24 216.59 33.98 216.01 33.46C215.45 32.92 215.17 32.26 215.17 31.48C215.17 30.68 215.45 30.01 216.01 29.47C216.59 28.93 217.33 28.66 218.23 28.66C219.11 28.66 219.83 28.93 220.39 29.47C220.97 30.01 221.26 30.68 221.26 31.48C221.26 32.26 220.97 32.92 220.39 33.46C219.83 33.98 219.11 34.24 218.23 34.24ZM228.707 27.58C229.007 29.16 229.927 29.95 231.467 29.95C232.527 29.95 233.277 29.48 233.717 28.54C234.157 27.6 234.377 26.07 234.377 23.95C233.937 24.57 233.337 25.05 232.577 25.39C231.817 25.73 230.967 25.9 230.027 25.9C228.747 25.9 227.607 25.64 226.607 25.12C225.607 24.58 224.817 23.79 224.237 22.75C223.677 21.69 223.397 20.41 223.397 18.91C223.397 17.43 223.697 16.14 224.297 15.04C224.917 13.94 225.787 13.09 226.907 12.49C228.047 11.89 229.387 11.59 230.927 11.59C233.887 11.59 235.957 12.51 237.137 14.35C238.317 16.19 238.907 18.9 238.907 22.48C238.907 25.08 238.667 27.23 238.187 28.93C237.727 30.61 236.937 31.89 235.817 32.77C234.717 33.65 233.207 34.09 231.287 34.09C229.767 34.09 228.467 33.79 227.387 33.19C226.327 32.59 225.507 31.8 224.927 30.82C224.367 29.84 224.047 28.76 223.967 27.58H228.707ZM231.197 21.85C232.037 21.85 232.707 21.6 233.207 21.1C233.707 20.58 233.957 19.88 233.957 19C233.957 18.04 233.697 17.3 233.177 16.78C232.657 16.26 231.957 16 231.077 16C230.197 16 229.497 16.27 228.977 16.81C228.477 17.33 228.227 18.05 228.227 18.97C228.227 19.83 228.477 20.53 228.977 21.07C229.497 21.59 230.237 21.85 231.197 21.85ZM246.564 27.58C246.864 29.16 247.784 29.95 249.324 29.95C250.384 29.95 251.134 29.48 251.574 28.54C252.014 27.6 252.234 26.07 252.234 23.95C251.794 24.57 251.194 25.05 250.434 25.39C249.674 25.73 248.824 25.9 247.884 25.9C246.604 25.9 245.464 25.64 244.464 25.12C243.464 24.58 242.674 23.79 242.094 22.75C241.534 21.69 241.254 20.41 241.254 18.91C241.254 17.43 241.554 16.14 242.154 15.04C242.774 13.94 243.644 13.09 244.764 12.49C245.904 11.89 247.244 11.59 248.784 11.59C251.744 11.59 253.814 12.51 254.994 14.35C256.174 16.19 256.764 18.9 256.764 22.48C256.764 25.08 256.524 27.23 256.044 28.93C255.584 30.61 254.794 31.89 253.674 32.77C252.574 33.65 251.064 34.09 249.144 34.09C247.624 34.09 246.324 33.79 245.244 33.19C244.184 32.59 243.364 31.8 242.784 30.82C242.224 29.84 241.904 28.76 241.824 27.58H246.564ZM249.054 21.85C249.894 21.85 250.564 21.6 251.064 21.1C251.564 20.58 251.814 19.88 251.814 19C251.814 18.04 251.554 17.3 251.034 16.78C250.514 16.26 249.814 16 248.934 16C248.054 16 247.354 16.27 246.834 16.81C246.334 17.33 246.084 18.05 246.084 18.97C246.084 19.83 246.334 20.53 246.834 21.07C247.354 21.59 248.094 21.85 249.054 21.85Z" fill="white"/>
<path d="M206.528 48.624C206.528 49.024 206.428 49.4 206.228 49.752C206.036 50.104 205.748 50.4 205.364 50.64C204.988 50.88 204.54 51.024 204.02 51.072V52.044H203.24V51.072C202.488 51 201.88 50.764 201.416 50.364C200.952 49.964 200.72 49.436 200.72 48.78H202.184C202.208 49.092 202.308 49.352 202.484 49.56C202.66 49.76 202.912 49.888 203.24 49.944V47.304C202.704 47.168 202.268 47.032 201.932 46.896C201.596 46.752 201.308 46.528 201.068 46.224C200.836 45.92 200.72 45.504 200.72 44.976C200.72 44.312 200.952 43.764 201.416 43.332C201.88 42.892 202.488 42.636 203.24 42.564V41.592H204.02V42.564C204.724 42.628 205.288 42.852 205.712 43.236C206.144 43.612 206.388 44.132 206.444 44.796H204.98C204.956 44.548 204.86 44.328 204.692 44.136C204.524 43.936 204.3 43.8 204.02 43.728V46.32C204.556 46.448 204.992 46.584 205.328 46.728C205.664 46.864 205.948 47.084 206.18 47.388C206.412 47.684 206.528 48.096 206.528 48.624ZM202.112 44.904C202.112 45.232 202.208 45.488 202.4 45.672C202.6 45.856 202.88 46.004 203.24 46.116V43.692C202.896 43.732 202.62 43.856 202.412 44.064C202.212 44.272 202.112 44.552 202.112 44.904ZM204.02 49.944C204.372 49.888 204.648 49.748 204.848 49.524C205.048 49.292 205.148 49.016 205.148 48.696C205.148 48.376 205.048 48.128 204.848 47.952C204.656 47.768 204.38 47.62 204.02 47.508V49.944ZM212.905 39.672L209.641 53.1H208.297L211.549 39.672H212.905ZM223.173 42.66V51H221.805V45.288L219.261 51H218.313L215.757 45.288V51H214.389V42.66H215.865L218.793 49.2L221.709 42.66H223.173ZM227.599 51.108C226.975 51.108 226.411 50.968 225.907 50.688C225.403 50.4 225.007 50 224.719 49.488C224.431 48.968 224.287 48.368 224.287 47.688C224.287 47.016 224.435 46.42 224.731 45.9C225.027 45.38 225.431 44.98 225.943 44.7C226.455 44.42 227.027 44.28 227.659 44.28C228.291 44.28 228.863 44.42 229.375 44.7C229.887 44.98 230.291 45.38 230.587 45.9C230.883 46.42 231.031 47.016 231.031 47.688C231.031 48.36 230.879 48.956 230.575 49.476C230.271 49.996 229.855 50.4 229.327 50.688C228.807 50.968 228.231 51.108 227.599 51.108ZM227.599 49.92C227.951 49.92 228.279 49.836 228.583 49.668C228.895 49.5 229.147 49.248 229.339 48.912C229.531 48.576 229.627 48.168 229.627 47.688C229.627 47.208 229.535 46.804 229.351 46.476C229.167 46.14 228.923 45.888 228.619 45.72C228.315 45.552 227.987 45.468 227.635 45.468C227.283 45.468 226.955 45.552 226.651 45.72C226.355 45.888 226.119 46.14 225.943 46.476C225.767 46.804 225.679 47.208 225.679 47.688C225.679 48.4 225.859 48.952 226.219 49.344C226.587 49.728 227.047 49.92 227.599 49.92ZM235.479 44.28C235.999 44.28 236.463 44.388 236.871 44.604C237.287 44.82 237.611 45.14 237.843 45.564C238.075 45.988 238.191 46.5 238.191 47.1V51H236.835V47.304C236.835 46.712 236.687 46.26 236.391 45.948C236.095 45.628 235.691 45.468 235.179 45.468C234.667 45.468 234.259 45.628 233.955 45.948C233.659 46.26 233.511 46.712 233.511 47.304V51H232.143V44.388H233.511V45.144C233.735 44.872 234.019 44.66 234.363 44.508C234.715 44.356 235.087 44.28 235.479 44.28ZM241.292 45.504V49.164C241.292 49.412 241.348 49.592 241.46 49.704C241.58 49.808 241.78 49.86 242.06 49.86H242.9V51H241.82C241.204 51 240.732 50.856 240.404 50.568C240.076 50.28 239.912 49.812 239.912 49.164V45.504H239.132V44.388H239.912V42.744H241.292V44.388H242.9V45.504H241.292ZM247.341 44.28C247.845 44.28 248.293 44.388 248.685 44.604C249.085 44.82 249.397 45.14 249.621 45.564C249.853 45.988 249.969 46.5 249.969 47.1V51H248.613V47.304C248.613 46.712 248.465 46.26 248.169 45.948C247.873 45.628 247.469 45.468 246.957 45.468C246.445 45.468 246.037 45.628 245.733 45.948C245.437 46.26 245.289 46.712 245.289 47.304V51H243.921V42.12H245.289V45.156C245.521 44.876 245.813 44.66 246.165 44.508C246.525 44.356 246.917 44.28 247.341 44.28Z" fill="white"/>
<path d="M31.084 40.242V41.278H28.424V50H27.15V41.278H24.476V40.242H31.084ZM35.7882 50.126C35.0696 50.126 34.4162 49.9627 33.8282 49.636C33.2496 49.3093 32.7922 48.8473 32.4562 48.25C32.1296 47.6433 31.9662 46.9433 31.9662 46.15C31.9662 45.366 32.1342 44.6753 32.4702 44.078C32.8156 43.4713 33.2822 43.0093 33.8702 42.692C34.4582 42.3653 35.1162 42.202 35.8442 42.202C36.5722 42.202 37.2302 42.3653 37.8182 42.692C38.4062 43.0093 38.8682 43.4667 39.2042 44.064C39.5496 44.6613 39.7222 45.3567 39.7222 46.15C39.7222 46.9433 39.5449 47.6433 39.1902 48.25C38.8449 48.8473 38.3736 49.3093 37.7762 49.636C37.1789 49.9627 36.5162 50.126 35.7882 50.126ZM35.7882 49.006C36.2456 49.006 36.6749 48.8987 37.0762 48.684C37.4776 48.4693 37.7996 48.1473 38.0422 47.718C38.2942 47.2887 38.4202 46.766 38.4202 46.15C38.4202 45.534 38.2989 45.0113 38.0562 44.582C37.8136 44.1527 37.4962 43.8353 37.1042 43.63C36.7122 43.4153 36.2876 43.308 35.8302 43.308C35.3636 43.308 34.9342 43.4153 34.5422 43.63C34.1596 43.8353 33.8516 44.1527 33.6182 44.582C33.3849 45.0113 33.2682 45.534 33.2682 46.15C33.2682 46.7753 33.3802 47.3027 33.6042 47.732C33.8376 48.1613 34.1456 48.4833 34.5282 48.698C34.9109 48.9033 35.3309 49.006 35.7882 49.006ZM42.7413 43.378V47.9C42.7413 48.2733 42.8206 48.5393 42.9793 48.698C43.138 48.8473 43.4133 48.922 43.8053 48.922H44.7433V50H43.5953C42.886 50 42.354 49.8367 41.9993 49.51C41.6446 49.1833 41.4673 48.6467 41.4673 47.9V43.378H40.4733V42.328H41.4673V40.396H42.7413V42.328H44.7433V43.378H42.7413ZM45.6009 46.136C45.6009 45.352 45.7596 44.666 46.0769 44.078C46.3942 43.4807 46.8282 43.0187 47.3789 42.692C47.9389 42.3653 48.5596 42.202 49.2409 42.202C49.9129 42.202 50.4962 42.3467 50.9909 42.636C51.4856 42.9253 51.8542 43.2893 52.0969 43.728V42.328H53.3849V50H52.0969V48.572C51.8449 49.02 51.4669 49.3933 50.9629 49.692C50.4682 49.9813 49.8896 50.126 49.2269 50.126C48.5456 50.126 47.9296 49.958 47.3789 49.622C46.8282 49.286 46.3942 48.8147 46.0769 48.208C45.7596 47.6013 45.6009 46.9107 45.6009 46.136ZM52.0969 46.15C52.0969 45.5713 51.9802 45.0673 51.7469 44.638C51.5136 44.2087 51.1962 43.882 50.7949 43.658C50.4029 43.4247 49.9689 43.308 49.4929 43.308C49.0169 43.308 48.5829 43.42 48.1909 43.644C47.7989 43.868 47.4862 44.1947 47.2529 44.624C47.0196 45.0533 46.9029 45.5573 46.9029 46.136C46.9029 46.724 47.0196 47.2373 47.2529 47.676C47.4862 48.1053 47.7989 48.4367 48.1909 48.67C48.5829 48.894 49.0169 49.006 49.4929 49.006C49.9689 49.006 50.4029 48.894 50.7949 48.67C51.1962 48.4367 51.5136 48.1053 51.7469 47.676C51.9802 47.2373 52.0969 46.7287 52.0969 46.15ZM56.6018 39.64V50H55.3278V39.64H56.6018ZM63.3596 43.742C63.6116 43.3033 63.9849 42.9393 64.4796 42.65C64.9836 42.3513 65.5669 42.202 66.2296 42.202C66.9109 42.202 67.5269 42.3653 68.0776 42.692C68.6376 43.0187 69.0762 43.4807 69.3936 44.078C69.7109 44.666 69.8696 45.352 69.8696 46.136C69.8696 46.9107 69.7109 47.6013 69.3936 48.208C69.0762 48.8147 68.6376 49.286 68.0776 49.622C67.5269 49.958 66.9109 50.126 66.2296 50.126C65.5762 50.126 64.9976 49.9813 64.4936 49.692C63.9989 49.3933 63.6209 49.0247 63.3596 48.586V53.64H62.0856V42.328H63.3596V43.742ZM68.5676 46.136C68.5676 45.5573 68.4509 45.0533 68.2176 44.624C67.9842 44.1947 67.6669 43.868 67.2656 43.644C66.8736 43.42 66.4396 43.308 65.9636 43.308C65.4969 43.308 65.0629 43.4247 64.6616 43.658C64.2696 43.882 63.9522 44.2133 63.7096 44.652C63.4762 45.0813 63.3596 45.5807 63.3596 46.15C63.3596 46.7287 63.4762 47.2373 63.7096 47.676C63.9522 48.1053 64.2696 48.4367 64.6616 48.67C65.0629 48.894 65.4969 49.006 65.9636 49.006C66.4396 49.006 66.8736 48.894 67.2656 48.67C67.6669 48.4367 67.9842 48.1053 68.2176 47.676C68.4509 47.2373 68.5676 46.724 68.5676 46.136ZM72.6105 43.574C72.8345 43.1353 73.1518 42.7947 73.5625 42.552C73.9825 42.3093 74.4912 42.188 75.0885 42.188V43.504H74.7525C73.3245 43.504 72.6105 44.2787 72.6105 45.828V50H71.3365V42.328H72.6105V43.574ZM77.0072 41.082C76.7645 41.082 76.5592 40.998 76.3912 40.83C76.2232 40.662 76.1392 40.4567 76.1392 40.214C76.1392 39.9713 76.2232 39.766 76.3912 39.598C76.5592 39.43 76.7645 39.346 77.0072 39.346C77.2405 39.346 77.4365 39.43 77.5952 39.598C77.7632 39.766 77.8472 39.9713 77.8472 40.214C77.8472 40.4567 77.7632 40.662 77.5952 40.83C77.4365 40.998 77.2405 41.082 77.0072 41.082ZM77.6232 42.328V50H76.3492V42.328H77.6232ZM79.1085 46.15C79.1085 45.3567 79.2672 44.666 79.5845 44.078C79.9018 43.4807 80.3405 43.0187 80.9005 42.692C81.4698 42.3653 82.1185 42.202 82.8465 42.202C83.7892 42.202 84.5638 42.4307 85.1705 42.888C85.7865 43.3453 86.1925 43.98 86.3885 44.792H85.0165C84.8858 44.3253 84.6292 43.9567 84.2465 43.686C83.8732 43.4153 83.4065 43.28 82.8465 43.28C82.1185 43.28 81.5305 43.532 81.0825 44.036C80.6345 44.5307 80.4105 45.2353 80.4105 46.15C80.4105 47.074 80.6345 47.788 81.0825 48.292C81.5305 48.796 82.1185 49.048 82.8465 49.048C83.4065 49.048 83.8732 48.9173 84.2465 48.656C84.6198 48.3947 84.8765 48.0213 85.0165 47.536H86.3885C86.1832 48.32 85.7725 48.95 85.1565 49.426C84.5405 49.8927 83.7705 50.126 82.8465 50.126C82.1185 50.126 81.4698 49.9627 80.9005 49.636C80.3405 49.3093 79.9018 48.8473 79.5845 48.25C79.2672 47.6527 79.1085 46.9527 79.1085 46.15ZM94.8784 45.87C94.8784 46.1127 94.8644 46.3693 94.8364 46.64H88.7044C88.7511 47.396 89.0077 47.9887 89.4744 48.418C89.9504 48.838 90.5244 49.048 91.1964 49.048C91.7471 49.048 92.2044 48.922 92.5684 48.67C92.9417 48.4087 93.2031 48.0633 93.3524 47.634H94.7244C94.5191 48.3713 94.1084 48.9733 93.4924 49.44C92.8764 49.8973 92.1111 50.126 91.1964 50.126C90.4684 50.126 89.8151 49.9627 89.2364 49.636C88.6671 49.3093 88.2191 48.8473 87.8924 48.25C87.5657 47.6433 87.4024 46.9433 87.4024 46.15C87.4024 45.3567 87.5611 44.6613 87.8784 44.064C88.1957 43.4667 88.6391 43.0093 89.2084 42.692C89.7871 42.3653 90.4497 42.202 91.1964 42.202C91.9244 42.202 92.5684 42.3607 93.1284 42.678C93.6884 42.9953 94.1177 43.434 94.4164 43.994C94.7244 44.5447 94.8784 45.17 94.8784 45.87ZM93.5624 45.604C93.5624 45.1187 93.4551 44.7033 93.2404 44.358C93.0257 44.0033 92.7317 43.7373 92.3584 43.56C91.9944 43.3733 91.5884 43.28 91.1404 43.28C90.4964 43.28 89.9457 43.4853 89.4884 43.896C89.0404 44.3067 88.7837 44.876 88.7184 45.604H93.5624ZM106.172 47.326C106.172 47.774 106.06 48.2033 105.836 48.614C105.612 49.0153 105.281 49.3513 104.842 49.622C104.413 49.8927 103.895 50.0467 103.288 50.084V51.218H102.532V50.084C101.683 50.0093 100.992 49.7387 100.46 49.272C99.9285 48.796 99.6578 48.194 99.6485 47.466H101.006C101.044 47.858 101.188 48.1987 101.44 48.488C101.702 48.7773 102.066 48.9593 102.532 49.034V45.534C101.907 45.3753 101.403 45.212 101.02 45.044C100.638 44.876 100.311 44.6147 100.04 44.26C99.7698 43.9053 99.6345 43.4293 99.6345 42.832C99.6345 42.076 99.8958 41.4507 100.418 40.956C100.95 40.4613 101.655 40.186 102.532 40.13V38.968H103.288V40.13C104.082 40.1953 104.721 40.452 105.206 40.9C105.692 41.3387 105.972 41.9127 106.046 42.622H104.688C104.642 42.2953 104.497 42.0013 104.254 41.74C104.012 41.4693 103.69 41.292 103.288 41.208V44.624C103.904 44.7827 104.404 44.946 104.786 45.114C105.178 45.2727 105.505 45.5293 105.766 45.884C106.037 46.2387 106.172 46.7193 106.172 47.326ZM100.936 42.762C100.936 43.2193 101.072 43.5693 101.342 43.812C101.613 44.0547 102.01 44.2553 102.532 44.414V41.18C102.047 41.2267 101.66 41.3853 101.37 41.656C101.081 41.9173 100.936 42.286 100.936 42.762ZM103.288 49.048C103.792 48.992 104.184 48.81 104.464 48.502C104.754 48.194 104.898 47.8253 104.898 47.396C104.898 46.9387 104.758 46.5887 104.478 46.346C104.198 46.094 103.802 45.8933 103.288 45.744V49.048ZM109.799 47.284C109.893 47.816 110.107 48.2267 110.443 48.516C110.789 48.8053 111.251 48.95 111.829 48.95C112.604 48.95 113.173 48.6467 113.537 48.04C113.911 47.4333 114.088 46.4113 114.069 44.974C113.873 45.394 113.547 45.7253 113.089 45.968C112.632 46.2013 112.123 46.318 111.563 46.318C110.938 46.318 110.378 46.192 109.883 45.94C109.398 45.6787 109.015 45.3007 108.735 44.806C108.455 44.3113 108.315 43.714 108.315 43.014C108.315 42.0153 108.605 41.2127 109.183 40.606C109.762 39.99 110.583 39.682 111.647 39.682C112.954 39.682 113.869 40.1067 114.391 40.956C114.923 41.8053 115.189 43.07 115.189 44.75C115.189 45.926 115.082 46.8967 114.867 47.662C114.662 48.4273 114.307 49.0107 113.803 49.412C113.309 49.8133 112.627 50.014 111.759 50.014C110.807 50.014 110.065 49.7573 109.533 49.244C109.001 48.7307 108.698 48.0773 108.623 47.284H109.799ZM111.773 45.24C112.399 45.24 112.912 45.0487 113.313 44.666C113.715 44.274 113.915 43.7467 113.915 43.084C113.915 42.384 113.719 41.8193 113.327 41.39C112.935 40.9607 112.385 40.746 111.675 40.746C111.022 40.746 110.499 40.9513 110.107 41.362C109.725 41.7727 109.533 42.314 109.533 42.986C109.533 43.6673 109.725 44.2133 110.107 44.624C110.49 45.0347 111.045 45.24 111.773 45.24ZM117.386 50.084C117.143 50.084 116.938 50 116.77 49.832C116.602 49.664 116.518 49.4587 116.518 49.216C116.518 48.9733 116.602 48.768 116.77 48.6C116.938 48.432 117.143 48.348 117.386 48.348C117.619 48.348 117.815 48.432 117.974 48.6C118.142 48.768 118.226 48.9733 118.226 49.216C118.226 49.4587 118.142 49.664 117.974 49.832C117.815 50 117.619 50.084 117.386 50.084ZM121.137 47.284C121.231 47.816 121.445 48.2267 121.781 48.516C122.127 48.8053 122.589 48.95 123.167 48.95C123.942 48.95 124.511 48.6467 124.875 48.04C125.249 47.4333 125.426 46.4113 125.407 44.974C125.211 45.394 124.885 45.7253 124.427 45.968C123.97 46.2013 123.461 46.318 122.901 46.318C122.276 46.318 121.716 46.192 121.221 45.94C120.736 45.6787 120.353 45.3007 120.073 44.806C119.793 44.3113 119.653 43.714 119.653 43.014C119.653 42.0153 119.943 41.2127 120.521 40.606C121.1 39.99 121.921 39.682 122.985 39.682C124.292 39.682 125.207 40.1067 125.729 40.956C126.261 41.8053 126.527 43.07 126.527 44.75C126.527 45.926 126.42 46.8967 126.205 47.662C126 48.4273 125.645 49.0107 125.141 49.412C124.647 49.8133 123.965 50.014 123.097 50.014C122.145 50.014 121.403 49.7573 120.871 49.244C120.339 48.7307 120.036 48.0773 119.961 47.284H121.137ZM123.111 45.24C123.737 45.24 124.25 45.0487 124.651 44.666C125.053 44.274 125.253 43.7467 125.253 43.084C125.253 42.384 125.057 41.8193 124.665 41.39C124.273 40.9607 123.723 40.746 123.013 40.746C122.36 40.746 121.837 40.9513 121.445 41.362C121.063 41.7727 120.871 42.314 120.871 42.986C120.871 43.6673 121.063 44.2133 121.445 44.624C121.828 45.0347 122.383 45.24 123.111 45.24ZM129.746 47.284C129.839 47.816 130.054 48.2267 130.39 48.516C130.735 48.8053 131.197 48.95 131.776 48.95C132.55 48.95 133.12 48.6467 133.484 48.04C133.857 47.4333 134.034 46.4113 134.016 44.974C133.82 45.394 133.493 45.7253 133.036 45.968C132.578 46.2013 132.07 46.318 131.51 46.318C130.884 46.318 130.324 46.192 129.83 45.94C129.344 45.6787 128.962 45.3007 128.682 44.806C128.402 44.3113 128.262 43.714 128.262 43.014C128.262 42.0153 128.551 41.2127 129.13 40.606C129.708 39.99 130.53 39.682 131.594 39.682C132.9 39.682 133.815 40.1067 134.338 40.956C134.87 41.8053 135.136 43.07 135.136 44.75C135.136 45.926 135.028 46.8967 134.814 47.662C134.608 48.4273 134.254 49.0107 133.75 49.412C133.255 49.8133 132.574 50.014 131.706 50.014C130.754 50.014 130.012 49.7573 129.48 49.244C128.948 48.7307 128.644 48.0773 128.57 47.284H129.746ZM131.72 45.24C132.345 45.24 132.858 45.0487 133.26 44.666C133.661 44.274 133.862 43.7467 133.862 43.084C133.862 42.384 133.666 41.8193 133.274 41.39C132.882 40.9607 132.331 40.746 131.622 40.746C130.968 40.746 130.446 40.9513 130.054 41.362C129.671 41.7727 129.48 42.314 129.48 42.986C129.48 43.6673 129.671 44.2133 130.054 44.624C130.436 45.0347 130.992 45.24 131.72 45.24Z" fill="white" fill-opacity="0.7"/>
<g filter="url(#filter1_b_1_1774)">
<rect x="271" y="21" width="22" height="22" rx="11" fill="white" fill-opacity="0.15"/>
<rect x="271.5" y="21.5" width="21" height="21" rx="10.5" stroke="url(#paint1_linear_1_1774)"/>
</g>
<defs>
<filter id="filter0_b_1_1774" x="-25" y="-25" width="365" height="115" filterUnits="userSpaceOnUse" color-interpolation-filters="sRGB">
<feFlood flood-opacity="0" result="BackgroundImageFix"/>
<feGaussianBlur in="BackgroundImageFix" stdDeviation="12.5"/>
<feComposite in2="SourceAlpha" operator="in" result="effect1_backgroundBlur_1_1774"/>
<feBlend mode="normal" in="SourceGraphic" in2="effect1_backgroundBlur_1_1774" result="shape"/>
</filter>
<filter id="filter1_b_1_1774" x="246" y="-4" width="72" height="72" filterUnits="userSpaceOnUse" color-interpolation-filters="sRGB">
<feFlood flood-opacity="0" result="BackgroundImageFix"/>
<feGaussianBlur in="BackgroundImageFix" stdDeviation="12.5"/>
<feComposite in2="SourceAlpha" operator="in" result="effect1_backgroundBlur_1_1774"/>
<feBlend mode="normal" in="SourceGraphic" in2="effect1_backgroundBlur_1_1774" result="shape"/>
</filter>
<linearGradient id="paint0_linear_1_1774" x1="18.7844" y1="-5.5313e-05" x2="316.173" y2="68.9403" gradientUnits="userSpaceOnUse">
<stop stop-color="white" stop-opacity="0.5"/>
<stop offset="1" stop-color="white" stop-opacity="0.2"/>
</linearGradient>
<linearGradient id="paint1_linear_1_1774" x1="287.762" y1="41.4286" x2="271.07" y2="26.6598" gradientUnits="userSpaceOnUse">
<stop stop-color="white" stop-opacity="0"/>
<stop offset="1" stop-color="white" stop-opacity="0.2"/>
</linearGradient>
</defs>
</svg>
