<svg width="315" height="65" viewBox="0 0 315 65" fill="none" xmlns="http://www.w3.org/2000/svg">
<g opacity="0.6" filter="url(#filter0_b_1_1759)">
<rect width="315" height="65" rx="32.5" fill="url(#paint0_linear_1_1759)"/>
</g>
<path d="M196.47 32.1V27.96L205.95 14.4H211.68V27.66H214.14V32.1H211.68V36H206.55V32.1H196.47ZM206.91 20.04L201.87 27.66H206.91V20.04ZM218.963 36.24C218.063 36.24 217.323 35.98 216.743 35.46C216.183 34.92 215.903 34.26 215.903 33.48C215.903 32.68 216.183 32.01 216.743 31.47C217.323 30.93 218.063 30.66 218.963 30.66C219.843 30.66 220.563 30.93 221.123 31.47C221.703 32.01 221.993 32.68 221.993 33.48C221.993 34.26 221.703 34.92 221.123 35.46C220.563 35.98 219.843 36.24 218.963 36.24ZM229.44 29.58C229.74 31.16 230.66 31.95 232.2 31.95C233.26 31.95 234.01 31.48 234.45 30.54C234.89 29.6 235.11 28.07 235.11 25.95C234.67 26.57 234.07 27.05 233.31 27.39C232.55 27.73 231.7 27.9 230.76 27.9C229.48 27.9 228.34 27.64 227.34 27.12C226.34 26.58 225.55 25.79 224.97 24.75C224.41 23.69 224.13 22.41 224.13 20.91C224.13 19.43 224.43 18.14 225.03 17.04C225.65 15.94 226.52 15.09 227.64 14.49C228.78 13.89 230.12 13.59 231.66 13.59C234.62 13.59 236.69 14.51 237.87 16.35C239.05 18.19 239.64 20.9 239.64 24.48C239.64 27.08 239.4 29.23 238.92 30.93C238.46 32.61 237.67 33.89 236.55 34.77C235.45 35.65 233.94 36.09 232.02 36.09C230.5 36.09 229.2 35.79 228.12 35.19C227.06 34.59 226.24 33.8 225.66 32.82C225.1 31.84 224.78 30.76 224.7 29.58H229.44ZM231.93 23.85C232.77 23.85 233.44 23.6 233.94 23.1C234.44 22.58 234.69 21.88 234.69 21C234.69 20.04 234.43 19.3 233.91 18.78C233.39 18.26 232.69 18 231.81 18C230.93 18 230.23 18.27 229.71 18.81C229.21 19.33 228.96 20.05 228.96 20.97C228.96 21.83 229.21 22.53 229.71 23.07C230.23 23.59 230.97 23.85 231.93 23.85ZM247.297 29.58C247.597 31.16 248.517 31.95 250.057 31.95C251.117 31.95 251.867 31.48 252.307 30.54C252.747 29.6 252.967 28.07 252.967 25.95C252.527 26.57 251.927 27.05 251.167 27.39C250.407 27.73 249.557 27.9 248.617 27.9C247.337 27.9 246.197 27.64 245.197 27.12C244.197 26.58 243.407 25.79 242.827 24.75C242.267 23.69 241.987 22.41 241.987 20.91C241.987 19.43 242.287 18.14 242.887 17.04C243.507 15.94 244.377 15.09 245.497 14.49C246.637 13.89 247.977 13.59 249.517 13.59C252.477 13.59 254.547 14.51 255.727 16.35C256.907 18.19 257.497 20.9 257.497 24.48C257.497 27.08 257.257 29.23 256.777 30.93C256.317 32.61 255.527 33.89 254.407 34.77C253.307 35.65 251.797 36.09 249.877 36.09C248.357 36.09 247.057 35.79 245.977 35.19C244.917 34.59 244.097 33.8 243.517 32.82C242.957 31.84 242.637 30.76 242.557 29.58H247.297ZM249.787 23.85C250.627 23.85 251.297 23.6 251.797 23.1C252.297 22.58 252.547 21.88 252.547 21C252.547 20.04 252.287 19.3 251.767 18.78C251.247 18.26 250.547 18 249.667 18C248.787 18 248.087 18.27 247.567 18.81C247.067 19.33 246.817 20.05 246.817 20.97C246.817 21.83 247.067 22.53 247.567 23.07C248.087 23.59 248.827 23.85 249.787 23.85Z" fill="white"/>
<path d="M203.996 49.224C204.564 49.4 205.02 49.568 205.364 49.728C205.716 49.888 206.012 50.132 206.252 50.46C206.5 50.78 206.624 51.208 206.624 51.744C206.624 52.16 206.516 52.548 206.3 52.908C206.092 53.26 205.776 53.544 205.352 53.76C204.928 53.976 204.408 54.084 203.792 54.084H203.768V55.044H203.36V54.06C202.568 53.996 201.92 53.748 201.416 53.316C200.912 52.876 200.632 52.32 200.576 51.648H202.04C202.072 51.96 202.2 52.244 202.424 52.5C202.656 52.756 202.968 52.916 203.36 52.98V50.256C202.704 50.056 202.204 49.884 201.86 49.74C201.516 49.588 201.212 49.348 200.948 49.02C200.684 48.692 200.552 48.252 200.552 47.7C200.552 47.252 200.668 46.856 200.9 46.512C201.14 46.168 201.472 45.9 201.896 45.708C202.32 45.516 202.808 45.42 203.36 45.42V44.4H203.768V45.432C204.552 45.488 205.176 45.72 205.64 46.128C206.104 46.536 206.372 47.052 206.444 47.676H204.968C204.92 47.388 204.792 47.14 204.584 46.932C204.384 46.716 204.112 46.576 203.768 46.512V49.152L203.996 49.224ZM202.016 47.652C202.016 48.004 202.132 48.284 202.364 48.492C202.596 48.692 202.928 48.868 203.36 49.02V46.476C202.944 46.484 202.616 46.592 202.376 46.8C202.136 47 202.016 47.284 202.016 47.652ZM203.768 53.016C204.208 53.016 204.548 52.9 204.788 52.668C205.036 52.436 205.16 52.14 205.16 51.78C205.16 51.412 205.04 51.128 204.8 50.928C204.56 50.72 204.216 50.54 203.768 50.388V53.016ZM211.504 42.672L208.24 56.112H206.908L210.172 42.672H211.504ZM220.827 45.66V54H219.447V47.748L217.035 54H215.835L213.411 47.748V54H212.043V45.66H213.699L216.459 52.32L219.171 45.66H220.827ZM225.257 47.304C225.897 47.304 226.473 47.44 226.985 47.712C227.497 47.984 227.897 48.376 228.185 48.888C228.473 49.4 228.617 50 228.617 50.688C228.617 51.384 228.473 51.988 228.185 52.5C227.897 53.012 227.497 53.404 226.985 53.676C226.473 53.948 225.897 54.084 225.257 54.084C224.617 54.084 224.041 53.948 223.529 53.676C223.025 53.404 222.625 53.012 222.329 52.5C222.041 51.98 221.897 51.376 221.897 50.688C221.897 50 222.041 49.4 222.329 48.888C222.625 48.376 223.025 47.984 223.529 47.712C224.041 47.44 224.617 47.304 225.257 47.304ZM225.257 48.492C224.905 48.492 224.581 48.572 224.285 48.732C223.989 48.892 223.749 49.14 223.565 49.476C223.389 49.804 223.301 50.208 223.301 50.688C223.301 51.176 223.389 51.584 223.565 51.912C223.749 52.24 223.989 52.484 224.285 52.644C224.581 52.804 224.905 52.884 225.257 52.884C225.609 52.884 225.933 52.804 226.229 52.644C226.525 52.484 226.761 52.24 226.937 51.912C227.121 51.584 227.213 51.176 227.213 50.688C227.213 50.208 227.121 49.804 226.937 49.476C226.761 49.14 226.525 48.892 226.229 48.732C225.933 48.572 225.609 48.492 225.257 48.492ZM233.388 47.28C234.156 47.28 234.772 47.528 235.236 48.024C235.7 48.52 235.932 49.228 235.932 50.148V54H234.564V50.292C234.564 49.7 234.412 49.244 234.108 48.924C233.804 48.596 233.388 48.432 232.86 48.432C232.316 48.432 231.88 48.608 231.552 48.96C231.224 49.304 231.06 49.812 231.06 50.484V54H229.692V47.388H231.06V48.84C231.236 48.344 231.532 47.96 231.948 47.688C232.364 47.416 232.844 47.28 233.388 47.28ZM240.616 52.812V54H239.776C239.072 54 238.536 53.832 238.168 53.496C237.808 53.152 237.628 52.584 237.628 51.792V48.552H236.68V47.388H237.628V45.744H239.008V47.388H240.604V48.552H239.008V51.816C239.008 52.192 239.076 52.452 239.212 52.596C239.356 52.74 239.604 52.812 239.956 52.812H240.616ZM245.354 47.28C246.122 47.28 246.738 47.528 247.202 48.024C247.666 48.52 247.898 49.228 247.898 50.148V54H246.53V50.292C246.53 49.7 246.378 49.244 246.074 48.924C245.77 48.596 245.354 48.432 244.826 48.432C244.282 48.432 243.846 48.608 243.518 48.96C243.19 49.304 243.026 49.812 243.026 50.484V54H241.658V45.12H243.026V48.84C243.202 48.344 243.498 47.96 243.914 47.688C244.33 47.416 244.81 47.28 245.354 47.28Z" fill="white"/>
<path d="M24.198 19.154V16.274H29.346V29H26.106V19.154H24.198ZM30.668 26.552C34.484 23.828 36.392 21.662 36.392 20.054C36.392 19.07 35.966 18.578 35.114 18.578C34.634 18.578 34.28 18.746 34.052 19.082C33.836 19.418 33.716 19.94 33.692 20.648H30.686C30.758 19.1 31.226 17.936 32.09 17.156C32.954 16.376 34.046 15.986 35.366 15.986C36.746 15.986 37.784 16.334 38.48 17.03C39.188 17.726 39.542 18.632 39.542 19.748C39.542 20.984 39.068 22.196 38.12 23.384C37.172 24.56 36.038 25.556 34.718 26.372H39.74V28.856H30.668V26.552ZM58.5068 16.364V29H55.4288V21.098L52.6928 29H50.0288L47.2748 21.08V29H44.1968V16.364H47.9588L51.3968 25.166L54.7628 16.364H58.5068ZM64.9704 18.83C65.9664 18.83 66.8544 19.04 67.6344 19.46C68.4264 19.868 69.0444 20.462 69.4884 21.242C69.9444 22.022 70.1724 22.934 70.1724 23.978C70.1724 25.022 69.9444 25.934 69.4884 26.714C69.0444 27.494 68.4264 28.094 67.6344 28.514C66.8544 28.922 65.9664 29.126 64.9704 29.126C63.9744 29.126 63.0804 28.922 62.2884 28.514C61.4964 28.094 60.8724 27.494 60.4164 26.714C59.9724 25.934 59.7504 25.022 59.7504 23.978C59.7504 22.934 59.9724 22.022 60.4164 21.242C60.8724 20.462 61.4964 19.868 62.2884 19.46C63.0804 19.04 63.9744 18.83 64.9704 18.83ZM64.9704 21.494C64.3824 21.494 63.8844 21.71 63.4764 22.142C63.0804 22.562 62.8824 23.174 62.8824 23.978C62.8824 24.782 63.0804 25.394 63.4764 25.814C63.8844 26.234 64.3824 26.444 64.9704 26.444C65.5584 26.444 66.0504 26.234 66.4464 25.814C66.8424 25.394 67.0404 24.782 67.0404 23.978C67.0404 23.174 66.8424 22.562 66.4464 22.142C66.0504 21.71 65.5584 21.494 64.9704 21.494ZM77.7805 18.848C78.9325 18.848 79.8445 19.232 80.5165 20C81.2005 20.768 81.5425 21.824 81.5425 23.168V29H78.4645V23.528C78.4645 22.856 78.2845 22.334 77.9245 21.962C77.5765 21.578 77.1085 21.386 76.5205 21.386C75.8965 21.386 75.3985 21.584 75.0265 21.98C74.6665 22.376 74.4865 22.94 74.4865 23.672V29H71.4085V18.956H74.4865V20.792C74.7745 20.192 75.2005 19.718 75.7645 19.37C76.3405 19.022 77.0125 18.848 77.7805 18.848ZM88.9005 26.354V29H87.5145C86.3385 29 85.4205 28.712 84.7605 28.136C84.1125 27.548 83.7885 26.582 83.7885 25.238V21.548H82.4385V18.956H83.7885V16.49H86.8665V18.956H88.8825V21.548H86.8665V25.292C86.8665 25.688 86.9445 25.964 87.1005 26.12C87.2685 26.276 87.5445 26.354 87.9285 26.354H88.9005ZM96.6425 18.848C97.7945 18.848 98.7065 19.232 99.3785 20C100.063 20.768 100.405 21.824 100.405 23.168V29H97.3265V23.528C97.3265 22.856 97.1465 22.334 96.7865 21.962C96.4385 21.578 95.9705 21.386 95.3825 21.386C94.7585 21.386 94.2605 21.584 93.8885 21.98C93.5285 22.376 93.3485 22.94 93.3485 23.672V29H90.2705V15.68H93.3485V20.792C93.6365 20.192 94.0625 19.718 94.6265 19.37C95.2025 19.022 95.8745 18.848 96.6425 18.848Z" fill="white"/>
<path d="M31.4673 40.13V41.166H28.6813V50H27.4073V41.166H24.6213V40.13H31.4673ZM36.0098 42.216C36.7471 42.216 37.4051 42.3747 37.9838 42.692C38.5718 43.0093 39.0291 43.4667 39.3558 44.064C39.6918 44.6613 39.8598 45.3613 39.8598 46.164C39.8598 46.9667 39.6918 47.6667 39.3558 48.264C39.0291 48.852 38.5718 49.3047 37.9838 49.622C37.4051 49.9393 36.7471 50.098 36.0098 50.098C35.2724 50.098 34.6098 49.9393 34.0218 49.622C33.4431 49.3047 32.9858 48.852 32.6498 48.264C32.3138 47.6667 32.1458 46.9667 32.1458 46.164C32.1458 45.3613 32.3138 44.6613 32.6498 44.064C32.9858 43.4667 33.4431 43.0093 34.0218 42.692C34.6098 42.3747 35.2724 42.216 36.0098 42.216ZM36.0098 43.336C35.5524 43.336 35.1278 43.4387 34.7358 43.644C34.3531 43.8493 34.0404 44.1667 33.7978 44.596C33.5644 45.016 33.4478 45.5387 33.4478 46.164C33.4478 46.78 33.5644 47.3027 33.7978 47.732C34.0404 48.152 34.3531 48.4647 34.7358 48.67C35.1278 48.8753 35.5524 48.978 36.0098 48.978C36.4671 48.978 36.8871 48.8753 37.2698 48.67C37.6618 48.4647 37.9744 48.152 38.2078 47.732C38.4504 47.3027 38.5718 46.78 38.5718 46.164C38.5718 45.5387 38.4504 45.016 38.2078 44.596C37.9744 44.1667 37.6618 43.8493 37.2698 43.644C36.8871 43.4387 36.4671 43.336 36.0098 43.336ZM44.9779 48.88V50H44.0259C43.2419 50 42.6539 49.8133 42.2619 49.44C41.8792 49.0667 41.6879 48.4413 41.6879 47.564V43.42H40.5399V42.314H41.6879V40.396H42.9759V42.314H44.9639V43.42H42.9759V47.592C42.9759 48.0867 43.0645 48.4273 43.2419 48.614C43.4285 48.7913 43.7459 48.88 44.1939 48.88H44.9779ZM49.4725 42.216C50.2192 42.216 50.8492 42.4027 51.3625 42.776C51.8852 43.1493 52.2492 43.6487 52.4545 44.274V42.314H53.7285V50H52.4545V48.04C52.2492 48.6653 51.8852 49.1647 51.3625 49.538C50.8492 49.9113 50.2192 50.098 49.4725 50.098C48.7912 50.098 48.1845 49.9393 47.6525 49.622C47.1205 49.3047 46.7005 48.852 46.3925 48.264C46.0938 47.6667 45.9445 46.9667 45.9445 46.164C45.9445 45.3613 46.0938 44.6613 46.3925 44.064C46.7005 43.4667 47.1205 43.0093 47.6525 42.692C48.1845 42.3747 48.7912 42.216 49.4725 42.216ZM49.8365 43.35C49.0525 43.35 48.4225 43.602 47.9465 44.106C47.4798 44.6007 47.2465 45.2867 47.2465 46.164C47.2465 47.0413 47.4798 47.732 47.9465 48.236C48.4225 48.7307 49.0525 48.978 49.8365 48.978C50.3405 48.978 50.7885 48.8613 51.1805 48.628C51.5818 48.3947 51.8945 48.068 52.1185 47.648C52.3425 47.2187 52.4545 46.724 52.4545 46.164C52.4545 45.604 52.3425 45.1093 52.1185 44.68C51.8945 44.2507 51.5818 43.924 51.1805 43.7C50.7885 43.4667 50.3405 43.35 49.8365 43.35ZM56.8201 39.64V50H55.5461V39.64H56.8201ZM66.1494 42.216C66.8307 42.216 67.4374 42.3747 67.9694 42.692C68.5014 43.0093 68.9167 43.4667 69.2154 44.064C69.5234 44.6613 69.6774 45.3613 69.6774 46.164C69.6774 46.9667 69.5234 47.6667 69.2154 48.264C68.9167 48.852 68.5014 49.3047 67.9694 49.622C67.4374 49.9393 66.8307 50.098 66.1494 50.098C65.4027 50.098 64.768 49.9113 64.2454 49.538C63.732 49.1553 63.3774 48.656 63.1814 48.04V53.64H61.9074V42.314H63.1814V44.274C63.3774 43.658 63.732 43.1633 64.2454 42.79C64.768 42.4073 65.4027 42.216 66.1494 42.216ZM65.7854 43.35C65.2907 43.35 64.8427 43.4667 64.4414 43.7C64.04 43.924 63.7274 44.2507 63.5034 44.68C63.2794 45.1093 63.1674 45.604 63.1674 46.164C63.1674 46.724 63.2794 47.2187 63.5034 47.648C63.7274 48.068 64.04 48.3947 64.4414 48.628C64.8427 48.8613 65.2907 48.978 65.7854 48.978C66.5787 48.978 67.2087 48.7307 67.6754 48.236C68.1514 47.732 68.3894 47.0413 68.3894 46.164C68.3894 45.2867 68.1514 44.6007 67.6754 44.106C67.2087 43.602 66.5787 43.35 65.7854 43.35ZM72.4049 43.868C72.6569 43.336 73.0256 42.9253 73.5109 42.636C73.9963 42.3373 74.5749 42.188 75.2469 42.188V43.574H74.8549C74.1363 43.574 73.5483 43.7607 73.0909 44.134C72.6336 44.498 72.4049 45.1047 72.4049 45.954V50H71.1309V42.314H72.4049V43.868ZM76.07 40.06C76.07 39.8267 76.1493 39.64 76.308 39.5C76.4667 39.3507 76.6767 39.276 76.938 39.276C77.1993 39.276 77.4093 39.3507 77.568 39.5C77.7267 39.64 77.806 39.8267 77.806 40.06C77.806 40.2933 77.7267 40.4847 77.568 40.634C77.4093 40.774 77.1993 40.844 76.938 40.844C76.6767 40.844 76.4667 40.774 76.308 40.634C76.1493 40.4847 76.07 40.2933 76.07 40.06ZM77.568 42.314V50H76.294V42.314H77.568ZM82.8083 42.216C83.7883 42.216 84.6003 42.4773 85.2443 43C85.8883 43.5227 86.2849 44.2227 86.4343 45.1H85.0903C84.9969 44.5493 84.7403 44.12 84.3203 43.812C83.9096 43.4947 83.3963 43.336 82.7803 43.336C82.3323 43.336 81.9216 43.4387 81.5483 43.644C81.1843 43.8493 80.8903 44.1667 80.6663 44.596C80.4423 45.016 80.3303 45.5387 80.3303 46.164C80.3303 46.7893 80.4423 47.3167 80.6663 47.746C80.8903 48.166 81.1843 48.4787 81.5483 48.684C81.9216 48.8893 82.3323 48.992 82.7803 48.992C83.3963 48.992 83.9096 48.8333 84.3203 48.516C84.7403 48.1987 84.9969 47.7647 85.0903 47.214H86.4343C86.2849 48.1007 85.8883 48.8053 85.2443 49.328C84.6003 49.8413 83.7883 50.098 82.8083 50.098C82.0709 50.098 81.4176 49.9393 80.8483 49.622C80.2789 49.3047 79.8309 48.852 79.5043 48.264C79.1869 47.6667 79.0283 46.9667 79.0283 46.164C79.0283 45.3613 79.1869 44.6613 79.5043 44.064C79.8309 43.4667 80.2789 43.0093 80.8483 42.692C81.4176 42.3747 82.0709 42.216 82.8083 42.216ZM94.9616 45.73C94.9616 46.0007 94.9429 46.234 94.9056 46.43H88.7596C88.7876 47.3073 89.0349 47.9653 89.5016 48.404C89.9776 48.8427 90.5562 49.062 91.2376 49.062C91.8536 49.062 92.3669 48.908 92.7776 48.6C93.1976 48.2827 93.4542 47.8627 93.5476 47.34H94.9056C94.8122 47.872 94.6022 48.348 94.2756 48.768C93.9582 49.188 93.5429 49.5147 93.0296 49.748C92.5162 49.9813 91.9376 50.098 91.2936 50.098C90.5562 50.098 89.9029 49.9393 89.3336 49.622C88.7642 49.3047 88.3162 48.852 87.9896 48.264C87.6722 47.6667 87.5136 46.9667 87.5136 46.164C87.5136 45.3613 87.6722 44.6613 87.9896 44.064C88.3162 43.4667 88.7642 43.0093 89.3336 42.692C89.9029 42.3747 90.5562 42.216 91.2936 42.216C92.0402 42.216 92.6889 42.3747 93.2396 42.692C93.7996 43.0093 94.2242 43.434 94.5136 43.966C94.8122 44.498 94.9616 45.086 94.9616 45.73ZM93.6736 45.814C93.7016 45.2447 93.6082 44.7687 93.3936 44.386C93.1789 44.0033 92.8849 43.7187 92.5116 43.532C92.1382 43.3453 91.7322 43.252 91.2936 43.252C90.5936 43.252 90.0056 43.4713 89.5296 43.91C89.0536 44.3393 88.7969 44.974 88.7596 45.814H93.6736ZM102.915 44.47C103.643 44.694 104.208 44.8947 104.609 45.072C105.01 45.2493 105.36 45.5293 105.659 45.912C105.958 46.2853 106.107 46.794 106.107 47.438C106.107 47.9047 105.99 48.3387 105.757 48.74C105.533 49.1413 105.183 49.468 104.707 49.72C104.231 49.972 103.648 50.098 102.957 50.098H102.915V51.218H102.481V50.07C101.594 49.986 100.871 49.6967 100.311 49.202C99.7509 48.698 99.4382 48.0773 99.3729 47.34H100.731C100.768 47.732 100.936 48.1007 101.235 48.446C101.543 48.782 101.958 48.992 102.481 49.076V45.492C101.762 45.2773 101.202 45.086 100.801 44.918C100.409 44.7407 100.064 44.4653 99.7649 44.092C99.4755 43.7187 99.3309 43.2193 99.3309 42.594C99.3309 42.0807 99.4615 41.628 99.7229 41.236C99.9842 40.844 100.353 40.5407 100.829 40.326C101.305 40.1113 101.856 40.004 102.481 40.004V38.8H102.915V40.018C103.783 40.0833 104.474 40.3493 104.987 40.816C105.5 41.2827 105.804 41.8473 105.897 42.51H104.525C104.46 42.1553 104.292 41.838 104.021 41.558C103.75 41.278 103.382 41.1007 102.915 41.026V44.47ZM100.703 42.538C100.703 43.014 100.852 43.3827 101.151 43.644C101.459 43.9053 101.902 44.134 102.481 44.33V40.998C101.94 40.998 101.506 41.1333 101.179 41.404C100.862 41.6653 100.703 42.0433 100.703 42.538ZM102.929 49.104C103.508 49.104 103.956 48.95 104.273 48.642C104.59 48.334 104.749 47.942 104.749 47.466C104.749 46.9713 104.59 46.5887 104.273 46.318C103.956 46.0473 103.503 45.8187 102.915 45.632V49.104H102.929ZM107.577 42.454C107.577 41.9687 107.708 41.5253 107.969 41.124C108.231 40.7227 108.618 40.4053 109.131 40.172C109.645 39.9387 110.256 39.822 110.965 39.822C111.675 39.822 112.281 39.9387 112.785 40.172C113.299 40.4053 113.686 40.7227 113.947 41.124C114.209 41.5253 114.339 41.9687 114.339 42.454C114.339 43.0047 114.19 43.4807 113.891 43.882C113.593 44.2833 113.14 44.568 112.533 44.736C113.187 44.9133 113.695 45.2213 114.059 45.66C114.423 46.0987 114.605 46.64 114.605 47.284C114.605 48.2173 114.274 48.95 113.611 49.482C112.949 50.014 112.067 50.28 110.965 50.28C109.864 50.28 108.982 50.014 108.319 49.482C107.657 48.95 107.325 48.2173 107.325 47.284C107.325 46.64 107.503 46.0987 107.857 45.66C108.221 45.2213 108.73 44.9133 109.383 44.736C108.777 44.568 108.324 44.2833 108.025 43.882C107.727 43.4807 107.577 43.0047 107.577 42.454ZM108.837 42.636C108.837 43.196 109.029 43.63 109.411 43.938C109.794 44.2367 110.312 44.386 110.965 44.386C111.619 44.386 112.132 44.2367 112.505 43.938C112.888 43.63 113.079 43.196 113.079 42.636C113.079 42.076 112.888 41.6467 112.505 41.348C112.123 41.04 111.609 40.886 110.965 40.886C110.321 40.886 109.803 41.04 109.411 41.348C109.029 41.6467 108.837 42.076 108.837 42.636ZM108.571 47.214C108.571 47.8487 108.786 48.3433 109.215 48.698C109.645 49.0433 110.228 49.216 110.965 49.216C111.693 49.216 112.272 49.0387 112.701 48.684C113.131 48.3293 113.345 47.8393 113.345 47.214C113.345 46.5793 113.121 46.0987 112.673 45.772C112.225 45.4453 111.656 45.282 110.965 45.282C110.265 45.282 109.691 45.4453 109.243 45.772C108.795 46.0987 108.571 46.5793 108.571 47.214ZM115.557 47.732V46.668L120.625 40.06H121.997V46.626H123.453V47.732H121.997V50H120.709V47.732H115.557ZM120.793 41.614L116.901 46.626H120.793V41.614ZM125.555 48.502V50H124.015V48.502H125.555ZM128.018 47.228C128.102 47.816 128.307 48.2687 128.634 48.586C128.96 48.9033 129.408 49.062 129.978 49.062C130.762 49.062 131.354 48.7587 131.756 48.152C132.157 47.5453 132.358 46.584 132.358 45.268C132.358 45.016 132.353 44.8247 132.344 44.694C132.213 45.254 131.896 45.702 131.392 46.038C130.888 46.374 130.295 46.542 129.614 46.542C128.634 46.542 127.864 46.248 127.304 45.66C126.744 45.072 126.464 44.2507 126.464 43.196C126.464 42.58 126.585 42.02 126.828 41.516C127.07 41.012 127.439 40.6153 127.934 40.326C128.438 40.0273 129.058 39.878 129.796 39.878C131.214 39.878 132.185 40.3167 132.708 41.194C133.24 42.062 133.506 43.2567 133.506 44.778C133.506 46.514 133.235 47.8393 132.694 48.754C132.152 49.6593 131.247 50.112 129.978 50.112C129.035 50.112 128.293 49.846 127.752 49.314C127.22 48.7727 126.907 48.0773 126.814 47.228H128.018ZM132.218 43.392C132.218 42.72 132.017 42.1507 131.616 41.684C131.224 41.2173 130.631 40.984 129.838 40.984C129.184 40.984 128.662 41.18 128.27 41.572C127.878 41.964 127.682 42.51 127.682 43.21C127.682 43.9567 127.878 44.5307 128.27 44.932C128.662 45.3333 129.198 45.534 129.88 45.534C130.272 45.534 130.645 45.4547 131 45.296C131.364 45.1373 131.658 44.8947 131.882 44.568C132.106 44.2413 132.218 43.8493 132.218 43.392ZM136.325 47.228C136.409 47.816 136.614 48.2687 136.941 48.586C137.268 48.9033 137.716 49.062 138.285 49.062C139.069 49.062 139.662 48.7587 140.063 48.152C140.464 47.5453 140.665 46.584 140.665 45.268C140.665 45.016 140.66 44.8247 140.651 44.694C140.52 45.254 140.203 45.702 139.699 46.038C139.195 46.374 138.602 46.542 137.921 46.542C136.941 46.542 136.171 46.248 135.611 45.66C135.051 45.072 134.771 44.2507 134.771 43.196C134.771 42.58 134.892 42.02 135.135 41.516C135.378 41.012 135.746 40.6153 136.241 40.326C136.745 40.0273 137.366 39.878 138.103 39.878C139.522 39.878 140.492 40.3167 141.015 41.194C141.547 42.062 141.813 43.2567 141.813 44.778C141.813 46.514 141.542 47.8393 141.001 48.754C140.46 49.6593 139.554 50.112 138.285 50.112C137.342 50.112 136.6 49.846 136.059 49.314C135.527 48.7727 135.214 48.0773 135.121 47.228H136.325ZM140.525 43.392C140.525 42.72 140.324 42.1507 139.923 41.684C139.531 41.2173 138.938 40.984 138.145 40.984C137.492 40.984 136.969 41.18 136.577 41.572C136.185 41.964 135.989 42.51 135.989 43.21C135.989 43.9567 136.185 44.5307 136.577 44.932C136.969 45.3333 137.506 45.534 138.187 45.534C138.579 45.534 138.952 45.4547 139.307 45.296C139.671 45.1373 139.965 44.8947 140.189 44.568C140.413 44.2413 140.525 43.8493 140.525 43.392Z" fill="white" fill-opacity="0.7"/>
<g filter="url(#filter1_b_1_1759)">
<rect x="271" y="22" width="22" height="22" rx="11" fill="white" fill-opacity="0.15"/>
<rect x="271.5" y="22.5" width="21" height="21" rx="10.5" stroke="url(#paint1_linear_1_1759)"/>
</g>
<defs>
<filter id="filter0_b_1_1759" x="-25" y="-25" width="365" height="115" filterUnits="userSpaceOnUse" color-interpolation-filters="sRGB">
<feFlood flood-opacity="0" result="BackgroundImageFix"/>
<feGaussianBlur in="BackgroundImageFix" stdDeviation="12.5"/>
<feComposite in2="SourceAlpha" operator="in" result="effect1_backgroundBlur_1_1759"/>
<feBlend mode="normal" in="SourceGraphic" in2="effect1_backgroundBlur_1_1759" result="shape"/>
</filter>
<filter id="filter1_b_1_1759" x="246" y="-3" width="72" height="72" filterUnits="userSpaceOnUse" color-interpolation-filters="sRGB">
<feFlood flood-opacity="0" result="BackgroundImageFix"/>
<feGaussianBlur in="BackgroundImageFix" stdDeviation="12.5"/>
<feComposite in2="SourceAlpha" operator="in" result="effect1_backgroundBlur_1_1759"/>
<feBlend mode="normal" in="SourceGraphic" in2="effect1_backgroundBlur_1_1759" result="shape"/>
</filter>
<linearGradient id="paint0_linear_1_1759" x1="18.7844" y1="-5.5313e-05" x2="316.173" y2="68.9403" gradientUnits="userSpaceOnUse">
<stop stop-color="white" stop-opacity="0.5"/>
<stop offset="1" stop-color="white" stop-opacity="0.2"/>
</linearGradient>
<linearGradient id="paint1_linear_1_1759" x1="287.762" y1="42.4286" x2="271.07" y2="27.6598" gradientUnits="userSpaceOnUse">
<stop stop-color="white" stop-opacity="0"/>
<stop offset="1" stop-color="white" stop-opacity="0.2"/>
</linearGradient>
</defs>
</svg>
