<svg width="372" height="125" viewBox="0 0 372 125" fill="none" xmlns="http://www.w3.org/2000/svg">
<g filter="url(#filter0_bd_1_1766)">
<rect x="30" y="15" width="315" height="65" rx="32.5" fill="url(#paint0_linear_1_1766)"/>
</g>
<path d="M226.17 45.89C226.85 45.35 227.16 45.1 227.1 45.14C229.06 43.52 230.6 42.19 231.72 41.15C232.86 40.11 233.82 39.02 234.6 37.88C235.38 36.74 235.77 35.63 235.77 34.55C235.77 33.73 235.58 33.09 235.2 32.63C234.82 32.17 234.25 31.94 233.49 31.94C232.73 31.94 232.13 32.23 231.69 32.81C231.27 33.37 231.06 34.17 231.06 35.21H226.11C226.15 33.51 226.51 32.09 227.19 30.95C227.89 29.81 228.8 28.97 229.92 28.43C231.06 27.89 232.32 27.62 233.7 27.62C236.08 27.62 237.87 28.23 239.07 29.45C240.29 30.67 240.9 32.26 240.9 34.22C240.9 36.36 240.17 38.35 238.71 40.19C237.25 42.01 235.39 43.79 233.13 45.53H241.23V49.7H226.17V45.89ZM245.799 50.24C244.899 50.24 244.159 49.98 243.579 49.46C243.019 48.92 242.739 48.26 242.739 47.48C242.739 46.68 243.019 46.01 243.579 45.47C244.159 44.93 244.899 44.66 245.799 44.66C246.679 44.66 247.399 44.93 247.959 45.47C248.539 46.01 248.829 46.68 248.829 47.48C248.829 48.26 248.539 48.92 247.959 49.46C247.399 49.98 246.679 50.24 245.799 50.24ZM256.275 43.58C256.575 45.16 257.495 45.95 259.035 45.95C260.095 45.95 260.845 45.48 261.285 44.54C261.725 43.6 261.945 42.07 261.945 39.95C261.505 40.57 260.905 41.05 260.145 41.39C259.385 41.73 258.535 41.9 257.595 41.9C256.315 41.9 255.175 41.64 254.175 41.12C253.175 40.58 252.385 39.79 251.805 38.75C251.245 37.69 250.965 36.41 250.965 34.91C250.965 33.43 251.265 32.14 251.865 31.04C252.485 29.94 253.355 29.09 254.475 28.49C255.615 27.89 256.955 27.59 258.495 27.59C261.455 27.59 263.525 28.51 264.705 30.35C265.885 32.19 266.475 34.9 266.475 38.48C266.475 41.08 266.235 43.23 265.755 44.93C265.295 46.61 264.505 47.89 263.385 48.77C262.285 49.65 260.775 50.09 258.855 50.09C257.335 50.09 256.035 49.79 254.955 49.19C253.895 48.59 253.075 47.8 252.495 46.82C251.935 45.84 251.615 44.76 251.535 43.58H256.275ZM258.765 37.85C259.605 37.85 260.275 37.6 260.775 37.1C261.275 36.58 261.525 35.88 261.525 35C261.525 34.04 261.265 33.3 260.745 32.78C260.225 32.26 259.525 32 258.645 32C257.765 32 257.065 32.27 256.545 32.81C256.045 33.33 255.795 34.05 255.795 34.97C255.795 35.83 256.045 36.53 256.545 37.07C257.065 37.59 257.805 37.85 258.765 37.85ZM274.133 43.58C274.433 45.16 275.353 45.95 276.893 45.95C277.953 45.95 278.703 45.48 279.143 44.54C279.583 43.6 279.803 42.07 279.803 39.95C279.363 40.57 278.763 41.05 278.003 41.39C277.243 41.73 276.393 41.9 275.453 41.9C274.173 41.9 273.033 41.64 272.033 41.12C271.033 40.58 270.243 39.79 269.663 38.75C269.103 37.69 268.823 36.41 268.823 34.91C268.823 33.43 269.123 32.14 269.723 31.04C270.343 29.94 271.213 29.09 272.333 28.49C273.473 27.89 274.813 27.59 276.353 27.59C279.313 27.59 281.383 28.51 282.563 30.35C283.743 32.19 284.333 34.9 284.333 38.48C284.333 41.08 284.093 43.23 283.613 44.93C283.153 46.61 282.363 47.89 281.243 48.77C280.143 49.65 278.633 50.09 276.713 50.09C275.193 50.09 273.893 49.79 272.813 49.19C271.753 48.59 270.933 47.8 270.353 46.82C269.793 45.84 269.473 44.76 269.393 43.58H274.133ZM276.623 37.85C277.463 37.85 278.133 37.6 278.633 37.1C279.133 36.58 279.383 35.88 279.383 35C279.383 34.04 279.123 33.3 278.603 32.78C278.083 32.26 277.383 32 276.503 32C275.623 32 274.923 32.27 274.403 32.81C273.903 33.33 273.653 34.05 273.653 34.97C273.653 35.83 273.903 36.53 274.403 37.07C274.923 37.59 275.663 37.85 276.623 37.85Z" fill="white"/>
<path d="M233.996 63.224C234.564 63.4 235.02 63.568 235.364 63.728C235.716 63.888 236.012 64.132 236.252 64.46C236.5 64.78 236.624 65.208 236.624 65.744C236.624 66.16 236.516 66.548 236.3 66.908C236.092 67.26 235.776 67.544 235.352 67.76C234.928 67.976 234.408 68.084 233.792 68.084H233.768V69.044H233.36V68.06C232.568 67.996 231.92 67.748 231.416 67.316C230.912 66.876 230.632 66.32 230.576 65.648H232.04C232.072 65.96 232.2 66.244 232.424 66.5C232.656 66.756 232.968 66.916 233.36 66.98V64.256C232.704 64.056 232.204 63.884 231.86 63.74C231.516 63.588 231.212 63.348 230.948 63.02C230.684 62.692 230.552 62.252 230.552 61.7C230.552 61.252 230.668 60.856 230.9 60.512C231.14 60.168 231.472 59.9 231.896 59.708C232.32 59.516 232.808 59.42 233.36 59.42V58.4H233.768V59.432C234.552 59.488 235.176 59.72 235.64 60.128C236.104 60.536 236.372 61.052 236.444 61.676H234.968C234.92 61.388 234.792 61.14 234.584 60.932C234.384 60.716 234.112 60.576 233.768 60.512V63.152L233.996 63.224ZM232.016 61.652C232.016 62.004 232.132 62.284 232.364 62.492C232.596 62.692 232.928 62.868 233.36 63.02V60.476C232.944 60.484 232.616 60.592 232.376 60.8C232.136 61 232.016 61.284 232.016 61.652ZM233.768 67.016C234.208 67.016 234.548 66.9 234.788 66.668C235.036 66.436 235.16 66.14 235.16 65.78C235.16 65.412 235.04 65.128 234.8 64.928C234.56 64.72 234.216 64.54 233.768 64.388V67.016ZM241.504 56.672L238.24 70.112H236.908L240.172 56.672H241.504ZM250.827 59.66V68H249.447V61.748L247.035 68H245.835L243.411 61.748V68H242.043V59.66H243.699L246.459 66.32L249.171 59.66H250.827ZM255.257 61.304C255.897 61.304 256.473 61.44 256.985 61.712C257.497 61.984 257.897 62.376 258.185 62.888C258.473 63.4 258.617 64 258.617 64.688C258.617 65.384 258.473 65.988 258.185 66.5C257.897 67.012 257.497 67.404 256.985 67.676C256.473 67.948 255.897 68.084 255.257 68.084C254.617 68.084 254.041 67.948 253.529 67.676C253.025 67.404 252.625 67.012 252.329 66.5C252.041 65.98 251.897 65.376 251.897 64.688C251.897 64 252.041 63.4 252.329 62.888C252.625 62.376 253.025 61.984 253.529 61.712C254.041 61.44 254.617 61.304 255.257 61.304ZM255.257 62.492C254.905 62.492 254.581 62.572 254.285 62.732C253.989 62.892 253.749 63.14 253.565 63.476C253.389 63.804 253.301 64.208 253.301 64.688C253.301 65.176 253.389 65.584 253.565 65.912C253.749 66.24 253.989 66.484 254.285 66.644C254.581 66.804 254.905 66.884 255.257 66.884C255.609 66.884 255.933 66.804 256.229 66.644C256.525 66.484 256.761 66.24 256.937 65.912C257.121 65.584 257.213 65.176 257.213 64.688C257.213 64.208 257.121 63.804 256.937 63.476C256.761 63.14 256.525 62.892 256.229 62.732C255.933 62.572 255.609 62.492 255.257 62.492ZM263.388 61.28C264.156 61.28 264.772 61.528 265.236 62.024C265.7 62.52 265.932 63.228 265.932 64.148V68H264.564V64.292C264.564 63.7 264.412 63.244 264.108 62.924C263.804 62.596 263.388 62.432 262.86 62.432C262.316 62.432 261.88 62.608 261.552 62.96C261.224 63.304 261.06 63.812 261.06 64.484V68H259.692V61.388H261.06V62.84C261.236 62.344 261.532 61.96 261.948 61.688C262.364 61.416 262.844 61.28 263.388 61.28ZM270.616 66.812V68H269.776C269.072 68 268.536 67.832 268.168 67.496C267.808 67.152 267.628 66.584 267.628 65.792V62.552H266.68V61.388H267.628V59.744H269.008V61.388H270.604V62.552H269.008V65.816C269.008 66.192 269.076 66.452 269.212 66.596C269.356 66.74 269.604 66.812 269.956 66.812H270.616ZM275.354 61.28C276.122 61.28 276.738 61.528 277.202 62.024C277.666 62.52 277.898 63.228 277.898 64.148V68H276.53V64.292C276.53 63.7 276.378 63.244 276.074 62.924C275.77 62.596 275.354 62.432 274.826 62.432C274.282 62.432 273.846 62.608 273.518 62.96C273.19 63.304 273.026 63.812 273.026 64.484V68H271.658V59.12H273.026V62.84C273.202 62.344 273.498 61.96 273.914 61.688C274.33 61.416 274.81 61.28 275.354 61.28Z" fill="white"/>
<path d="M61.2 34.784C61.116 34.268 60.948 33.878 60.696 33.614C60.456 33.35 60.108 33.218 59.652 33.218C58.956 33.218 58.458 33.542 58.158 34.19C57.87 34.826 57.738 35.81 57.762 37.142C57.966 36.65 58.314 36.266 58.806 35.99C59.31 35.702 59.892 35.558 60.552 35.558C61.752 35.558 62.7 35.924 63.396 36.656C64.092 37.376 64.44 38.414 64.44 39.77C64.44 40.622 64.266 41.378 63.918 42.038C63.57 42.698 63.054 43.214 62.37 43.586C61.698 43.946 60.888 44.126 59.94 44.126C58.08 44.126 56.796 43.55 56.088 42.398C55.38 41.246 55.026 39.65 55.026 37.61C55.026 35.258 55.404 33.53 56.16 32.426C56.916 31.31 58.146 30.752 59.85 30.752C61.194 30.752 62.214 31.136 62.91 31.904C63.606 32.66 63.996 33.62 64.08 34.784H61.2ZM57.996 39.626C57.996 40.178 58.152 40.628 58.464 40.976C58.776 41.312 59.232 41.48 59.832 41.48C60.372 41.48 60.792 41.33 61.092 41.03C61.404 40.73 61.56 40.292 61.56 39.716C61.56 39.14 61.404 38.702 61.092 38.402C60.78 38.09 60.354 37.934 59.814 37.934C59.298 37.934 58.866 38.084 58.518 38.384C58.17 38.672 57.996 39.086 57.996 39.626ZM83.5583 31.364V44H80.4803V36.098L77.7443 44H75.0803L72.3262 36.08V44H69.2482V31.364H73.0102L76.4483 40.166L79.8143 31.364H83.5583ZM90.0218 33.83C91.0178 33.83 91.9058 34.04 92.6858 34.46C93.4778 34.868 94.0958 35.462 94.5398 36.242C94.9958 37.022 95.2238 37.934 95.2238 38.978C95.2238 40.022 94.9958 40.934 94.5398 41.714C94.0958 42.494 93.4778 43.094 92.6858 43.514C91.9058 43.922 91.0178 44.126 90.0218 44.126C89.0258 44.126 88.1318 43.922 87.3398 43.514C86.5478 43.094 85.9238 42.494 85.4678 41.714C85.0238 40.934 84.8018 40.022 84.8018 38.978C84.8018 37.934 85.0238 37.022 85.4678 36.242C85.9238 35.462 86.5478 34.868 87.3398 34.46C88.1318 34.04 89.0258 33.83 90.0218 33.83ZM90.0218 36.494C89.4338 36.494 88.9358 36.71 88.5278 37.142C88.1318 37.562 87.9338 38.174 87.9338 38.978C87.9338 39.782 88.1318 40.394 88.5278 40.814C88.9358 41.234 89.4338 41.444 90.0218 41.444C90.6098 41.444 91.1018 41.234 91.4978 40.814C91.8938 40.394 92.0918 39.782 92.0918 38.978C92.0918 38.174 91.8938 37.562 91.4978 37.142C91.1018 36.71 90.6098 36.494 90.0218 36.494ZM102.832 33.848C103.984 33.848 104.896 34.232 105.568 35C106.252 35.768 106.594 36.824 106.594 38.168V44H103.516V38.528C103.516 37.856 103.336 37.334 102.976 36.962C102.628 36.578 102.16 36.386 101.572 36.386C100.948 36.386 100.45 36.584 100.078 36.98C99.7179 37.376 99.5379 37.94 99.5379 38.672V44H96.4599V33.956H99.5379V35.792C99.8259 35.192 100.252 34.718 100.816 34.37C101.392 34.022 102.064 33.848 102.832 33.848ZM113.952 41.354V44H112.566C111.39 44 110.472 43.712 109.812 43.136C109.164 42.548 108.84 41.582 108.84 40.238V36.548H107.49V33.956H108.84V31.49H111.918V33.956H113.934V36.548H111.918V40.292C111.918 40.688 111.996 40.964 112.152 41.12C112.32 41.276 112.596 41.354 112.98 41.354H113.952ZM121.694 33.848C122.846 33.848 123.758 34.232 124.43 35C125.114 35.768 125.456 36.824 125.456 38.168V44H122.378V38.528C122.378 37.856 122.198 37.334 121.838 36.962C121.49 36.578 121.022 36.386 120.434 36.386C119.81 36.386 119.312 36.584 118.94 36.98C118.58 37.376 118.4 37.94 118.4 38.672V44H115.322V30.68H118.4V35.792C118.688 35.192 119.114 34.718 119.678 34.37C120.254 34.022 120.926 33.848 121.694 33.848Z" fill="white"/>
<path d="M60.2713 55.242V56.278H57.6113V65H56.3373V56.278H53.6633V55.242H60.2713ZM64.9756 65.126C64.2569 65.126 63.6036 64.9627 63.0156 64.636C62.4369 64.3093 61.9796 63.8473 61.6436 63.25C61.3169 62.6433 61.1536 61.9433 61.1536 61.15C61.1536 60.366 61.3216 59.6753 61.6576 59.078C62.0029 58.4713 62.4696 58.0093 63.0576 57.692C63.6456 57.3653 64.3036 57.202 65.0316 57.202C65.7596 57.202 66.4176 57.3653 67.0056 57.692C67.5936 58.0093 68.0556 58.4667 68.3916 59.064C68.7369 59.6613 68.9096 60.3567 68.9096 61.15C68.9096 61.9433 68.7322 62.6433 68.3776 63.25C68.0322 63.8473 67.5609 64.3093 66.9636 64.636C66.3662 64.9627 65.7036 65.126 64.9756 65.126ZM64.9756 64.006C65.4329 64.006 65.8622 63.8987 66.2636 63.684C66.6649 63.4693 66.9869 63.1473 67.2296 62.718C67.4816 62.2887 67.6076 61.766 67.6076 61.15C67.6076 60.534 67.4862 60.0113 67.2436 59.582C67.0009 59.1527 66.6836 58.8353 66.2916 58.63C65.8996 58.4153 65.4749 58.308 65.0176 58.308C64.5509 58.308 64.1216 58.4153 63.7296 58.63C63.3469 58.8353 63.0389 59.1527 62.8056 59.582C62.5722 60.0113 62.4556 60.534 62.4556 61.15C62.4556 61.7753 62.5676 62.3027 62.7916 62.732C63.0249 63.1613 63.3329 63.4833 63.7156 63.698C64.0982 63.9033 64.5182 64.006 64.9756 64.006ZM71.9286 58.378V62.9C71.9286 63.2733 72.008 63.5393 72.1666 63.698C72.3253 63.8473 72.6006 63.922 72.9926 63.922H73.9306V65H72.7826C72.0733 65 71.5413 64.8367 71.1866 64.51C70.832 64.1833 70.6546 63.6467 70.6546 62.9V58.378H69.6606V57.328H70.6546V55.396H71.9286V57.328H73.9306V58.378H71.9286ZM74.7883 61.136C74.7883 60.352 74.9469 59.666 75.2643 59.078C75.5816 58.4807 76.0156 58.0187 76.5663 57.692C77.1263 57.3653 77.7469 57.202 78.4283 57.202C79.1003 57.202 79.6836 57.3467 80.1783 57.636C80.6729 57.9253 81.0416 58.2893 81.2843 58.728V57.328H82.5723V65H81.2843V63.572C81.0323 64.02 80.6543 64.3933 80.1503 64.692C79.6556 64.9813 79.0769 65.126 78.4143 65.126C77.7329 65.126 77.1169 64.958 76.5663 64.622C76.0156 64.286 75.5816 63.8147 75.2643 63.208C74.9469 62.6013 74.7883 61.9107 74.7883 61.136ZM81.2843 61.15C81.2843 60.5713 81.1676 60.0673 80.9343 59.638C80.7009 59.2087 80.3836 58.882 79.9823 58.658C79.5903 58.4247 79.1563 58.308 78.6803 58.308C78.2043 58.308 77.7703 58.42 77.3783 58.644C76.9863 58.868 76.6736 59.1947 76.4403 59.624C76.2069 60.0533 76.0903 60.5573 76.0903 61.136C76.0903 61.724 76.2069 62.2373 76.4403 62.676C76.6736 63.1053 76.9863 63.4367 77.3783 63.67C77.7703 63.894 78.2043 64.006 78.6803 64.006C79.1563 64.006 79.5903 63.894 79.9823 63.67C80.3836 63.4367 80.7009 63.1053 80.9343 62.676C81.1676 62.2373 81.2843 61.7287 81.2843 61.15ZM85.7892 54.64V65H84.5152V54.64H85.7892ZM92.5469 58.742C92.7989 58.3033 93.1723 57.9393 93.6669 57.65C94.1709 57.3513 94.7543 57.202 95.4169 57.202C96.0983 57.202 96.7143 57.3653 97.2649 57.692C97.8249 58.0187 98.2636 58.4807 98.5809 59.078C98.8983 59.666 99.0569 60.352 99.0569 61.136C99.0569 61.9107 98.8983 62.6013 98.5809 63.208C98.2636 63.8147 97.8249 64.286 97.2649 64.622C96.7143 64.958 96.0983 65.126 95.4169 65.126C94.7636 65.126 94.1849 64.9813 93.6809 64.692C93.1863 64.3933 92.8083 64.0247 92.5469 63.586V68.64H91.2729V57.328H92.5469V58.742ZM97.7549 61.136C97.7549 60.5573 97.6383 60.0533 97.4049 59.624C97.1716 59.1947 96.8543 58.868 96.4529 58.644C96.0609 58.42 95.6269 58.308 95.1509 58.308C94.6843 58.308 94.2503 58.4247 93.8489 58.658C93.4569 58.882 93.1396 59.2133 92.8969 59.652C92.6636 60.0813 92.5469 60.5807 92.5469 61.15C92.5469 61.7287 92.6636 62.2373 92.8969 62.676C93.1396 63.1053 93.4569 63.4367 93.8489 63.67C94.2503 63.894 94.6843 64.006 95.1509 64.006C95.6269 64.006 96.0609 63.894 96.4529 63.67C96.8543 63.4367 97.1716 63.1053 97.4049 62.676C97.6383 62.2373 97.7549 61.724 97.7549 61.136ZM101.798 58.574C102.022 58.1353 102.339 57.7947 102.75 57.552C103.17 57.3093 103.679 57.188 104.276 57.188V58.504H103.94C102.512 58.504 101.798 59.2787 101.798 60.828V65H100.524V57.328H101.798V58.574ZM106.195 56.082C105.952 56.082 105.747 55.998 105.579 55.83C105.411 55.662 105.327 55.4567 105.327 55.214C105.327 54.9713 105.411 54.766 105.579 54.598C105.747 54.43 105.952 54.346 106.195 54.346C106.428 54.346 106.624 54.43 106.783 54.598C106.951 54.766 107.035 54.9713 107.035 55.214C107.035 55.4567 106.951 55.662 106.783 55.83C106.624 55.998 106.428 56.082 106.195 56.082ZM106.811 57.328V65H105.537V57.328H106.811ZM108.296 61.15C108.296 60.3567 108.454 59.666 108.772 59.078C109.089 58.4807 109.528 58.0187 110.088 57.692C110.657 57.3653 111.306 57.202 112.034 57.202C112.976 57.202 113.751 57.4307 114.358 57.888C114.974 58.3453 115.38 58.98 115.576 59.792H114.204C114.073 59.3253 113.816 58.9567 113.434 58.686C113.06 58.4153 112.594 58.28 112.034 58.28C111.306 58.28 110.718 58.532 110.27 59.036C109.822 59.5307 109.598 60.2353 109.598 61.15C109.598 62.074 109.822 62.788 110.27 63.292C110.718 63.796 111.306 64.048 112.034 64.048C112.594 64.048 113.06 63.9173 113.434 63.656C113.807 63.3947 114.064 63.0213 114.204 62.536H115.576C115.37 63.32 114.96 63.95 114.344 64.426C113.728 64.8927 112.958 65.126 112.034 65.126C111.306 65.126 110.657 64.9627 110.088 64.636C109.528 64.3093 109.089 63.8473 108.772 63.25C108.454 62.6527 108.296 61.9527 108.296 61.15ZM124.066 60.87C124.066 61.1127 124.052 61.3693 124.024 61.64H117.892C117.938 62.396 118.195 62.9887 118.662 63.418C119.138 63.838 119.712 64.048 120.384 64.048C120.934 64.048 121.392 63.922 121.756 63.67C122.129 63.4087 122.39 63.0633 122.54 62.634H123.912C123.706 63.3713 123.296 63.9733 122.68 64.44C122.064 64.8973 121.298 65.126 120.384 65.126C119.656 65.126 119.002 64.9627 118.424 64.636C117.854 64.3093 117.406 63.8473 117.08 63.25C116.753 62.6433 116.59 61.9433 116.59 61.15C116.59 60.3567 116.748 59.6613 117.066 59.064C117.383 58.4667 117.826 58.0093 118.396 57.692C118.974 57.3653 119.637 57.202 120.384 57.202C121.112 57.202 121.756 57.3607 122.316 57.678C122.876 57.9953 123.305 58.434 123.604 58.994C123.912 59.5447 124.066 60.17 124.066 60.87ZM122.75 60.604C122.75 60.1187 122.642 59.7033 122.428 59.358C122.213 59.0033 121.919 58.7373 121.546 58.56C121.182 58.3733 120.776 58.28 120.328 58.28C119.684 58.28 119.133 58.4853 118.676 58.896C118.228 59.3067 117.971 59.876 117.906 60.604H122.75ZM135.36 62.326C135.36 62.774 135.248 63.2033 135.024 63.614C134.8 64.0153 134.468 64.3513 134.03 64.622C133.6 64.8927 133.082 65.0467 132.476 65.084V66.218H131.72V65.084C130.87 65.0093 130.18 64.7387 129.648 64.272C129.116 63.796 128.845 63.194 128.836 62.466H130.194C130.231 62.858 130.376 63.1987 130.628 63.488C130.889 63.7773 131.253 63.9593 131.72 64.034V60.534C131.094 60.3753 130.59 60.212 130.208 60.044C129.825 59.876 129.498 59.6147 129.228 59.26C128.957 58.9053 128.822 58.4293 128.822 57.832C128.822 57.076 129.083 56.4507 129.606 55.956C130.138 55.4613 130.842 55.186 131.72 55.13V53.968H132.476V55.13C133.269 55.1953 133.908 55.452 134.394 55.9C134.879 56.3387 135.159 56.9127 135.234 57.622H133.876C133.829 57.2953 133.684 57.0013 133.442 56.74C133.199 56.4693 132.877 56.292 132.476 56.208V59.624C133.092 59.7827 133.591 59.946 133.974 60.114C134.366 60.2727 134.692 60.5293 134.954 60.884C135.224 61.2387 135.36 61.7193 135.36 62.326ZM130.124 57.762C130.124 58.2193 130.259 58.5693 130.53 58.812C130.8 59.0547 131.197 59.2553 131.72 59.414V56.18C131.234 56.2267 130.847 56.3853 130.558 56.656C130.268 56.9173 130.124 57.286 130.124 57.762ZM132.476 64.048C132.98 63.992 133.372 63.81 133.652 63.502C133.941 63.194 134.086 62.8253 134.086 62.396C134.086 61.9387 133.946 61.5887 133.666 61.346C133.386 61.094 132.989 60.8933 132.476 60.744V64.048ZM143.803 55.984H138.889V59.176C139.103 58.8773 139.421 58.6347 139.841 58.448C140.261 58.252 140.713 58.154 141.199 58.154C141.973 58.154 142.603 58.3173 143.089 58.644C143.574 58.9613 143.919 59.3767 144.125 59.89C144.339 60.394 144.447 60.9307 144.447 61.5C144.447 62.172 144.321 62.774 144.069 63.306C143.817 63.838 143.429 64.258 142.907 64.566C142.393 64.874 141.754 65.028 140.989 65.028C140.009 65.028 139.215 64.776 138.609 64.272C138.002 63.768 137.633 63.096 137.503 62.256H138.749C138.87 62.788 139.127 63.2033 139.519 63.502C139.911 63.8007 140.405 63.95 141.003 63.95C141.74 63.95 142.295 63.7307 142.669 63.292C143.042 62.844 143.229 62.256 143.229 61.528C143.229 60.8 143.042 60.24 142.669 59.848C142.295 59.4467 141.745 59.246 141.017 59.246C140.522 59.246 140.088 59.3673 139.715 59.61C139.351 59.8433 139.085 60.1653 138.917 60.576H137.713V54.864H143.803V55.984ZM145.622 62.746V61.78L150.536 54.976H152.062V61.64H153.462V62.746H152.062V65H150.802V62.746H145.622ZM150.858 56.306L147.092 61.64H150.858V56.306ZM155.14 65.084C154.898 65.084 154.692 65 154.524 64.832C154.356 64.664 154.272 64.4587 154.272 64.216C154.272 63.9733 154.356 63.768 154.524 63.6C154.692 63.432 154.898 63.348 155.14 63.348C155.374 63.348 155.57 63.432 155.728 63.6C155.896 63.768 155.98 63.9733 155.98 64.216C155.98 64.4587 155.896 64.664 155.728 64.832C155.57 65 155.374 65.084 155.14 65.084ZM158.892 62.284C158.985 62.816 159.2 63.2267 159.536 63.516C159.881 63.8053 160.343 63.95 160.922 63.95C161.697 63.95 162.266 63.6467 162.63 63.04C163.003 62.4333 163.181 61.4113 163.162 59.974C162.966 60.394 162.639 60.7253 162.182 60.968C161.725 61.2013 161.216 61.318 160.656 61.318C160.031 61.318 159.471 61.192 158.976 60.94C158.491 60.6787 158.108 60.3007 157.828 59.806C157.548 59.3113 157.408 58.714 157.408 58.014C157.408 57.0153 157.697 56.2127 158.276 55.606C158.855 54.99 159.676 54.682 160.74 54.682C162.047 54.682 162.961 55.1067 163.484 55.956C164.016 56.8053 164.282 58.07 164.282 59.75C164.282 60.926 164.175 61.8967 163.96 62.662C163.755 63.4273 163.4 64.0107 162.896 64.412C162.401 64.8133 161.72 65.014 160.852 65.014C159.9 65.014 159.158 64.7573 158.626 64.244C158.094 63.7307 157.791 63.0773 157.716 62.284H158.892ZM160.866 60.24C161.491 60.24 162.005 60.0487 162.406 59.666C162.807 59.274 163.008 58.7467 163.008 58.084C163.008 57.384 162.812 56.8193 162.42 56.39C162.028 55.9607 161.477 55.746 160.768 55.746C160.115 55.746 159.592 55.9513 159.2 56.362C158.817 56.7727 158.626 57.314 158.626 57.986C158.626 58.6673 158.817 59.2133 159.2 59.624C159.583 60.0347 160.138 60.24 160.866 60.24ZM167.5 62.284C167.594 62.816 167.808 63.2267 168.144 63.516C168.49 63.8053 168.952 63.95 169.53 63.95C170.305 63.95 170.874 63.6467 171.238 63.04C171.612 62.4333 171.789 61.4113 171.77 59.974C171.574 60.394 171.248 60.7253 170.79 60.968C170.333 61.2013 169.824 61.318 169.264 61.318C168.639 61.318 168.079 61.192 167.584 60.94C167.099 60.6787 166.716 60.3007 166.436 59.806C166.156 59.3113 166.016 58.714 166.016 58.014C166.016 57.0153 166.306 56.2127 166.884 55.606C167.463 54.99 168.284 54.682 169.348 54.682C170.655 54.682 171.57 55.1067 172.092 55.956C172.624 56.8053 172.89 58.07 172.89 59.75C172.89 60.926 172.783 61.8967 172.568 62.662C172.363 63.4273 172.008 64.0107 171.504 64.412C171.01 64.8133 170.328 65.014 169.46 65.014C168.508 65.014 167.766 64.7573 167.234 64.244C166.702 63.7307 166.399 63.0773 166.324 62.284H167.5ZM169.474 60.24C170.1 60.24 170.613 60.0487 171.014 59.666C171.416 59.274 171.616 58.7467 171.616 58.084C171.616 57.384 171.42 56.8193 171.028 56.39C170.636 55.9607 170.086 55.746 169.376 55.746C168.723 55.746 168.2 55.9513 167.808 56.362C167.426 56.7727 167.234 57.314 167.234 57.986C167.234 58.6673 167.426 59.2133 167.808 59.624C168.191 60.0347 168.746 60.24 169.474 60.24Z" fill="white" fill-opacity="0.7"/>
<g filter="url(#filter1_b_1_1766)">
<rect x="301" y="36" width="22" height="22" rx="11" fill="white" fill-opacity="0.15"/>
<rect x="301.5" y="36.5" width="21" height="21" rx="10.5" stroke="url(#paint1_linear_1_1766)"/>
</g>
<g filter="url(#filter2_bd_1_1766)">
<rect x="306" y="41" width="12" height="12" rx="6" fill="url(#paint2_linear_1_1766)"/>
<rect x="306.25" y="41.25" width="11.5" height="11.5" rx="5.75" stroke="url(#paint3_linear_1_1766)" stroke-width="0.5"/>
</g>
<defs>
<filter id="filter0_bd_1_1766" x="-3" y="-10" width="375" height="135" filterUnits="userSpaceOnUse" color-interpolation-filters="sRGB">
<feFlood flood-opacity="0" result="BackgroundImageFix"/>
<feGaussianBlur in="BackgroundImageFix" stdDeviation="12.5"/>
<feComposite in2="SourceAlpha" operator="in" result="effect1_backgroundBlur_1_1766"/>
<feColorMatrix in="SourceAlpha" type="matrix" values="0 0 0 0 0 0 0 0 0 0 0 0 0 0 0 0 0 0 127 0" result="hardAlpha"/>
<feOffset dx="-3" dy="15"/>
<feGaussianBlur stdDeviation="15"/>
<feColorMatrix type="matrix" values="0 0 0 0 0.843137 0 0 0 0 0.0117647 0 0 0 0 1 0 0 0 0.3 0"/>
<feBlend mode="normal" in2="effect1_backgroundBlur_1_1766" result="effect2_dropShadow_1_1766"/>
<feBlend mode="normal" in="SourceGraphic" in2="effect2_dropShadow_1_1766" result="shape"/>
</filter>
<filter id="filter1_b_1_1766" x="276" y="11" width="72" height="72" filterUnits="userSpaceOnUse" color-interpolation-filters="sRGB">
<feFlood flood-opacity="0" result="BackgroundImageFix"/>
<feGaussianBlur in="BackgroundImageFix" stdDeviation="12.5"/>
<feComposite in2="SourceAlpha" operator="in" result="effect1_backgroundBlur_1_1766"/>
<feBlend mode="normal" in="SourceGraphic" in2="effect1_backgroundBlur_1_1766" result="shape"/>
</filter>
<filter id="filter2_bd_1_1766" x="281" y="16" width="62" height="62" filterUnits="userSpaceOnUse" color-interpolation-filters="sRGB">
<feFlood flood-opacity="0" result="BackgroundImageFix"/>
<feGaussianBlur in="BackgroundImageFix" stdDeviation="12.5"/>
<feComposite in2="SourceAlpha" operator="in" result="effect1_backgroundBlur_1_1766"/>
<feColorMatrix in="SourceAlpha" type="matrix" values="0 0 0 0 0 0 0 0 0 0 0 0 0 0 0 0 0 0 127 0" result="hardAlpha"/>
<feOffset dy="4"/>
<feGaussianBlur stdDeviation="5"/>
<feColorMatrix type="matrix" values="0 0 0 0 0.843137 0 0 0 0 0.0117647 0 0 0 0 1 0 0 0 0.3 0"/>
<feBlend mode="normal" in2="effect1_backgroundBlur_1_1766" result="effect2_dropShadow_1_1766"/>
<feBlend mode="normal" in="SourceGraphic" in2="effect2_dropShadow_1_1766" result="shape"/>
</filter>
<linearGradient id="paint0_linear_1_1766" x1="48.7844" y1="14.9999" x2="346.173" y2="83.9403" gradientUnits="userSpaceOnUse">
<stop stop-color="white" stop-opacity="0.5"/>
<stop offset="1" stop-color="white" stop-opacity="0.2"/>
</linearGradient>
<linearGradient id="paint1_linear_1_1766" x1="317.762" y1="56.4286" x2="301.07" y2="41.6598" gradientUnits="userSpaceOnUse">
<stop stop-color="white" stop-opacity="0"/>
<stop offset="1" stop-color="white" stop-opacity="0.2"/>
</linearGradient>
<linearGradient id="paint2_linear_1_1766" x1="307.5" y1="42.5" x2="317" y2="51.5" gradientUnits="userSpaceOnUse">
<stop stop-color="white"/>
<stop offset="1" stop-color="white" stop-opacity="0"/>
</linearGradient>
<linearGradient id="paint3_linear_1_1766" x1="308.5" y1="44" x2="316.343" y2="51.0635" gradientUnits="userSpaceOnUse">
<stop stop-color="white" stop-opacity="0"/>
<stop offset="1" stop-color="white" stop-opacity="0.2"/>
</linearGradient>
</defs>
</svg>
