<svg width="30" height="30" viewBox="0 0 30 30" fill="none" xmlns="http://www.w3.org/2000/svg">
<g clip-path="url(#clip0_1_2306)">
<path d="M14.9998 0V30C23.2844 30 30.0001 23.2843 30.0001 15.0002C30.0001 6.71521 23.2843 0 14.9998 0Z" fill="#252F6B"/>
<path d="M14.9998 0C6.71572 0 0 6.71546 0 15C0 23.284 6.71572 29.9997 14.9998 29.9997C23.2843 29.9997 23.2843 0 14.9998 0Z" fill="#273375"/>
<path d="M10.287 22.994L11.2985 21.733L9.7359 22.0161L9.19376 20.5024L8.6045 22.0161L7.00911 21.733L8.02303 22.9663L6.97028 24.1981L8.57486 23.9461L9.11605 25.4285L9.70557 23.9468L11.3421 24.2393L10.287 22.994Z" fill="#F3F4F5"/>
<path d="M22.2434 24.1078L22.817 23.3932L21.9312 23.5536L21.624 22.696L21.2901 23.5536L20.386 23.3932L20.9606 24.0917L20.3643 24.7901L21.2733 24.6471L21.58 25.4867L21.9139 24.6476L22.8414 24.8134L22.2434 24.1078Z" fill="#F3F4F5"/>
<path d="M22.2434 8.31822L22.817 7.60343L21.9312 7.76398L21.624 6.90637L21.2901 7.76398L20.386 7.60343L20.9606 8.30232L20.3643 9.00033L21.2733 8.85751L21.58 9.69758L21.9139 8.85796L22.8414 9.02351L22.2434 8.31822Z" fill="#F3F4F5"/>
<path d="M25.9542 12.4028L26.5274 11.688L25.6421 11.8486L25.3349 10.991L25.001 11.8486L24.0964 11.688L24.671 12.3869L24.0746 13.0851L24.9837 12.942L25.2903 13.7822L25.6243 12.9425L26.5518 13.1081L25.9542 12.4028Z" fill="#F3F4F5"/>
<path d="M19.0333 14.2187L19.607 13.5041L18.7212 13.6647L18.414 12.8071L18.0801 13.6647L17.1763 13.5041L17.7506 14.2026L17.1545 14.901L18.0635 14.7582L18.3702 15.5976L18.7041 14.7587L19.6317 14.9243L19.0333 14.2187Z" fill="#F3F4F5"/>
<path d="M3.15025 5.80859C2.91483 6.11197 2.69006 6.42344 2.47764 6.74436H4.08557L3.15025 5.80859Z" fill="#29337A"/>
<path d="M10.8962 15H12.3412L10.8962 13.555V15Z" fill="#29337A"/>
<path d="M6.10644 2.92194C5.76229 3.17584 5.43098 3.44514 5.11007 3.72672L6.10644 4.72266V2.92194Z" fill="#29337A"/>
<path d="M4.66112 15H6.10653V13.5546L4.66112 15Z" fill="#29337A"/>
<path d="M14.9998 0C13.5764 0 12.2012 0.20248 10.8962 0.573175V4.72265L15.0002 0.618839V0H14.9998Z" fill="#29337A"/>
<path d="M15.0003 13.617V11.5345H12.9177L15.0003 13.617Z" fill="#29337A"/>
<path d="M0.618903 14.9999L4.08506 11.5345H0.407113C0.143515 12.6474 0 13.8067 0 14.9999H0.618903Z" fill="#29337A"/>
<path d="M12.9163 6.74434H15.0002V4.66083L12.9163 6.74434Z" fill="#29337A"/>
<path d="M15.0002 14.0545V13.6171L12.9177 11.5345H15.0002V10.7887H11.7344L15.0002 14.0545Z" fill="white"/>
<path d="M4.08559 6.74436H2.47766C2.3171 6.98763 2.16453 7.23653 2.01791 7.48949H5.17671L3.30183 5.61511C3.25046 5.67908 3.19998 5.74374 3.15001 5.80835L4.08559 6.74436Z" fill="white"/>
<path d="M6.10658 13.5546V15H6.85196V12.4634L4.31561 15H4.66116L6.10658 13.5546Z" fill="white"/>
<path d="M10.8963 0.572937C10.6449 0.644251 10.3967 0.721899 10.1511 0.805501V5.81379L15.0003 0.964913V0.619361L10.8963 4.72241V0.572937Z" fill="white"/>
<path d="M6.08023 11.5345L6.10652 11.5082L6.82581 10.7889H0.603717C0.531959 11.035 0.466345 11.2835 0.407127 11.5345H4.08508L0.618917 15H2.61458L6.08023 11.5345Z" fill="white"/>
<path d="M0.618927 14.9999L4.08508 11.5345L0.618927 14.9999Z" fill="white"/>
<path d="M15.0002 7.48976V6.74438H12.9163L15.0002 4.66087V2.66571L10.176 7.48976H15.0002Z" fill="white"/>
<path d="M15.0002 4.66083L12.9162 6.74434L15.0002 4.66083Z" fill="white"/>
<path d="M6.10654 4.72293L5.11016 3.727C4.75682 4.03753 4.4176 4.36433 4.09479 4.70685L6.10654 6.7186L6.12788 6.74038L6.85192 7.46442V2.40851C6.59852 2.57311 6.34911 2.74291 6.10679 2.92196V4.72293H6.10654Z" fill="white"/>
<path d="M10.8963 13.555L12.3413 15H14.245L10.1509 10.9062V15H10.8963V13.555Z" fill="white"/>
<path d="M6.1065 6.71857L6.12784 6.74035L6.1065 6.71857Z" fill="#D32030"/>
<path d="M12.4795 11.5345L11.7344 10.7889H15.0002V7.48971H10.176L10.1511 7.51504V7.48971H10.176L15.0002 2.66592V0.964884L10.1508 5.81401V0.805725C8.97871 1.20625 7.87264 1.74668 6.85163 2.40865V7.46431L6.87747 7.48965H6.85163V7.46431L6.12759 6.74034L6.13184 6.74458H6.1065V6.71874L4.09475 4.70699C3.81862 4.99928 3.55407 5.30195 3.30181 5.61552L5.17663 7.4899H2.01789C1.42103 8.51877 0.943808 9.62433 0.603703 10.7891H6.82579L6.85163 10.7628V10.7891H6.82579L6.1065 11.5085V11.5347H6.08022L2.6145 15H4.31554L6.85188 12.4634V15H10.1511V10.9062L14.245 15H14.8079C14.8721 14.933 14.9375 14.8664 15.0005 14.7975V14.0545L12.4795 11.5345Z" fill="#D32030"/>
<path d="M10.1509 5.81403L15.0003 0.964905L10.1509 5.81403Z" fill="#D32030"/>
<path d="M6.10654 11.5345V11.5079L6.08025 11.5345H6.10654Z" fill="#D32030"/>
<path d="M6.85184 10.7624L6.82581 10.7887H6.85184V10.7624Z" fill="#D32030"/>
<path d="M10.1509 7.51501L10.176 7.48969H10.1509V7.51501Z" fill="#D32030"/>
<path d="M6.1065 6.74434H6.13209L6.12784 6.74035L6.1065 6.71857V6.74434Z" fill="#D32030"/>
<path d="M6.87761 7.4897L6.85183 7.46411V7.4897H6.87761Z" fill="#D32030"/>
</g>
<defs>
<clipPath id="clip0_1_2306">
<rect width="30" height="30" fill="white"/>
</clipPath>
</defs>
</svg>
