<svg width="30" height="30" viewBox="0 0 30 30" fill="none" xmlns="http://www.w3.org/2000/svg">
<g clip-path="url(#clip0_1_2419)">
<path d="M15.0006 29.9999C23.2845 29.9999 29.9999 23.2845 29.9999 15.0006C29.9999 6.71671 23.2845 0.00128174 15.0006 0.00128174C6.71668 0.00128174 0.00124741 6.71671 0.00124741 15.0006C0.00124741 23.2845 6.71668 29.9999 15.0006 29.9999Z" fill="white"/>
<path d="M0.000175476 15.0001C0.000175476 20.6381 3.11252 25.5471 7.711 28.1095V1.88998C3.11252 4.45259 0.000175476 9.36134 0.000175476 15.0001Z" fill="#D32027"/>
<path d="M14.9997 29.9997C14.8271 29.9997 14.661 29.9938 14.4917 29.991C14.66 29.9966 14.8293 29.9997 14.9997 29.9997Z" fill="white"/>
<path d="M14.9998 0C14.995 0 14.991 0.000253335 14.9863 0.000253335C14.9909 0.000253335 14.9951 0 14.9998 0C23.2843 0 23.2843 30 14.9998 30C17.641 30 20.121 29.3148 22.2767 28.1164V1.88336C20.1209 0.684955 17.641 0 14.9998 0Z" fill="#E7E7E7"/>
<path d="M22.2766 1.88336V28.1161C26.882 25.5556 29.9998 20.6428 29.9998 15.0001C29.9998 9.35668 26.8821 4.44388 22.2766 1.88336Z" fill="#B52025"/>
<path d="M14.9998 0C14.995 0 14.991 0 14.9863 0C12.3455 0.00234335 9.86554 0.689705 7.71073 1.89001V28.1093C9.73025 29.2345 12.0359 29.9091 14.4917 29.9908C14.6611 29.9936 14.8271 29.9995 14.9998 29.9995C23.2842 29.9997 23.2842 0 14.9998 0Z" fill="#F3F1F2"/>
<path d="M20.8208 14.7289C20.6145 14.5319 20.1913 14.5537 20.1157 14.2261C20.0158 13.4216 20.3859 12.9531 20.6195 12.4154C19.4376 12.6918 18.5059 13.1468 18.5068 11.812C17.8283 12.6417 17.0988 13.4713 16.7975 13.3207C16.3696 13.0692 17.2082 10.9338 17.2999 9.80071C16.8859 9.9897 16.0929 10.4042 16.0929 10.4042C16.0929 10.4042 15.3722 8.99448 14.9907 8.29913V8.29153C14.9893 8.29293 14.9893 8.29413 14.9888 8.29533C14.9878 8.29438 14.9878 8.29299 14.9869 8.29153V8.29913C14.6048 8.99448 13.8846 10.4042 13.8846 10.4042C13.8846 10.4042 13.0911 9.9897 12.6776 9.80071C12.7688 10.934 13.6075 13.0694 13.1795 13.3207C12.878 13.4715 12.1487 12.6417 11.4707 11.812C11.4707 13.1468 10.5394 12.6919 9.35806 12.4154C9.59113 12.9528 9.96132 13.4213 9.86043 14.2261C9.78607 14.5537 9.36256 14.5319 9.15628 14.7289C10.5273 16.0995 12.9036 17.1175 11.7717 18.2491L14.8234 17.9644C14.9233 18.9956 14.6005 20.261 14.8807 20.9651C14.9463 20.9651 14.9248 20.9651 14.9866 20.9651C14.9876 20.9651 14.9889 20.9651 14.9904 20.9651C15.052 20.9651 15.0292 20.9651 15.0944 20.9651C15.3803 20.2356 15.0537 18.9958 15.1536 17.9644L18.2048 18.2491C17.074 17.1175 19.4502 16.0995 20.8208 14.7289Z" fill="#D32027"/>
</g>
<defs>
<clipPath id="clip0_1_2419">
<rect width="30" height="30" fill="white"/>
</clipPath>
</defs>
</svg>
