<svg width="199" height="38" viewBox="0 0 199 38" fill="none" xmlns="http://www.w3.org/2000/svg">
<path d="M0.65 19.4C0.65 15.9333 1.4 12.85 2.9 10.15C4.4 7.41667 6.48333 5.3 9.15 3.8C11.85 2.26666 14.9 1.5 18.3 1.5C22.4667 1.5 26.0333 2.6 29 4.8C31.9667 7 33.95 10 34.95 13.8H25.55C24.85 12.3333 23.85 11.2167 22.55 10.45C21.2833 9.68333 19.8333 9.3 18.2 9.3C15.5667 9.3 13.4333 10.2167 11.8 12.05C10.1667 13.8833 9.35 16.3333 9.35 19.4C9.35 22.4667 10.1667 24.9167 11.8 26.75C13.4333 28.5833 15.5667 29.5 18.2 29.5C19.8333 29.5 21.2833 29.1167 22.55 28.35C23.85 27.5833 24.85 26.4667 25.55 25H34.95C33.95 28.8 31.9667 31.8 29 34C26.0333 36.1667 22.4667 37.25 18.3 37.25C14.9 37.25 11.85 36.5 9.15 35C6.48333 33.4667 4.4 31.35 2.9 28.65C1.4 25.95 0.65 22.8667 0.65 19.4ZM37.4859 23C37.4859 20.1333 38.0193 17.6167 39.0859 15.45C40.1859 13.2833 41.6693 11.6167 43.5359 10.45C45.4026 9.28333 47.4859 8.7 49.7859 8.7C51.7526 8.7 53.4693 9.1 54.9359 9.9C56.4359 10.7 57.5859 11.75 58.3859 13.05V9.1H66.9359V37H58.3859V33.05C57.5526 34.35 56.3859 35.4 54.8859 36.2C53.4193 37 51.7026 37.4 49.7359 37.4C47.4693 37.4 45.4026 36.8167 43.5359 35.65C41.6693 34.45 40.1859 32.7667 39.0859 30.6C38.0193 28.4 37.4859 25.8667 37.4859 23ZM58.3859 23.05C58.3859 20.9167 57.7859 19.2333 56.5859 18C55.4193 16.7667 53.9859 16.15 52.2859 16.15C50.5859 16.15 49.1359 16.7667 47.9359 18C46.7693 19.2 46.1859 20.8667 46.1859 23C46.1859 25.1333 46.7693 26.8333 47.9359 28.1C49.1359 29.3333 50.5859 29.95 52.2859 29.95C53.9859 29.95 55.4193 29.3333 56.5859 28.1C57.7859 26.8667 58.3859 25.1833 58.3859 23.05ZM89.1215 8.8C92.3882 8.8 94.9882 9.86667 96.9215 12C98.8882 14.1 99.8715 17 99.8715 20.7V37H91.3715V21.85C91.3715 19.9833 90.8882 18.5333 89.9215 17.5C88.9548 16.4667 87.6548 15.95 86.0215 15.95C84.3882 15.95 83.0882 16.4667 82.1215 17.5C81.1548 18.5333 80.6715 19.9833 80.6715 21.85V37H72.1215V9.1H80.6715V12.8C81.5382 11.5667 82.7048 10.6 84.1715 9.9C85.6382 9.16667 87.2882 8.8 89.1215 8.8ZM103.113 23C103.113 20.1333 103.646 17.6167 104.713 15.45C105.813 13.2833 107.296 11.6167 109.163 10.45C111.03 9.28333 113.113 8.7 115.413 8.7C117.38 8.7 119.096 9.1 120.563 9.9C122.063 10.7 123.213 11.75 124.013 13.05V9.1H132.563V37H124.013V33.05C123.18 34.35 122.013 35.4 120.513 36.2C119.046 37 117.33 37.4 115.363 37.4C113.096 37.4 111.03 36.8167 109.163 35.65C107.296 34.45 105.813 32.7667 104.713 30.6C103.646 28.4 103.113 25.8667 103.113 23ZM124.013 23.05C124.013 20.9167 123.413 19.2333 122.213 18C121.046 16.7667 119.613 16.15 117.913 16.15C116.213 16.15 114.763 16.7667 113.563 18C112.396 19.2 111.813 20.8667 111.813 23C111.813 25.1333 112.396 26.8333 113.563 28.1C114.763 29.3333 116.213 29.95 117.913 29.95C119.613 29.95 121.046 29.3333 122.213 28.1C123.413 26.8667 124.013 25.1833 124.013 23.05ZM136.048 23C136.048 20.1333 136.582 17.6167 137.648 15.45C138.748 13.2833 140.232 11.6167 142.098 10.45C143.965 9.28333 146.048 8.7 148.348 8.7C150.182 8.7 151.848 9.08333 153.348 9.85C154.882 10.6167 156.082 11.65 156.948 12.95V-4.76837e-07H165.498V37H156.948V33C156.148 34.3333 154.998 35.4 153.498 36.2C152.032 37 150.315 37.4 148.348 37.4C146.048 37.4 143.965 36.8167 142.098 35.65C140.232 34.45 138.748 32.7667 137.648 30.6C136.582 28.4 136.048 25.8667 136.048 23ZM156.948 23.05C156.948 20.9167 156.348 19.2333 155.148 18C153.982 16.7667 152.548 16.15 150.848 16.15C149.148 16.15 147.698 16.7667 146.498 18C145.332 19.2 144.748 20.8667 144.748 23C144.748 25.1333 145.332 26.8333 146.498 28.1C147.698 29.3333 149.148 29.95 150.848 29.95C152.548 29.95 153.982 29.3333 155.148 28.1C156.348 26.8667 156.948 25.1833 156.948 23.05ZM168.984 23C168.984 20.1333 169.517 17.6167 170.584 15.45C171.684 13.2833 173.167 11.6167 175.034 10.45C176.901 9.28333 178.984 8.7 181.284 8.7C183.251 8.7 184.967 9.1 186.434 9.9C187.934 10.7 189.084 11.75 189.884 13.05V9.1H198.434V37H189.884V33.05C189.051 34.35 187.884 35.4 186.384 36.2C184.917 37 183.201 37.4 181.234 37.4C178.967 37.4 176.901 36.8167 175.034 35.65C173.167 34.45 171.684 32.7667 170.584 30.6C169.517 28.4 168.984 25.8667 168.984 23ZM189.884 23.05C189.884 20.9167 189.284 19.2333 188.084 18C186.917 16.7667 185.484 16.15 183.784 16.15C182.084 16.15 180.634 16.7667 179.434 18C178.267 19.2 177.684 20.8667 177.684 23C177.684 25.1333 178.267 26.8333 179.434 28.1C180.634 29.3333 182.084 29.95 183.784 29.95C185.484 29.95 186.917 29.3333 188.084 28.1C189.284 26.8667 189.884 25.1833 189.884 23.05Z" fill="url(#paint0_linear_4_5917)"/>
<defs>
<linearGradient id="paint0_linear_4_5917" x1="4.89755" y1="36.4231" x2="195.908" y2="28.9584" gradientUnits="userSpaceOnUse">
<stop stop-color="#310BE8"/>
<stop offset="0.348958" stop-color="#0027FE"/>
<stop offset="0.651042" stop-color="#8200FF"/>
<stop offset="1" stop-color="#D703FF"/>
</linearGradient>
</defs>
</svg>
