<svg width="30" height="30" viewBox="0 0 30 30" fill="none" xmlns="http://www.w3.org/2000/svg">
<g clip-path="url(#clip0_1_2410)">
<path d="M15.0006 29.9999C23.2845 29.9999 29.9999 23.2845 29.9999 15.0006C29.9999 6.71671 23.2845 0.00128174 15.0006 0.00128174C6.71668 0.00128174 0.00124741 6.71671 0.00124741 15.0006C0.00124741 23.2845 6.71668 29.9999 15.0006 29.9999Z" fill="#D62427"/>
<path d="M0.000999451 15.0001C0.000999451 6.71515 6.71666 0 15.0006 0C23.2851 0 23.2851 30 15.0006 30C6.71685 29.9997 0.000999451 23.2841 0.000999451 15.0001Z" fill="#DC3027"/>
<path d="M8.65258 4.12981L9.35248 6.28505H11.6188L9.78543 7.61633L10.4858 9.77158L8.65258 8.43986L6.81951 9.77158L7.51979 7.61633L5.68665 6.28505H7.95229L8.65258 4.12981Z" fill="#F8D12E"/>
<path d="M13.9386 2.9039L13.7179 3.65991L14.3683 4.1035L13.5815 4.12649L13.3613 4.88295L13.0953 4.14138L12.308 4.16532L12.9312 3.68335L12.6652 2.94228L13.316 3.38587L13.9386 2.9039Z" fill="#F8D12E"/>
<path d="M13.9386 9.67447L13.7179 10.4302L14.3683 10.8738L13.5815 10.8971L13.3613 11.6533L13.0953 10.9118L12.308 10.9359L12.9312 10.4539L12.6652 9.71285L13.316 10.156L13.9386 9.67447Z" fill="#F8D12E"/>
<path d="M15.8577 4.9675L15.637 5.72351L16.2876 6.1671L15.5007 6.19054L15.2801 6.94655L15.0142 6.20498L14.2271 6.22892L14.8498 5.74695L14.5842 5.00588L15.2352 5.44947L15.8577 4.9675Z" fill="#F8D12E"/>
<path d="M15.8577 7.72765L15.637 8.48366L16.2876 8.92725L15.5007 8.95044L15.2801 9.70671L15.0142 8.96538L14.2271 8.98932L14.8498 8.50735L14.5842 7.76622L15.2352 8.20936L15.8577 7.72765Z" fill="#F8D12E"/>
</g>
<defs>
<clipPath id="clip0_1_2410">
<rect width="30" height="30" fill="white"/>
</clipPath>
</defs>
</svg>
