<svg width="270" height="270" viewBox="0 0 270 270" fill="none" xmlns="http://www.w3.org/2000/svg">
<g filter="url(#filter0_d_4_5918)">
<circle cx="135" cy="135" r="110" fill="white"/>
<g filter="url(#filter1_d_4_5918)">
<circle cx="135" cy="135" r="92" fill="white"/>
</g>
<g filter="url(#filter2_d_4_5918)">
<path fill-rule="evenodd" clip-rule="evenodd" d="M140.076 124.75C140.076 127.805 137.749 130.281 134.879 130.281C132.01 130.281 129.683 127.805 129.683 124.75V108.531C129.683 105.477 132.01 103 134.879 103C137.749 103 140.076 105.477 140.076 108.531V124.75ZM148.843 115.653C150.317 114.003 152.86 113.852 154.522 115.317C160.887 120.927 164.538 128.989 164.537 137.436C164.537 153.738 151.183 167 134.769 167C118.354 167 105 153.738 105 137.436C105 128.906 108.711 120.791 115.182 115.172C116.854 113.72 119.396 113.889 120.858 115.55C122.321 117.211 122.15 119.735 120.478 121.187C115.755 125.289 113.046 131.211 113.046 137.436C113.046 149.332 122.791 159.01 134.769 159.01C146.747 159.01 156.492 149.332 156.492 137.436C156.492 131.272 153.827 125.388 149.181 121.293C147.519 119.829 147.368 117.304 148.843 115.653Z" fill="url(#paint0_linear_4_5918)"/>
</g>
</g>
<defs>
<filter id="filter0_d_4_5918" x="0" y="0" width="270" height="270" filterUnits="userSpaceOnUse" color-interpolation-filters="sRGB">
<feFlood flood-opacity="0" result="BackgroundImageFix"/>
<feColorMatrix in="SourceAlpha" type="matrix" values="0 0 0 0 0 0 0 0 0 0 0 0 0 0 0 0 0 0 127 0" result="hardAlpha"/>
<feOffset/>
<feGaussianBlur stdDeviation="12.5"/>
<feComposite in2="hardAlpha" operator="out"/>
<feColorMatrix type="matrix" values="0 0 0 0 0 0 0 0 0 0 0 0 0 0 0 0 0 0 0.05 0"/>
<feBlend mode="normal" in2="BackgroundImageFix" result="effect1_dropShadow_4_5918"/>
<feBlend mode="normal" in="SourceGraphic" in2="effect1_dropShadow_4_5918" result="shape"/>
</filter>
<filter id="filter1_d_4_5918" x="18" y="18" width="234" height="234" filterUnits="userSpaceOnUse" color-interpolation-filters="sRGB">
<feFlood flood-opacity="0" result="BackgroundImageFix"/>
<feColorMatrix in="SourceAlpha" type="matrix" values="0 0 0 0 0 0 0 0 0 0 0 0 0 0 0 0 0 0 127 0" result="hardAlpha"/>
<feOffset/>
<feGaussianBlur stdDeviation="12.5"/>
<feColorMatrix type="matrix" values="0 0 0 0 0.415686 0 0 0 0 0.215686 0 0 0 0 1 0 0 0 0.15 0"/>
<feBlend mode="normal" in2="BackgroundImageFix" result="effect1_dropShadow_4_5918"/>
<feBlend mode="normal" in="SourceGraphic" in2="effect1_dropShadow_4_5918" result="shape"/>
</filter>
<filter id="filter2_d_4_5918" x="80" y="78" width="109.537" height="114" filterUnits="userSpaceOnUse" color-interpolation-filters="sRGB">
<feFlood flood-opacity="0" result="BackgroundImageFix"/>
<feColorMatrix in="SourceAlpha" type="matrix" values="0 0 0 0 0 0 0 0 0 0 0 0 0 0 0 0 0 0 127 0" result="hardAlpha"/>
<feOffset/>
<feGaussianBlur stdDeviation="12.5"/>
<feComposite in2="hardAlpha" operator="out"/>
<feColorMatrix type="matrix" values="0 0 0 0 0 0 0 0 0 0 0 0 0 0 0 0 0 0 0.1 0"/>
<feBlend mode="normal" in2="BackgroundImageFix" result="effect1_dropShadow_4_5918"/>
<feBlend mode="normal" in="SourceGraphic" in2="effect1_dropShadow_4_5918" result="shape"/>
</filter>
<linearGradient id="paint0_linear_4_5918" x1="134.769" y1="103" x2="134.769" y2="167" gradientUnits="userSpaceOnUse">
<stop stop-color="#8200FF"/>
<stop offset="1" stop-color="#310BE8"/>
</linearGradient>
</defs>
</svg>
