<svg width="39" height="38" viewBox="0 0 39 38" fill="none" xmlns="http://www.w3.org/2000/svg">
<g filter="url(#filter0_bd_4_5956)">
<mask id="path-1-inside-1_4_5956" fill="white">
<path fill-rule="evenodd" clip-rule="evenodd" d="M18.3712 12.8297C18.455 12.8659 18.549 12.8708 18.6361 12.8435L22.8522 11.5185C22.8522 11.5185 23.0417 11.3949 23.1544 11.5076C23.2671 11.6203 23.2363 11.7735 23.2363 11.7735L21.3025 20.4508H7.67366L5.23977 11.7561C5.23977 11.7561 5.17998 11.584 5.23977 11.5076C5.31879 11.4066 5.56781 11.5223 5.56781 11.5223L9.54819 12.8414C9.6342 12.8699 9.72756 12.8668 9.81146 12.8326C9.89536 12.7984 9.96428 12.7353 10.0058 12.6548L13.6852 5.51543C13.6852 5.51543 13.7822 5.19806 14.2329 5.19806C14.5709 5.19806 14.6804 5.51543 14.6804 5.51543L18.1798 12.6461C18.2195 12.7283 18.2874 12.7935 18.3712 12.8297ZM8.61988 21.1973C8.12207 21.1973 7.71852 21.6008 7.71852 22.0987C7.71852 22.5965 8.12207 23 8.61988 23H20.3376C20.8354 23 21.239 22.5965 21.239 22.0987C21.239 21.6008 20.8354 21.1973 20.3376 21.1973H8.61988Z"/>
</mask>
<path fill-rule="evenodd" clip-rule="evenodd" d="M18.3712 12.8297C18.455 12.8659 18.549 12.8708 18.6361 12.8435L22.8522 11.5185C22.8522 11.5185 23.0417 11.3949 23.1544 11.5076C23.2671 11.6203 23.2363 11.7735 23.2363 11.7735L21.3025 20.4508H7.67366L5.23977 11.7561C5.23977 11.7561 5.17998 11.584 5.23977 11.5076C5.31879 11.4066 5.56781 11.5223 5.56781 11.5223L9.54819 12.8414C9.6342 12.8699 9.72756 12.8668 9.81146 12.8326C9.89536 12.7984 9.96428 12.7353 10.0058 12.6548L13.6852 5.51543C13.6852 5.51543 13.7822 5.19806 14.2329 5.19806C14.5709 5.19806 14.6804 5.51543 14.6804 5.51543L18.1798 12.6461C18.2195 12.7283 18.2874 12.7935 18.3712 12.8297ZM8.61988 21.1973C8.12207 21.1973 7.71852 21.6008 7.71852 22.0987C7.71852 22.5965 8.12207 23 8.61988 23H20.3376C20.8354 23 21.239 22.5965 21.239 22.0987C21.239 21.6008 20.8354 21.1973 20.3376 21.1973H8.61988Z" fill="url(#paint0_linear_4_5956)"/>
<path d="M18.6361 12.8435L18.696 13.0343L18.6961 13.0343L18.6361 12.8435ZM18.3712 12.8297L18.2918 13.0133L18.2918 13.0133L18.3712 12.8297ZM22.8522 11.5185L22.9122 11.7093L22.9384 11.701L22.9614 11.686L22.8522 11.5185ZM23.1544 11.5076L23.2958 11.3662L23.2958 11.3662L23.1544 11.5076ZM23.2363 11.7735L23.4315 11.817L23.4324 11.8129L23.2363 11.7735ZM21.3025 20.4508V20.6508H21.4628L21.4977 20.4943L21.3025 20.4508ZM7.67366 20.4508L7.48107 20.5047L7.52196 20.6508H7.67366V20.4508ZM5.23977 11.7561L5.43273 11.702L5.42868 11.6904L5.23977 11.7561ZM5.23977 11.5076L5.08225 11.3844L5.08225 11.3844L5.23977 11.5076ZM5.56781 11.5223L5.48353 11.7037L5.49397 11.7086L5.50489 11.7122L5.56781 11.5223ZM9.54819 12.8414L9.61113 12.6516L9.61111 12.6516L9.54819 12.8414ZM9.81146 12.8326L9.88698 13.0178L9.88698 13.0178L9.81146 12.8326ZM10.0058 12.6548L10.1836 12.7465L10.1836 12.7464L10.0058 12.6548ZM13.6852 5.51543L13.863 5.60706L13.8712 5.59109L13.8765 5.5739L13.6852 5.51543ZM14.6804 5.51543L14.4913 5.58064L14.4954 5.59239L14.5008 5.60355L14.6804 5.51543ZM18.1798 12.6461L18.3599 12.5591L18.3593 12.558L18.1798 12.6461ZM18.5762 12.6527C18.5349 12.6656 18.4903 12.6633 18.4506 12.6461L18.2918 13.0133C18.4197 13.0686 18.5631 13.076 18.696 13.0343L18.5762 12.6527ZM22.7922 11.3277L18.5761 12.6527L18.6961 13.0343L22.9122 11.7093L22.7922 11.3277ZM23.2958 11.3662C23.1631 11.2335 22.995 11.2542 22.9083 11.2779C22.861 11.2908 22.8211 11.3085 22.7937 11.3223C22.7797 11.3293 22.7682 11.3358 22.7596 11.3407C22.7554 11.3432 22.7518 11.3454 22.749 11.3471C22.7476 11.348 22.7464 11.3487 22.7454 11.3494C22.7449 11.3497 22.7445 11.35 22.744 11.3503C22.7438 11.3504 22.7437 11.3505 22.7435 11.3506C22.7434 11.3507 22.7433 11.3507 22.7432 11.3508C22.7432 11.3508 22.7431 11.3508 22.7431 11.3509C22.7431 11.3509 22.743 11.3509 22.8522 11.5185C22.9614 11.686 22.9614 11.6861 22.9613 11.6861C22.9613 11.6861 22.9612 11.6861 22.9612 11.6862C22.9611 11.6862 22.9611 11.6863 22.961 11.6863C22.9609 11.6864 22.9608 11.6865 22.9607 11.6865C22.9604 11.6867 22.9603 11.6868 22.9601 11.6869C22.9598 11.6871 22.9597 11.6871 22.9597 11.6871C22.9598 11.6871 22.9604 11.6867 22.9615 11.6861C22.9638 11.6847 22.9679 11.6824 22.9734 11.6796C22.9852 11.6737 22.9996 11.6676 23.0138 11.6637C23.05 11.6538 23.033 11.6691 23.013 11.649L23.2958 11.3662ZM23.2363 11.7735C23.4324 11.8129 23.4324 11.8128 23.4324 11.8127C23.4324 11.8127 23.4324 11.8126 23.4324 11.8125C23.4324 11.8124 23.4325 11.8123 23.4325 11.8122C23.4325 11.812 23.4326 11.8117 23.4326 11.8115C23.4327 11.8109 23.4328 11.8104 23.433 11.8098C23.4332 11.8086 23.4334 11.8072 23.4337 11.8057C23.4342 11.8026 23.4348 11.7989 23.4354 11.7946C23.4366 11.786 23.4379 11.7749 23.4388 11.7617C23.4407 11.7356 23.4412 11.6999 23.4361 11.6586C23.4261 11.5763 23.3927 11.463 23.2958 11.3662L23.013 11.649C23.0288 11.6649 23.0363 11.6846 23.0391 11.707C23.0404 11.7181 23.0402 11.7277 23.0398 11.7338C23.0396 11.7368 23.0394 11.7385 23.0393 11.7387C23.0393 11.7388 23.0394 11.7385 23.0395 11.7378C23.0396 11.7374 23.0397 11.7369 23.0398 11.7363C23.0398 11.736 23.0399 11.7356 23.04 11.7353C23.04 11.7351 23.04 11.7349 23.0401 11.7347C23.0401 11.7346 23.0401 11.7345 23.0401 11.7344C23.0401 11.7343 23.0402 11.7342 23.0402 11.7342C23.0402 11.7341 23.0402 11.7341 23.2363 11.7735ZM21.4977 20.4943L23.4315 11.817L23.0411 11.73L21.1073 20.4073L21.4977 20.4943ZM7.67366 20.6508H21.3025V20.2508H7.67366V20.6508ZM5.04717 11.81L7.48107 20.5047L7.86626 20.3969L5.43236 11.7021L5.04717 11.81ZM5.08225 11.3844C5.0355 11.4441 5.02055 11.5107 5.01562 11.5579C5.01053 11.6068 5.01428 11.653 5.01934 11.6886C5.02454 11.7252 5.03215 11.7574 5.03826 11.7801C5.04137 11.7916 5.04423 11.8012 5.04643 11.8082C5.04754 11.8118 5.04849 11.8147 5.04924 11.817C5.04962 11.8181 5.04994 11.8191 5.05021 11.8199C5.05035 11.8203 5.05047 11.8206 5.05058 11.8209C5.05063 11.8211 5.05068 11.8212 5.05072 11.8214C5.05075 11.8214 5.05077 11.8215 5.05079 11.8215C5.0508 11.8216 5.05082 11.8216 5.05082 11.8216C5.05084 11.8217 5.05085 11.8217 5.23977 11.7561C5.42868 11.6904 5.4287 11.6904 5.42871 11.6905C5.42872 11.6905 5.42873 11.6905 5.42874 11.6906C5.42876 11.6906 5.42877 11.6907 5.42879 11.6907C5.42882 11.6908 5.42885 11.6909 5.42887 11.691C5.42892 11.6911 5.42896 11.6912 5.42898 11.6913C5.42903 11.6914 5.42903 11.6914 5.42898 11.6913C5.42888 11.691 5.42861 11.6901 5.4282 11.6888C5.42737 11.6862 5.42602 11.6817 5.42446 11.6759C5.42123 11.6639 5.41763 11.6483 5.41536 11.6323C5.41295 11.6154 5.41296 11.6043 5.41347 11.5994C5.41414 11.5929 5.41414 11.6093 5.39729 11.6309L5.08225 11.3844ZM5.56781 11.5223C5.65209 11.341 5.65205 11.3409 5.652 11.3409C5.65199 11.3409 5.65195 11.3409 5.65191 11.3409C5.65185 11.3408 5.65179 11.3408 5.65172 11.3408C5.65158 11.3407 5.65142 11.3406 5.65125 11.3406C5.65091 11.3404 5.65051 11.3402 5.65004 11.34C5.64911 11.3396 5.64793 11.3391 5.64652 11.3384C5.6437 11.3372 5.63994 11.3355 5.63534 11.3336C5.62618 11.3297 5.61351 11.3245 5.59824 11.3187C5.5683 11.3074 5.52545 11.2929 5.47751 11.282C5.43158 11.2716 5.36952 11.262 5.30498 11.2682C5.24029 11.2745 5.14827 11.3 5.08225 11.3844L5.39729 11.6309C5.37078 11.6647 5.33952 11.6668 5.34374 11.6664C5.34811 11.6659 5.36313 11.6663 5.38933 11.6722C5.41353 11.6776 5.43787 11.6857 5.45709 11.693C5.46639 11.6965 5.4738 11.6995 5.47856 11.7016C5.48093 11.7026 5.48259 11.7033 5.48346 11.7037C5.4839 11.7039 5.48413 11.704 5.48414 11.704C5.48415 11.704 5.4841 11.704 5.484 11.7039C5.48395 11.7039 5.48389 11.7039 5.48381 11.7038C5.48377 11.7038 5.48373 11.7038 5.48368 11.7038C5.48366 11.7038 5.48362 11.7037 5.48361 11.7037C5.48357 11.7037 5.48353 11.7037 5.56781 11.5223ZM9.61111 12.6516L5.63072 11.3325L5.50489 11.7122L9.48528 13.0313L9.61111 12.6516ZM9.73594 12.6474C9.69616 12.6636 9.65191 12.6651 9.61113 12.6516L9.48525 13.0313C9.61649 13.0748 9.75895 13.07 9.88698 13.0178L9.73594 12.6474ZM9.82807 12.5631C9.80838 12.6013 9.77571 12.6312 9.73593 12.6474L9.88698 13.0178C10.015 12.9656 10.1202 12.8694 10.1836 12.7465L9.82807 12.5631ZM13.5074 5.42381L9.82804 12.5632L10.1836 12.7464L13.863 5.60706L13.5074 5.42381ZM14.2329 4.99806C13.9548 4.99806 13.7676 5.0982 13.6497 5.21423C13.5929 5.2702 13.5554 5.32666 13.5316 5.37049C13.5197 5.39248 13.511 5.4116 13.505 5.42638C13.502 5.43379 13.4996 5.44015 13.4978 5.44529C13.4969 5.44786 13.4961 5.45013 13.4955 5.45209C13.4952 5.45306 13.4949 5.45396 13.4946 5.45477C13.4945 5.45518 13.4944 5.45557 13.4943 5.45593C13.4942 5.45611 13.4942 5.45629 13.4941 5.45646C13.4941 5.45655 13.494 5.45667 13.494 5.45672C13.494 5.45684 13.4939 5.45696 13.6852 5.51543C13.8765 5.5739 13.8764 5.57402 13.8764 5.57414C13.8764 5.57418 13.8763 5.5743 13.8763 5.57438C13.8763 5.57453 13.8762 5.57468 13.8762 5.57482C13.8761 5.57511 13.876 5.57538 13.8759 5.57564C13.8758 5.57614 13.8756 5.57659 13.8755 5.57696C13.8753 5.57771 13.8751 5.5782 13.875 5.57845C13.8748 5.57894 13.875 5.57849 13.8755 5.57721C13.8765 5.57464 13.879 5.56896 13.8832 5.5612C13.8917 5.54552 13.9066 5.52264 13.9304 5.49927C13.9737 5.4566 14.0603 5.39806 14.2329 5.39806V4.99806ZM14.6804 5.51543C14.8694 5.45023 14.8694 5.45014 14.8694 5.45005C14.8694 5.45002 14.8693 5.44993 14.8693 5.44986C14.8693 5.44973 14.8692 5.4496 14.8692 5.44946C14.8691 5.44919 14.869 5.44889 14.8689 5.44858C14.8686 5.44794 14.8684 5.44723 14.8681 5.44644C14.8675 5.44486 14.8668 5.44296 14.866 5.44077C14.8643 5.43638 14.8621 5.43081 14.8593 5.4242C14.8538 5.41103 14.8459 5.39357 14.8353 5.37324C14.8142 5.33299 14.7814 5.27922 14.7337 5.22484C14.6364 5.11385 14.4734 4.99806 14.2329 4.99806V5.39806C14.3305 5.39806 14.3912 5.44095 14.4331 5.48865C14.455 5.51361 14.4707 5.53919 14.4807 5.55844C14.4856 5.56787 14.4889 5.57521 14.4907 5.57939C14.4915 5.58146 14.492 5.58271 14.4921 5.58297C14.4922 5.5831 14.4921 5.58299 14.492 5.58261C14.4919 5.58242 14.4918 5.58216 14.4917 5.58183C14.4917 5.58167 14.4916 5.58149 14.4915 5.58129C14.4915 5.58119 14.4915 5.58108 14.4914 5.58098C14.4914 5.58092 14.4914 5.58084 14.4914 5.58081C14.4913 5.58073 14.4913 5.58064 14.6804 5.51543ZM18.3593 12.558L14.8599 5.42732L14.5008 5.60355L18.0002 12.7342L18.3593 12.558ZM18.4506 12.6461C18.4109 12.629 18.3787 12.5981 18.3599 12.5591L17.9997 12.7331C18.0603 12.8585 18.164 12.958 18.2918 13.0133L18.4506 12.6461ZM7.91852 22.0987C7.91852 21.7113 8.23253 21.3973 8.61988 21.3973V20.9973C8.01161 20.9973 7.51852 21.4904 7.51852 22.0987H7.91852ZM8.61988 22.8C8.23253 22.8 7.91852 22.486 7.91852 22.0987H7.51852C7.51852 22.7069 8.01161 23.2 8.61988 23.2V22.8ZM20.3376 22.8H8.61988V23.2H20.3376V22.8ZM21.039 22.0987C21.039 22.486 20.725 22.8 20.3376 22.8V23.2C20.9459 23.2 21.439 22.7069 21.439 22.0987H21.039ZM20.3376 21.3973C20.725 21.3973 21.039 21.7113 21.039 22.0987H21.439C21.439 21.4904 20.9459 20.9973 20.3376 20.9973V21.3973ZM8.61988 21.3973H20.3376V20.9973H8.61988V21.3973Z" fill="url(#paint1_linear_4_5956)" mask="url(#path-1-inside-1_4_5956)"/>
</g>
<defs>
<filter id="filter0_bd_4_5956" x="-19.7868" y="-19.8019" width="68.0269" height="67.8019" filterUnits="userSpaceOnUse" color-interpolation-filters="sRGB">
<feFlood flood-opacity="0" result="BackgroundImageFix"/>
<feGaussianBlur in="BackgroundImageFix" stdDeviation="12.5"/>
<feComposite in2="SourceAlpha" operator="in" result="effect1_backgroundBlur_4_5956"/>
<feColorMatrix in="SourceAlpha" type="matrix" values="0 0 0 0 0 0 0 0 0 0 0 0 0 0 0 0 0 0 127 0" result="hardAlpha"/>
<feOffset dx="5" dy="5"/>
<feGaussianBlur stdDeviation="5"/>
<feColorMatrix type="matrix" values="0 0 0 0 0.415686 0 0 0 0 0.215686 0 0 0 0 1 0 0 0 0.5 0"/>
<feBlend mode="normal" in2="effect1_backgroundBlur_4_5956" result="effect2_dropShadow_4_5956"/>
<feBlend mode="normal" in="SourceGraphic" in2="effect2_dropShadow_4_5956" result="shape"/>
</filter>
<linearGradient id="paint0_linear_4_5956" x1="9.81909" y1="12.8643" x2="20.8362" y2="23.4407" gradientUnits="userSpaceOnUse">
<stop stop-color="white"/>
<stop offset="1" stop-color="white" stop-opacity="0.2"/>
</linearGradient>
<linearGradient id="paint1_linear_4_5956" x1="11.8235" y1="9.60491" x2="20.6372" y2="25.0289" gradientUnits="userSpaceOnUse">
<stop stop-color="white"/>
<stop offset="1" stop-color="white" stop-opacity="0"/>
</linearGradient>
</defs>
</svg>
