<svg width="30" height="30" viewBox="0 0 30 30" fill="none" xmlns="http://www.w3.org/2000/svg">
<g clip-path="url(#clip0_1_2344)">
<path d="M20.0008 0.857239L18.2504 5.7106C19.8661 11.0428 19.8661 18.9572 18.2504 24.2896L20.0008 29.1425C25.8259 27.0827 30 21.5301 30 14.9995C30 8.46991 25.8259 2.91709 20.0008 0.857239Z" fill="#E61E25"/>
<path d="M20.0008 5.71057V0.857212C18.4365 0.303996 16.754 0.00012207 14.9999 0.00012207C17.3129 0.00012207 14.1058 7.83908 20.0008 5.71057Z" fill="#E4E4E4"/>
<path d="M14.9999 29.9999C16.7539 29.9999 18.4365 29.696 20.0008 29.1427V24.2898C14.165 23.7074 14.9999 29.9999 14.9999 29.9999Z" fill="#E4E4E4"/>
<path d="M0 14.9997C0 21.5521 4.20249 27.1193 10.0577 29.1625V0.83783C4.20249 2.88103 0 8.44822 0 14.9997Z" fill="#3757A6"/>
<path d="M20.0008 5.71057V24.2896C21.6168 18.9571 21.6168 11.0427 20.0008 5.71057Z" fill="#EF4F4E"/>
<path d="M20.0008 24.2898V5.71057C18.9795 2.3394 17.3128 0.00012207 14.9998 0.00012207C13.2676 0.00012207 11.6057 0.297599 10.0577 0.837832V29.1627C11.6057 29.7029 13.2676 29.9999 14.9998 29.9999C17.3128 29.9999 18.9795 27.6606 20.0008 24.2898Z" fill="#F3F4F5"/>
</g>
<defs>
<clipPath id="clip0_1_2344">
<rect width="30" height="30" fill="white"/>
</clipPath>
</defs>
</svg>
