<svg width="30" height="30" viewBox="0 0 30 30" fill="none" xmlns="http://www.w3.org/2000/svg">
<g clip-path="url(#clip0_1_2297)">
<path d="M15.0006 30C23.2845 30 30 23.2846 30 15.0006C30 6.71673 23.2845 0.00128174 15.0006 0.00128174C6.71669 0.00128174 0.00124741 6.71673 0.00124741 15.0006C0.00124741 23.2846 6.71669 30 15.0006 30Z" fill="white"/>
<path d="M29.1424 9.99878H19.9006C20.3018 13.203 20.3044 16.7336 19.9082 19.9419H29.1623C29.7023 18.3941 29.9995 16.732 29.9995 15.0002C29.9998 13.2456 29.6957 11.5631 29.1424 9.99878Z" fill="#D32027"/>
<path d="M19.9007 9.9988H29.1425C29.1408 9.99405 29.1394 9.99006 29.1377 9.98575C27.2179 4.57273 22.2799 0.590233 16.3468 0.0615845C18.6428 1.32016 19.3133 5.30766 19.9007 9.9988Z" fill="#0B0B0B"/>
<path d="M16.3471 29.9378C22.2908 29.4082 27.2359 25.4119 29.1481 19.9845C29.1531 19.97 29.1573 19.9558 29.1625 19.9418H19.9082C19.3258 24.6583 18.6525 28.674 16.3471 29.9378Z" fill="#F3C515"/>
<path d="M0 15.0001C0 16.7322 0.297226 18.3941 0.837211 19.9418H20.6805C21.0768 16.7333 21.0742 13.203 20.6729 9.99872H0.857161C0.303876 11.5631 0 13.2456 0 15.0001Z" fill="#DB2727"/>
<path d="M0.86163 9.98573C0.859984 9.98997 0.858527 9.99403 0.85688 9.99878H20.673C20.0856 5.30763 18.6427 1.3202 16.3471 0.0616239C15.9029 0.0222935 15.4539 0 14.9997 0C8.47443 0 2.92499 4.1675 0.86163 9.98573Z" fill="#151515"/>
<path d="M20.6805 19.9418H0.837215C0.842219 19.9558 0.846715 19.97 0.851656 19.9845C2.90697 25.8176 8.46376 29.9998 14.9996 29.9998C15.4539 29.9998 15.903 29.9775 16.347 29.9377C18.6525 28.674 20.0981 24.6583 20.6805 19.9418Z" fill="#F8D12E"/>
</g>
<defs>
<clipPath id="clip0_1_2297">
<rect width="30" height="30" fill="white"/>
</clipPath>
</defs>
</svg>
