<svg width="10" height="18" viewBox="0 0 10 18" fill="none" xmlns="http://www.w3.org/2000/svg">
<path d="M5.55301 0.229141L5.55375 0.229843L9.61625 4.31203C9.92059 4.61785 9.91946 5.1125 9.6136 5.41691C9.30778 5.72129 8.81313 5.72012 8.50875 5.4143L5.78125 2.67352L5.78125 17.2187C5.78125 17.6502 5.43149 18 5 18C4.56852 18 4.21875 17.6502 4.21875 17.2187L4.21875 2.67355L1.49125 5.41426C1.18688 5.72008 0.692229 5.72125 0.386409 5.41687C0.0805103 5.11246 0.0794565 4.61777 0.383753 4.31199L4.44625 0.229805L4.44699 0.229101C4.75239 -0.0768757 5.24864 -0.0758973 5.55301 0.229141Z" fill="#D703FF"/>
</svg>
