<svg width="45" height="42" viewBox="0 0 45 42" fill="none" xmlns="http://www.w3.org/2000/svg">
<rect width="40" height="40" rx="20" fill="url(#paint0_linear_4_5953)"/>
<g filter="url(#filter0_bd_4_5953)">
<mask id="path-2-inside-1_4_5953" fill="white">
<path fill-rule="evenodd" clip-rule="evenodd" d="M24.3712 16.8297C24.455 16.8659 24.549 16.8708 24.6361 16.8435L28.8522 15.5185C28.8522 15.5185 29.0417 15.3949 29.1544 15.5076C29.2671 15.6203 29.2363 15.7735 29.2363 15.7735L27.3025 24.4508H13.6737L11.2398 15.7561C11.2398 15.7561 11.18 15.584 11.2398 15.5076C11.3188 15.4066 11.5678 15.5223 11.5678 15.5223L15.5482 16.8414C15.6342 16.8699 15.7276 16.8668 15.8115 16.8326C15.8954 16.7984 15.9643 16.7353 16.0058 16.6548L19.6852 9.51543C19.6852 9.51543 19.7822 9.19806 20.2329 9.19806C20.5709 9.19806 20.6804 9.51543 20.6804 9.51543L24.1798 16.6461C24.2195 16.7283 24.2874 16.7935 24.3712 16.8297ZM14.6199 25.1973C14.1221 25.1973 13.7185 25.6008 13.7185 26.0987C13.7185 26.5965 14.1221 27 14.6199 27H26.3376C26.8354 27 27.239 26.5965 27.239 26.0987C27.239 25.6008 26.8354 25.1973 26.3376 25.1973H14.6199Z"/>
</mask>
<path fill-rule="evenodd" clip-rule="evenodd" d="M24.3712 16.8297C24.455 16.8659 24.549 16.8708 24.6361 16.8435L28.8522 15.5185C28.8522 15.5185 29.0417 15.3949 29.1544 15.5076C29.2671 15.6203 29.2363 15.7735 29.2363 15.7735L27.3025 24.4508H13.6737L11.2398 15.7561C11.2398 15.7561 11.18 15.584 11.2398 15.5076C11.3188 15.4066 11.5678 15.5223 11.5678 15.5223L15.5482 16.8414C15.6342 16.8699 15.7276 16.8668 15.8115 16.8326C15.8954 16.7984 15.9643 16.7353 16.0058 16.6548L19.6852 9.51543C19.6852 9.51543 19.7822 9.19806 20.2329 9.19806C20.5709 9.19806 20.6804 9.51543 20.6804 9.51543L24.1798 16.6461C24.2195 16.7283 24.2874 16.7935 24.3712 16.8297ZM14.6199 25.1973C14.1221 25.1973 13.7185 25.6008 13.7185 26.0987C13.7185 26.5965 14.1221 27 14.6199 27H26.3376C26.8354 27 27.239 26.5965 27.239 26.0987C27.239 25.6008 26.8354 25.1973 26.3376 25.1973H14.6199Z" fill="url(#paint1_linear_4_5953)"/>
<path d="M24.6361 16.8435L24.696 17.0343L24.6961 17.0343L24.6361 16.8435ZM24.3712 16.8297L24.2918 17.0133L24.2918 17.0133L24.3712 16.8297ZM28.8522 15.5185L28.9122 15.7093L28.9384 15.701L28.9614 15.686L28.8522 15.5185ZM29.1544 15.5076L29.2958 15.3662L29.2958 15.3662L29.1544 15.5076ZM29.2363 15.7735L29.4315 15.817L29.4324 15.8129L29.2363 15.7735ZM27.3025 24.4508V24.6508H27.4628L27.4977 24.4943L27.3025 24.4508ZM13.6737 24.4508L13.4811 24.5047L13.522 24.6508H13.6737V24.4508ZM11.2398 15.7561L11.4327 15.702L11.4287 15.6904L11.2398 15.7561ZM11.2398 15.5076L11.0822 15.3844L11.0822 15.3844L11.2398 15.5076ZM11.5678 15.5223L11.4835 15.7037L11.494 15.7086L11.5049 15.7122L11.5678 15.5223ZM15.5482 16.8414L15.6111 16.6516L15.6111 16.6516L15.5482 16.8414ZM15.8115 16.8326L15.887 17.0178L15.887 17.0178L15.8115 16.8326ZM16.0058 16.6548L16.1836 16.7465L16.1836 16.7464L16.0058 16.6548ZM19.6852 9.51543L19.863 9.60706L19.8712 9.59109L19.8765 9.5739L19.6852 9.51543ZM20.6804 9.51543L20.4913 9.58064L20.4954 9.59239L20.5008 9.60355L20.6804 9.51543ZM24.1798 16.6461L24.3599 16.5591L24.3593 16.558L24.1798 16.6461ZM24.5762 16.6527C24.5349 16.6656 24.4903 16.6633 24.4506 16.6461L24.2918 17.0133C24.4197 17.0686 24.5631 17.076 24.696 17.0343L24.5762 16.6527ZM28.7922 15.3277L24.5761 16.6527L24.6961 17.0343L28.9122 15.7093L28.7922 15.3277ZM29.2958 15.3662C29.1631 15.2335 28.995 15.2542 28.9083 15.2779C28.861 15.2908 28.8211 15.3085 28.7937 15.3223C28.7797 15.3293 28.7682 15.3358 28.7596 15.3407C28.7554 15.3432 28.7518 15.3454 28.749 15.3471C28.7476 15.348 28.7464 15.3487 28.7454 15.3494C28.7449 15.3497 28.7445 15.35 28.744 15.3503C28.7438 15.3504 28.7437 15.3505 28.7435 15.3506C28.7434 15.3507 28.7433 15.3507 28.7432 15.3508C28.7432 15.3508 28.7431 15.3508 28.7431 15.3509C28.7431 15.3509 28.743 15.3509 28.8522 15.5185C28.9614 15.686 28.9614 15.6861 28.9613 15.6861C28.9613 15.6861 28.9612 15.6861 28.9612 15.6862C28.9611 15.6862 28.9611 15.6863 28.961 15.6863C28.9609 15.6864 28.9608 15.6865 28.9607 15.6865C28.9604 15.6867 28.9603 15.6868 28.9601 15.6869C28.9598 15.6871 28.9597 15.6871 28.9597 15.6871C28.9598 15.6871 28.9604 15.6867 28.9615 15.6861C28.9638 15.6847 28.9679 15.6824 28.9734 15.6796C28.9852 15.6737 28.9996 15.6676 29.0138 15.6637C29.05 15.6538 29.033 15.6691 29.013 15.649L29.2958 15.3662ZM29.2363 15.7735C29.4324 15.8129 29.4324 15.8128 29.4324 15.8127C29.4324 15.8127 29.4324 15.8126 29.4324 15.8125C29.4324 15.8124 29.4325 15.8123 29.4325 15.8122C29.4325 15.812 29.4326 15.8117 29.4326 15.8115C29.4327 15.8109 29.4328 15.8104 29.433 15.8098C29.4332 15.8086 29.4334 15.8072 29.4337 15.8057C29.4342 15.8026 29.4348 15.7989 29.4354 15.7946C29.4366 15.786 29.4379 15.7749 29.4388 15.7617C29.4407 15.7356 29.4412 15.6999 29.4361 15.6586C29.4261 15.5763 29.3927 15.463 29.2958 15.3662L29.013 15.649C29.0288 15.6649 29.0363 15.6846 29.0391 15.707C29.0404 15.7181 29.0402 15.7277 29.0398 15.7338C29.0396 15.7368 29.0394 15.7385 29.0393 15.7387C29.0393 15.7388 29.0394 15.7385 29.0395 15.7378C29.0396 15.7374 29.0397 15.7369 29.0398 15.7363C29.0398 15.736 29.0399 15.7356 29.04 15.7353C29.04 15.7351 29.04 15.7349 29.0401 15.7347C29.0401 15.7346 29.0401 15.7345 29.0401 15.7344C29.0401 15.7343 29.0402 15.7342 29.0402 15.7342C29.0402 15.7341 29.0402 15.7341 29.2363 15.7735ZM27.4977 24.4943L29.4315 15.817L29.0411 15.73L27.1073 24.4073L27.4977 24.4943ZM13.6737 24.6508H27.3025V24.2508H13.6737V24.6508ZM11.0472 15.81L13.4811 24.5047L13.8663 24.3969L11.4324 15.7021L11.0472 15.81ZM11.0822 15.3844C11.0355 15.4441 11.0206 15.5107 11.0156 15.5579C11.0105 15.6068 11.0143 15.653 11.0193 15.6886C11.0245 15.7252 11.0321 15.7574 11.0383 15.7801C11.0414 15.7916 11.0442 15.8012 11.0464 15.8082C11.0475 15.8118 11.0485 15.8147 11.0492 15.817C11.0496 15.8181 11.0499 15.8191 11.0502 15.8199C11.0503 15.8203 11.0505 15.8206 11.0506 15.8209C11.0506 15.8211 11.0507 15.8212 11.0507 15.8214C11.0507 15.8214 11.0508 15.8215 11.0508 15.8215C11.0508 15.8216 11.0508 15.8216 11.0508 15.8216C11.0508 15.8217 11.0509 15.8217 11.2398 15.7561C11.4287 15.6904 11.4287 15.6904 11.4287 15.6905C11.4287 15.6905 11.4287 15.6905 11.4287 15.6906C11.4288 15.6906 11.4288 15.6907 11.4288 15.6907C11.4288 15.6908 11.4288 15.6909 11.4289 15.691C11.4289 15.6911 11.429 15.6912 11.429 15.6913C11.429 15.6914 11.429 15.6914 11.429 15.6913C11.4289 15.691 11.4286 15.6901 11.4282 15.6888C11.4274 15.6862 11.426 15.6817 11.4245 15.6759C11.4212 15.6639 11.4176 15.6483 11.4154 15.6323C11.4129 15.6154 11.413 15.6043 11.4135 15.5994C11.4141 15.5929 11.4141 15.6093 11.3973 15.6309L11.0822 15.3844ZM11.5678 15.5223C11.6521 15.341 11.652 15.3409 11.652 15.3409C11.652 15.3409 11.6519 15.3409 11.6519 15.3409C11.6519 15.3408 11.6518 15.3408 11.6517 15.3408C11.6516 15.3407 11.6514 15.3406 11.6513 15.3406C11.6509 15.3404 11.6505 15.3402 11.65 15.34C11.6491 15.3396 11.6479 15.3391 11.6465 15.3384C11.6437 15.3372 11.6399 15.3355 11.6353 15.3336C11.6262 15.3297 11.6135 15.3245 11.5982 15.3187C11.5683 15.3074 11.5254 15.2929 11.4775 15.282C11.4316 15.2716 11.3695 15.262 11.305 15.2682C11.2403 15.2745 11.1483 15.3 11.0822 15.3844L11.3973 15.6309C11.3708 15.6647 11.3395 15.6668 11.3437 15.6664C11.3481 15.6659 11.3631 15.6663 11.3893 15.6722C11.4135 15.6776 11.4379 15.6857 11.4571 15.693C11.4664 15.6965 11.4738 15.6995 11.4786 15.7016C11.4809 15.7026 11.4826 15.7033 11.4835 15.7037C11.4839 15.7039 11.4841 15.704 11.4841 15.704C11.4842 15.704 11.4841 15.704 11.484 15.7039C11.484 15.7039 11.4839 15.7039 11.4838 15.7038C11.4838 15.7038 11.4837 15.7038 11.4837 15.7038C11.4837 15.7038 11.4836 15.7037 11.4836 15.7037C11.4836 15.7037 11.4835 15.7037 11.5678 15.5223ZM15.6111 16.6516L11.6307 15.3325L11.5049 15.7122L15.4853 17.0313L15.6111 16.6516ZM15.7359 16.6474C15.6962 16.6636 15.6519 16.6651 15.6111 16.6516L15.4853 17.0313C15.6165 17.0748 15.759 17.07 15.887 17.0178L15.7359 16.6474ZM15.8281 16.5631C15.8084 16.6013 15.7757 16.6312 15.7359 16.6474L15.887 17.0178C16.015 16.9656 16.1202 16.8694 16.1836 16.7465L15.8281 16.5631ZM19.5074 9.42381L15.828 16.5632L16.1836 16.7464L19.863 9.60706L19.5074 9.42381ZM20.2329 8.99806C19.9548 8.99806 19.7676 9.0982 19.6497 9.21423C19.5929 9.2702 19.5554 9.32666 19.5316 9.37049C19.5197 9.39248 19.511 9.4116 19.505 9.42638C19.502 9.43379 19.4996 9.44015 19.4978 9.44529C19.4969 9.44786 19.4961 9.45013 19.4955 9.45209C19.4952 9.45306 19.4949 9.45396 19.4946 9.45477C19.4945 9.45518 19.4944 9.45557 19.4943 9.45593C19.4942 9.45611 19.4942 9.45629 19.4941 9.45646C19.4941 9.45655 19.494 9.45667 19.494 9.45672C19.494 9.45684 19.4939 9.45696 19.6852 9.51543C19.8765 9.5739 19.8764 9.57402 19.8764 9.57414C19.8764 9.57418 19.8763 9.5743 19.8763 9.57438C19.8763 9.57453 19.8762 9.57468 19.8762 9.57482C19.8761 9.57511 19.876 9.57538 19.8759 9.57564C19.8758 9.57614 19.8756 9.57659 19.8755 9.57696C19.8753 9.57771 19.8751 9.5782 19.875 9.57845C19.8748 9.57894 19.875 9.57849 19.8755 9.57721C19.8765 9.57464 19.879 9.56896 19.8832 9.5612C19.8917 9.54552 19.9066 9.52264 19.9304 9.49927C19.9737 9.4566 20.0603 9.39806 20.2329 9.39806V8.99806ZM20.6804 9.51543C20.8694 9.45023 20.8694 9.45014 20.8694 9.45005C20.8694 9.45002 20.8693 9.44993 20.8693 9.44986C20.8693 9.44973 20.8692 9.4496 20.8692 9.44946C20.8691 9.44919 20.869 9.44889 20.8689 9.44858C20.8686 9.44794 20.8684 9.44723 20.8681 9.44644C20.8675 9.44486 20.8668 9.44296 20.866 9.44077C20.8643 9.43638 20.8621 9.43081 20.8593 9.4242C20.8538 9.41103 20.8459 9.39357 20.8353 9.37324C20.8142 9.33299 20.7814 9.27922 20.7337 9.22484C20.6364 9.11385 20.4734 8.99806 20.2329 8.99806V9.39806C20.3305 9.39806 20.3912 9.44095 20.4331 9.48865C20.455 9.51361 20.4707 9.53919 20.4807 9.55844C20.4856 9.56787 20.4889 9.57521 20.4907 9.57939C20.4915 9.58146 20.492 9.58271 20.4921 9.58297C20.4922 9.5831 20.4921 9.58299 20.492 9.58261C20.4919 9.58242 20.4918 9.58216 20.4917 9.58183C20.4917 9.58167 20.4916 9.58149 20.4915 9.58129C20.4915 9.58119 20.4915 9.58108 20.4914 9.58098C20.4914 9.58092 20.4914 9.58084 20.4914 9.58081C20.4913 9.58073 20.4913 9.58064 20.6804 9.51543ZM24.3593 16.558L20.8599 9.42732L20.5008 9.60355L24.0002 16.7342L24.3593 16.558ZM24.4506 16.6461C24.4109 16.629 24.3787 16.5981 24.3599 16.5591L23.9997 16.7331C24.0603 16.8585 24.164 16.958 24.2918 17.0133L24.4506 16.6461ZM13.9185 26.0987C13.9185 25.7113 14.2325 25.3973 14.6199 25.3973V24.9973C14.0116 24.9973 13.5185 25.4904 13.5185 26.0987H13.9185ZM14.6199 26.8C14.2325 26.8 13.9185 26.486 13.9185 26.0987H13.5185C13.5185 26.7069 14.0116 27.2 14.6199 27.2V26.8ZM26.3376 26.8H14.6199V27.2H26.3376V26.8ZM27.039 26.0987C27.039 26.486 26.725 26.8 26.3376 26.8V27.2C26.9459 27.2 27.439 26.7069 27.439 26.0987H27.039ZM26.3376 25.3973C26.725 25.3973 27.039 25.7113 27.039 26.0987H27.439C27.439 25.4904 26.9459 24.9973 26.3376 24.9973V25.3973ZM14.6199 25.3973H26.3376V24.9973H14.6199V25.3973Z" fill="url(#paint2_linear_4_5953)" mask="url(#path-2-inside-1_4_5953)"/>
</g>
<defs>
<filter id="filter0_bd_4_5953" x="-13.7868" y="-15.8019" width="68.0269" height="67.8019" filterUnits="userSpaceOnUse" color-interpolation-filters="sRGB">
<feFlood flood-opacity="0" result="BackgroundImageFix"/>
<feGaussianBlur in="BackgroundImageFix" stdDeviation="12.5"/>
<feComposite in2="SourceAlpha" operator="in" result="effect1_backgroundBlur_4_5953"/>
<feColorMatrix in="SourceAlpha" type="matrix" values="0 0 0 0 0 0 0 0 0 0 0 0 0 0 0 0 0 0 127 0" result="hardAlpha"/>
<feOffset dx="5" dy="5"/>
<feGaussianBlur stdDeviation="5"/>
<feColorMatrix type="matrix" values="0 0 0 0 0.415686 0 0 0 0 0.215686 0 0 0 0 1 0 0 0 0.5 0"/>
<feBlend mode="normal" in2="effect1_backgroundBlur_4_5953" result="effect2_dropShadow_4_5953"/>
<feBlend mode="normal" in="SourceGraphic" in2="effect2_dropShadow_4_5953" result="shape"/>
</filter>
<linearGradient id="paint0_linear_4_5953" x1="1.16208" y1="32.3077" x2="38.8529" y2="31.9086" gradientUnits="userSpaceOnUse">
<stop stop-color="#310BE8"/>
<stop offset="0.348958" stop-color="#0027FE"/>
<stop offset="0.651042" stop-color="#8200FF"/>
<stop offset="1" stop-color="#D703FF"/>
</linearGradient>
<linearGradient id="paint1_linear_4_5953" x1="15.8191" y1="16.8643" x2="26.8362" y2="27.4407" gradientUnits="userSpaceOnUse">
<stop stop-color="white"/>
<stop offset="1" stop-color="white" stop-opacity="0.2"/>
</linearGradient>
<linearGradient id="paint2_linear_4_5953" x1="17.8235" y1="13.6049" x2="26.6372" y2="29.0289" gradientUnits="userSpaceOnUse">
<stop stop-color="white"/>
<stop offset="1" stop-color="white" stop-opacity="0"/>
</linearGradient>
</defs>
</svg>
