<svg width="30" height="30" viewBox="0 0 30 30" fill="none" xmlns="http://www.w3.org/2000/svg">
<path d="M15.0008 30C23.2848 30 30.0002 23.2846 30.0002 15.0006C30.0002 6.71673 23.2848 0.00128174 15.0008 0.00128174C6.71691 0.00128174 0.00146484 6.71673 0.00146484 15.0006C0.00146484 23.2846 6.71691 30 15.0008 30Z" fill="white"/>
<path d="M29.1426 9.99866H19.9006C20.3021 13.2029 20.3045 16.7335 19.9084 19.9418H29.1623C29.7026 18.394 29.9995 16.7319 29.9995 15.0001C29.9998 13.2455 29.6959 11.563 29.1426 9.99866Z" fill="#EFECEC"/>
<path d="M19.9007 9.99867H29.1425C29.1411 9.99392 29.1396 9.98993 29.1377 9.98563C27.2181 4.57267 22.2799 0.590171 16.3468 0.0615234C18.643 1.32009 19.3137 5.3076 19.9007 9.99867Z" fill="#E97E24"/>
<path d="M16.3473 29.9377C22.2911 29.4081 27.2361 25.4119 29.1483 19.9844C29.1533 19.97 29.1576 19.9557 29.1628 19.9418H19.9087C19.3263 24.6582 18.6527 28.6739 16.3473 29.9377Z" fill="#258F44"/>
<path d="M0 15C0 16.7321 0.297479 18.394 0.837211 19.9417H20.6805C21.077 16.7332 21.0742 13.2028 20.6732 9.9986H0.857161C0.303876 11.563 0 13.2455 0 15Z" fill="#EFEFEF"/>
<path d="M0.861806 9.98567C0.860412 9.98991 0.858956 9.99396 0.857056 9.99871H20.6732C20.0858 5.30757 18.6429 1.32013 16.347 0.0615606C15.9029 0.0222302 15.4539 7.2187e-10 14.9996 7.2187e-10C8.47441 -6.33332e-05 2.92541 4.16737 0.861806 9.98567Z" fill="#EA8634"/>
<path d="M20.6805 19.9417H0.837158C0.842162 19.9557 0.846848 19.9699 0.851598 19.9843C2.90697 25.8175 8.46395 29.9997 14.9996 29.9997C15.4539 29.9997 15.903 29.9774 16.347 29.9376C18.6527 28.6739 20.0981 24.6582 20.6805 19.9417Z" fill="#359846"/>
</svg>
