<svg width="40" height="40" viewBox="0 0 40 40" fill="none" xmlns="http://www.w3.org/2000/svg">
<g filter="url(#filter0_bd_4_5931)">
<mask id="path-1-inside-1_4_5931" fill="white">
<path d="M24.4608 13.699C24.4603 13.6986 24.4599 13.6981 24.4594 13.6977L16.301 5.53955C15.9532 5.19165 15.4909 5 14.9991 5C14.5073 5 14.045 5.1915 13.6971 5.5394L5.54293 13.6934C5.54018 13.6961 5.53743 13.699 5.53469 13.7018C4.82058 14.42 4.8218 15.5853 5.5382 16.3017C5.8655 16.6292 6.29778 16.8188 6.75997 16.8387C6.77874 16.8405 6.79766 16.8414 6.81673 16.8414H7.1419V22.8453C7.1419 24.0334 8.10854 25 9.29689 25H12.4887C12.8122 25 13.0747 24.7377 13.0747 24.4141V19.707C13.0747 19.1649 13.5156 18.7239 14.0578 18.7239H15.9404C16.4826 18.7239 16.9235 19.1649 16.9235 19.707V24.4141C16.9235 24.7377 17.1858 25 17.5095 25H20.7013C21.8897 25 22.8563 24.0334 22.8563 22.8453V16.8414H23.1578C23.6495 16.8414 24.1118 16.6499 24.4599 16.302C25.177 15.5844 25.1773 14.4171 24.4608 13.699Z"/>
</mask>
<path d="M24.4608 13.699C24.4603 13.6986 24.4599 13.6981 24.4594 13.6977L16.301 5.53955C15.9532 5.19165 15.4909 5 14.9991 5C14.5073 5 14.045 5.1915 13.6971 5.5394L5.54293 13.6934C5.54018 13.6961 5.53743 13.699 5.53469 13.7018C4.82058 14.42 4.8218 15.5853 5.5382 16.3017C5.8655 16.6292 6.29778 16.8188 6.75997 16.8387C6.77874 16.8405 6.79766 16.8414 6.81673 16.8414H7.1419V22.8453C7.1419 24.0334 8.10854 25 9.29689 25H12.4887C12.8122 25 13.0747 24.7377 13.0747 24.4141V19.707C13.0747 19.1649 13.5156 18.7239 14.0578 18.7239H15.9404C16.4826 18.7239 16.9235 19.1649 16.9235 19.707V24.4141C16.9235 24.7377 17.1858 25 17.5095 25H20.7013C21.8897 25 22.8563 24.0334 22.8563 22.8453V16.8414H23.1578C23.6495 16.8414 24.1118 16.6499 24.4599 16.302C25.177 15.5844 25.1773 14.4171 24.4608 13.699Z" fill="url(#paint0_linear_4_5931)"/>
<path d="M24.4594 13.6977L24.6008 13.5562L24.6008 13.5562L24.4594 13.6977ZM16.301 5.53955L16.1595 5.68094L16.1596 5.68097L16.301 5.53955ZM13.6971 5.5394L13.8385 5.68082L13.8385 5.68082L13.6971 5.5394ZM5.54293 13.6934L5.40151 13.552L5.40151 13.552L5.54293 13.6934ZM5.53469 13.7018L5.39327 13.5604L5.39286 13.5608L5.53469 13.7018ZM5.5382 16.3017L5.67965 16.1603L5.67962 16.1603L5.5382 16.3017ZM6.75997 16.8387L6.77942 16.6393L6.76854 16.6389L6.75997 16.8387ZM7.1419 16.8414H7.3419V16.6414H7.1419V16.8414ZM22.8563 16.8414V16.6414H22.6563V16.8414H22.8563ZM24.4599 16.302L24.6012 16.4435L24.6013 16.4434L24.4599 16.302ZM24.6022 13.5576C24.6002 13.5556 24.6028 13.5582 24.6008 13.5562L24.318 13.8391C24.3184 13.8395 24.3182 13.8393 24.3187 13.8398C24.3217 13.8428 24.3164 13.8375 24.3193 13.8405L24.6022 13.5576ZM24.6008 13.5562L16.4424 5.39813L16.1596 5.68097L24.318 13.8391L24.6008 13.5562ZM16.4424 5.39816C16.0572 5.01275 15.544 4.8 14.9991 4.8V5.2C15.4378 5.2 15.8493 5.37055 16.1595 5.68094L16.4424 5.39816ZM14.9991 4.8C14.4543 4.8 13.9411 5.01258 13.5556 5.39798L13.8385 5.68082C14.1489 5.37042 14.5604 5.2 14.9991 5.2V4.8ZM13.5557 5.39798L5.40151 13.552L5.68435 13.8348L13.8385 5.68082L13.5557 5.39798ZM5.40151 13.552C5.399 13.5545 5.39667 13.5569 5.39546 13.5581C5.39392 13.5597 5.39351 13.5601 5.39327 13.5604L5.67611 13.8432C5.67862 13.8407 5.68095 13.8383 5.68215 13.8371C5.68369 13.8355 5.68411 13.8351 5.68435 13.8348L5.40151 13.552ZM5.39286 13.5608C4.60108 14.3571 4.60238 15.6488 5.39678 16.4431L5.67962 16.1603C5.04121 15.5219 5.04008 14.4829 5.67652 13.8428L5.39286 13.5608ZM5.39674 16.4431C5.75953 16.8061 6.23926 17.0165 6.75139 17.0385L6.76854 16.6389C6.35631 16.6212 5.97147 16.4523 5.67965 16.1603L5.39674 16.4431ZM6.74055 17.0377C6.76585 17.0402 6.79125 17.0414 6.81673 17.0414V16.6414C6.80407 16.6414 6.79163 16.6408 6.77939 16.6396L6.74055 17.0377ZM6.81673 17.0414H7.1419V16.6414H6.81673V17.0414ZM6.9419 16.8414V22.8453H7.3419V16.8414H6.9419ZM6.9419 22.8453C6.9419 24.1438 7.9981 25.2 9.29689 25.2V24.8C8.21898 24.8 7.3419 23.9229 7.3419 22.8453H6.9419ZM9.29689 25.2H12.4887V24.8H9.29689V25.2ZM12.4887 25.2C12.9226 25.2 13.2747 24.8482 13.2747 24.4141H12.8747C12.8747 24.6272 12.7018 24.8 12.4887 24.8V25.2ZM13.2747 24.4141V19.707H12.8747V24.4141H13.2747ZM13.2747 19.707C13.2747 19.2753 13.6261 18.9239 14.0578 18.9239V18.5239C13.4052 18.5239 12.8747 19.0544 12.8747 19.707H13.2747ZM14.0578 18.9239H15.9404V18.5239H14.0578V18.9239ZM15.9404 18.9239C16.3721 18.9239 16.7235 19.2753 16.7235 19.707H17.1235C17.1235 19.0544 16.593 18.5239 15.9404 18.5239V18.9239ZM16.7235 19.707V24.4141H17.1235V19.707H16.7235ZM16.7235 24.4141C16.7235 24.8482 17.0754 25.2 17.5095 25.2V24.8C17.2963 24.8 17.1235 24.6272 17.1235 24.4141H16.7235ZM17.5095 25.2H20.7013V24.8H17.5095V25.2ZM20.7013 25.2C22.0001 25.2 23.0563 24.1438 23.0563 22.8453H22.6563C22.6563 23.9229 21.7792 24.8 20.7013 24.8V25.2ZM23.0563 22.8453V16.8414H22.6563V22.8453H23.0563ZM22.8563 17.0414H23.1578V16.6414H22.8563V17.0414ZM23.1578 17.0414C23.7025 17.0414 24.2157 16.8288 24.6012 16.4435L24.3185 16.1606C24.0079 16.471 23.5964 16.6414 23.1578 16.6414V17.0414ZM24.6013 16.4434C25.3965 15.6477 25.3968 14.3539 24.6023 13.5578L24.3192 13.8403C24.9578 14.4803 24.9575 15.5211 24.3184 16.1607L24.6013 16.4434Z" fill="url(#paint1_linear_4_5931)" mask="url(#path-1-inside-1_4_5931)"/>
</g>
<defs>
<filter id="filter0_bd_4_5931" x="-20" y="-20" width="69.998" height="70" filterUnits="userSpaceOnUse" color-interpolation-filters="sRGB">
<feFlood flood-opacity="0" result="BackgroundImageFix"/>
<feGaussianBlur in="BackgroundImageFix" stdDeviation="12.5"/>
<feComposite in2="SourceAlpha" operator="in" result="effect1_backgroundBlur_4_5931"/>
<feColorMatrix in="SourceAlpha" type="matrix" values="0 0 0 0 0 0 0 0 0 0 0 0 0 0 0 0 0 0 127 0" result="hardAlpha"/>
<feOffset dx="5" dy="5"/>
<feGaussianBlur stdDeviation="5"/>
<feColorMatrix type="matrix" values="0 0 0 0 0 0 0 0 0 0 0 0 0 0 0 0 0 0 0.1 0"/>
<feBlend mode="normal" in2="effect1_backgroundBlur_4_5931" result="effect2_dropShadow_4_5931"/>
<feBlend mode="normal" in="SourceGraphic" in2="effect2_dropShadow_4_5931" result="shape"/>
</filter>
<linearGradient id="paint0_linear_4_5931" x1="7" y1="9" x2="27" y2="29" gradientUnits="userSpaceOnUse">
<stop stop-color="white"/>
<stop offset="1" stop-color="white" stop-opacity="0.2"/>
</linearGradient>
<linearGradient id="paint1_linear_4_5931" x1="14.999" y1="5" x2="14.999" y2="25" gradientUnits="userSpaceOnUse">
<stop stop-color="white"/>
<stop offset="1" stop-color="white" stop-opacity="0"/>
</linearGradient>
</defs>
</svg>
