<svg width="30" height="30" viewBox="0 0 30 30" fill="none" xmlns="http://www.w3.org/2000/svg">
<g clip-path="url(#clip0_1_2435)">
<path d="M15.0006 30C23.2845 30 30 23.2846 30 15.0006C30 6.7167 23.2845 0.00125122 15.0006 0.00125122C6.71669 0.00125122 0.00124741 6.7167 0.00124741 15.0006C0.00124741 23.2846 6.71669 30 15.0006 30Z" fill="white"/>
<path d="M15.0006 30C23.2845 30 30 23.2846 30 15.0006C30 6.7167 23.2845 0.00125122 15.0006 0.00125122C6.71669 0.00125122 0.00124741 6.7167 0.00124741 15.0006C0.00124741 23.2846 6.71669 30 15.0006 30Z" fill="white"/>
<path d="M29.1427 9.99876C29.141 9.99401 29.1396 9.99002 29.1379 9.98572C27.2181 4.5727 22.2802 0.590202 16.3471 0.061554C18.6428 1.32012 19.3132 5.30762 19.9007 9.9987C20.3019 13.203 20.3045 16.7336 19.9083 19.9418C19.3258 24.6583 18.6525 28.6739 16.3471 29.9377C22.2909 29.4081 27.2359 25.4119 29.1482 19.9844C29.1532 19.97 29.1574 19.9557 29.1626 19.9418C29.7026 18.3941 29.9998 16.7319 29.9998 15.0001C29.9998 13.2456 29.6959 11.563 29.1427 9.99876Z" fill="#EFECEC"/>
<path d="M20.6729 9.99878C20.0858 5.30763 18.643 1.3202 16.347 0.0616239C15.903 0.0222935 15.4539 0 14.9997 0C8.47446 0 2.9252 4.1675 0.861848 9.98573C0.860201 9.98997 0.858744 9.99403 0.857098 9.99878C0.303876 11.5631 0 13.2456 0 15.0001C0 16.7322 0.297226 18.3941 0.837211 19.9418C0.842214 19.9558 0.846711 19.97 0.851651 19.9844C2.90696 25.8176 8.46375 29.9997 14.9996 29.9997C15.4539 29.9997 15.903 29.9775 16.347 29.9377C18.6524 28.6739 20.0981 24.6582 20.6805 19.9418C21.0768 16.7333 21.0742 13.203 20.6729 9.99878Z" fill="#F3F2F2"/>
<path d="M15.0007 20.5265C18.0525 20.5265 20.5265 18.0525 20.5265 15.0006C20.5265 11.9488 18.0525 9.47476 15.0007 9.47476C11.9488 9.47476 9.47478 11.9488 9.47478 15.0006C9.47478 18.0525 11.9488 20.5265 15.0007 20.5265Z" fill="#EC1C24"/>
</g>
<defs>
<clipPath id="clip0_1_2435">
<rect width="30" height="30" fill="white"/>
</clipPath>
</defs>
</svg>
