<svg width="315" height="85" viewBox="0 0 315 85" fill="none" xmlns="http://www.w3.org/2000/svg">
<rect width="315" height="50" rx="25" fill="#151515"/>
<path d="M244.632 26C244.632 25.8566 244.576 25.7133 244.465 25.6039L240.971 22.1641C240.749 21.9453 240.389 21.9453 240.167 22.1641C239.944 22.3828 239.944 22.7375 240.167 22.9564L243.258 26L240.167 29.0436C239.945 29.2624 239.945 29.6171 240.167 29.8358C240.389 30.0547 240.749 30.0547 240.971 29.8358L244.465 26.396C244.576 26.2867 244.632 26.1433 244.632 26Z" fill="white" stroke="white"/>
<path d="M79.448 23.32C79.2453 22.9467 78.952 22.664 78.568 22.472C78.1947 22.2693 77.752 22.168 77.24 22.168C76.3547 22.168 75.6453 22.4613 75.112 23.048C74.5787 23.624 74.312 24.3973 74.312 25.368C74.312 26.4027 74.5893 27.2133 75.144 27.8C75.7093 28.376 76.4827 28.664 77.464 28.664C78.136 28.664 78.7013 28.4933 79.16 28.152C79.6293 27.8107 79.9707 27.32 80.184 26.68H76.712V24.664H82.664V27.208C82.4613 27.8907 82.1147 28.5253 81.624 29.112C81.144 29.6987 80.5307 30.1733 79.784 30.536C79.0373 30.8987 78.1947 31.08 77.256 31.08C76.1467 31.08 75.1547 30.84 74.28 30.36C73.416 29.8693 72.7387 29.192 72.248 28.328C71.768 27.464 71.528 26.4773 71.528 25.368C71.528 24.2587 71.768 23.272 72.248 22.408C72.7387 21.5333 73.416 20.856 74.28 20.376C75.144 19.8853 76.1307 19.64 77.24 19.64C78.584 19.64 79.7147 19.9653 80.632 20.616C81.56 21.2667 82.1733 22.168 82.472 23.32H79.448ZM92.2755 26.392C92.2755 26.648 92.2595 26.9147 92.2275 27.192H86.0355C86.0782 27.7467 86.2542 28.1733 86.5635 28.472C86.8835 28.76 87.2728 28.904 87.7315 28.904C88.4142 28.904 88.8888 28.616 89.1555 28.04H92.0675C91.9182 28.6267 91.6462 29.1547 91.2515 29.624C90.8675 30.0933 90.3822 30.4613 89.7955 30.728C89.2088 30.9947 88.5528 31.128 87.8275 31.128C86.9528 31.128 86.1742 30.9413 85.4915 30.568C84.8088 30.1947 84.2755 29.6613 83.8915 28.968C83.5075 28.2747 83.3155 27.464 83.3155 26.536C83.3155 25.608 83.5022 24.7973 83.8755 24.104C84.2595 23.4107 84.7928 22.8773 85.4755 22.504C86.1582 22.1307 86.9422 21.944 87.8275 21.944C88.6915 21.944 89.4595 22.1253 90.1315 22.488C90.8035 22.8507 91.3262 23.368 91.6995 24.04C92.0835 24.712 92.2755 25.496 92.2755 26.392ZM89.4755 25.672C89.4755 25.2027 89.3155 24.8293 88.9955 24.552C88.6755 24.2747 88.2755 24.136 87.7955 24.136C87.3368 24.136 86.9475 24.2693 86.6275 24.536C86.3182 24.8027 86.1262 25.1813 86.0515 25.672H89.4755ZM98.3749 28.68V31H96.9829C95.9909 31 95.2175 30.76 94.6629 30.28C94.1082 29.7893 93.8309 28.9947 93.8309 27.896V24.344H92.7429V22.072H93.8309V19.896H96.5669V22.072H98.3589V24.344H96.5669V27.928C96.5669 28.1947 96.6309 28.3867 96.7589 28.504C96.8869 28.6213 97.1002 28.68 97.3989 28.68H98.3749ZM110.644 20.568L106.196 31H104.724L109.236 20.712H103.06V19.464H110.644V20.568ZM119.597 19.848C120.813 19.848 121.863 20.0773 122.749 20.536C123.645 20.984 124.327 21.6293 124.797 22.472C125.277 23.3147 125.517 24.3067 125.517 25.448C125.517 26.5893 125.277 27.5813 124.797 28.424C124.327 29.256 123.645 29.896 122.749 30.344C121.863 30.7813 120.813 31 119.597 31H116.125V19.848H119.597ZM119.597 29.8C121.037 29.8 122.135 29.4213 122.893 28.664C123.65 27.896 124.029 26.824 124.029 25.448C124.029 24.0613 123.645 22.9787 122.877 22.2C122.119 21.4213 121.026 21.032 119.597 21.032H117.581V29.8H119.597ZM126.573 26.584C126.573 25.688 126.754 24.904 127.117 24.232C127.48 23.5493 127.976 23.0213 128.605 22.648C129.245 22.2747 129.954 22.088 130.733 22.088C131.501 22.088 132.168 22.2533 132.733 22.584C133.298 22.9147 133.72 23.3307 133.997 23.832V22.232H135.469V31H133.997V29.368C133.709 29.88 133.277 30.3067 132.701 30.648C132.136 30.9787 131.474 31.144 130.717 31.144C129.938 31.144 129.234 30.952 128.605 30.568C127.976 30.184 127.48 29.6453 127.117 28.952C126.754 28.2587 126.573 27.4693 126.573 26.584ZM133.997 26.6C133.997 25.9387 133.864 25.3627 133.597 24.872C133.33 24.3813 132.968 24.008 132.509 23.752C132.061 23.4853 131.565 23.352 131.021 23.352C130.477 23.352 129.981 23.48 129.533 23.736C129.085 23.992 128.728 24.3653 128.461 24.856C128.194 25.3467 128.061 25.9227 128.061 26.584C128.061 27.256 128.194 27.8427 128.461 28.344C128.728 28.8347 129.085 29.2133 129.533 29.48C129.981 29.736 130.477 29.864 131.021 29.864C131.565 29.864 132.061 29.736 132.509 29.48C132.968 29.2133 133.33 28.8347 133.597 28.344C133.864 27.8427 133.997 27.2613 133.997 26.6ZM145.162 22.232L139.882 35.128H138.378L140.106 30.904L136.57 22.232H138.186L140.938 29.336L143.658 22.232H145.162ZM149.409 31.144C148.737 31.144 148.134 31.032 147.601 30.808C147.068 30.5733 146.646 30.2533 146.337 29.848C146.028 29.432 145.857 28.9573 145.825 28.424H147.329C147.372 28.8613 147.574 29.2187 147.937 29.496C148.31 29.7733 148.796 29.912 149.393 29.912C149.948 29.912 150.385 29.7893 150.705 29.544C151.025 29.2987 151.185 28.9893 151.185 28.616C151.185 28.232 151.014 27.9493 150.673 27.768C150.332 27.576 149.804 27.3893 149.089 27.208C148.438 27.0373 147.905 26.8667 147.489 26.696C147.084 26.5147 146.732 26.2533 146.433 25.912C146.145 25.56 146.001 25.1013 146.001 24.536C146.001 24.088 146.134 23.6773 146.401 23.304C146.668 22.9307 147.046 22.6373 147.537 22.424C148.028 22.2 148.588 22.088 149.217 22.088C150.188 22.088 150.972 22.3333 151.569 22.824C152.166 23.3147 152.486 23.9867 152.529 24.84H151.073C151.041 24.3813 150.854 24.0133 150.513 23.736C150.182 23.4587 149.734 23.32 149.169 23.32C148.646 23.32 148.23 23.432 147.921 23.656C147.612 23.88 147.457 24.1733 147.457 24.536C147.457 24.824 147.548 25.064 147.729 25.256C147.921 25.4373 148.156 25.5867 148.433 25.704C148.721 25.8107 149.116 25.9333 149.617 26.072C150.246 26.2427 150.758 26.4133 151.153 26.584C151.548 26.744 151.884 26.9893 152.161 27.32C152.449 27.6507 152.598 28.0827 152.609 28.616C152.609 29.096 152.476 29.528 152.209 29.912C151.942 30.296 151.564 30.6 151.073 30.824C150.593 31.0373 150.038 31.144 149.409 31.144ZM164.487 19.768V21.96H159.911V24.328H163.335V26.456H159.911V31H157.175V19.768H164.487ZM168.341 23.56C168.661 23.0693 169.061 22.6853 169.541 22.408C170.021 22.12 170.554 21.976 171.141 21.976V24.872H170.389C169.706 24.872 169.194 25.0213 168.853 25.32C168.512 25.608 168.341 26.12 168.341 26.856V31H165.605V22.072H168.341V23.56ZM180.545 26.392C180.545 26.648 180.529 26.9147 180.497 27.192H174.305C174.348 27.7467 174.524 28.1733 174.833 28.472C175.153 28.76 175.542 28.904 176.001 28.904C176.684 28.904 177.158 28.616 177.425 28.04H180.337C180.188 28.6267 179.916 29.1547 179.521 29.624C179.137 30.0933 178.652 30.4613 178.065 30.728C177.478 30.9947 176.822 31.128 176.097 31.128C175.222 31.128 174.444 30.9413 173.761 30.568C173.078 30.1947 172.545 29.6613 172.161 28.968C171.777 28.2747 171.585 27.464 171.585 26.536C171.585 25.608 171.772 24.7973 172.145 24.104C172.529 23.4107 173.062 22.8773 173.745 22.504C174.428 22.1307 175.212 21.944 176.097 21.944C176.961 21.944 177.729 22.1253 178.401 22.488C179.073 22.8507 179.596 23.368 179.969 24.04C180.353 24.712 180.545 25.496 180.545 26.392ZM177.745 25.672C177.745 25.2027 177.585 24.8293 177.265 24.552C176.945 24.2747 176.545 24.136 176.065 24.136C175.606 24.136 175.217 24.2693 174.897 24.536C174.588 24.8027 174.396 25.1813 174.321 25.672H177.745ZM190.084 26.392C190.084 26.648 190.068 26.9147 190.036 27.192H183.844C183.887 27.7467 184.063 28.1733 184.372 28.472C184.692 28.76 185.082 28.904 185.54 28.904C186.223 28.904 186.698 28.616 186.964 28.04H189.876C189.727 28.6267 189.455 29.1547 189.06 29.624C188.676 30.0933 188.191 30.4613 187.604 30.728C187.018 30.9947 186.362 31.128 185.636 31.128C184.762 31.128 183.983 30.9413 183.3 30.568C182.618 30.1947 182.084 29.6613 181.7 28.968C181.316 28.2747 181.124 27.464 181.124 26.536C181.124 25.608 181.311 24.7973 181.684 24.104C182.068 23.4107 182.602 22.8773 183.284 22.504C183.967 22.1307 184.751 21.944 185.636 21.944C186.5 21.944 187.268 22.1253 187.94 22.488C188.612 22.8507 189.135 23.368 189.508 24.04C189.892 24.712 190.084 25.496 190.084 26.392ZM187.284 25.672C187.284 25.2027 187.124 24.8293 186.804 24.552C186.484 24.2747 186.084 24.136 185.604 24.136C185.146 24.136 184.756 24.2693 184.436 24.536C184.127 24.8027 183.935 25.1813 183.86 25.672H187.284ZM204.326 31H201.59L197.014 24.072V31H194.278V19.768H197.014L201.59 26.728V19.768H204.326V31ZM210.053 31.128C209.179 31.128 208.389 30.9413 207.685 30.568C206.992 30.1947 206.443 29.6613 206.037 28.968C205.643 28.2747 205.445 27.464 205.445 26.536C205.445 25.6187 205.648 24.8133 206.053 24.12C206.459 23.416 207.013 22.8773 207.717 22.504C208.421 22.1307 209.211 21.944 210.085 21.944C210.96 21.944 211.749 22.1307 212.453 22.504C213.157 22.8773 213.712 23.416 214.117 24.12C214.523 24.8133 214.725 25.6187 214.725 26.536C214.725 27.4533 214.517 28.264 214.101 28.968C213.696 29.6613 213.136 30.1947 212.421 30.568C211.717 30.9413 210.928 31.128 210.053 31.128ZM210.053 28.76C210.576 28.76 211.019 28.568 211.381 28.184C211.755 27.8 211.941 27.2507 211.941 26.536C211.941 25.8213 211.76 25.272 211.397 24.888C211.045 24.504 210.608 24.312 210.085 24.312C209.552 24.312 209.109 24.504 208.757 24.888C208.405 25.2613 208.229 25.8107 208.229 26.536C208.229 27.2507 208.4 27.8 208.741 28.184C209.093 28.568 209.531 28.76 210.053 28.76ZM228.673 22.072L226.257 31H223.233L221.825 25.208L220.369 31H217.361L214.929 22.072H217.665L218.929 28.456L220.433 22.072H223.329L224.849 28.424L226.097 22.072H228.673Z" fill="white"/>
<path d="M105.258 79L102.682 74.968H101.296V79H100.022V69.13H103.27C104.39 69.13 105.23 69.4007 105.79 69.942C106.35 70.474 106.63 71.1833 106.63 72.07C106.63 72.8727 106.406 73.5213 105.958 74.016C105.51 74.5013 104.861 74.8047 104.012 74.926L106.7 79H105.258ZM101.296 74.044H103.158C104.605 74.044 105.328 73.4093 105.328 72.14C105.328 70.8707 104.605 70.236 103.158 70.236H101.296V74.044ZM115.044 74.73C115.044 75.0007 115.025 75.234 114.988 75.43H108.842C108.87 76.3073 109.117 76.9653 109.584 77.404C110.06 77.8427 110.639 78.062 111.32 78.062C111.936 78.062 112.449 77.908 112.86 77.6C113.28 77.2827 113.537 76.8627 113.63 76.34H114.988C114.895 76.872 114.685 77.348 114.358 77.768C114.041 78.188 113.625 78.5147 113.112 78.748C112.599 78.9813 112.02 79.098 111.376 79.098C110.639 79.098 109.985 78.9393 109.416 78.622C108.847 78.3047 108.399 77.852 108.072 77.264C107.755 76.6667 107.596 75.9667 107.596 75.164C107.596 74.3613 107.755 73.6613 108.072 73.064C108.399 72.4667 108.847 72.0093 109.416 71.692C109.985 71.3747 110.639 71.216 111.376 71.216C112.123 71.216 112.771 71.3747 113.322 71.692C113.882 72.0093 114.307 72.434 114.596 72.966C114.895 73.498 115.044 74.086 115.044 74.73ZM113.756 74.814C113.784 74.2447 113.691 73.7687 113.476 73.386C113.261 73.0033 112.967 72.7187 112.594 72.532C112.221 72.3453 111.815 72.252 111.376 72.252C110.676 72.252 110.088 72.4713 109.612 72.91C109.136 73.3393 108.879 73.974 108.842 74.814H113.756ZM118.908 71.216C119.776 71.216 120.472 71.4447 120.994 71.902C121.526 72.35 121.848 72.9567 121.96 73.722H120.742C120.686 73.2647 120.495 72.8913 120.168 72.602C119.851 72.3033 119.422 72.154 118.88 72.154C118.423 72.154 118.064 72.266 117.802 72.49C117.55 72.7047 117.424 72.9987 117.424 73.372C117.424 73.652 117.508 73.8807 117.676 74.058C117.854 74.226 118.068 74.3567 118.32 74.45C118.582 74.534 118.936 74.6273 119.384 74.73C119.954 74.8607 120.411 74.996 120.756 75.136C121.111 75.2667 121.41 75.4813 121.652 75.78C121.904 76.0787 122.03 76.48 122.03 76.984C122.03 77.6093 121.792 78.118 121.316 78.51C120.85 78.902 120.224 79.098 119.44 79.098C118.526 79.098 117.779 78.8787 117.2 78.44C116.622 78.0013 116.281 77.39 116.178 76.606H117.41C117.457 77.0727 117.658 77.4507 118.012 77.74C118.376 78.0293 118.852 78.174 119.44 78.174C119.879 78.174 120.22 78.062 120.462 77.838C120.714 77.614 120.84 77.32 120.84 76.956C120.84 76.6573 120.752 76.4193 120.574 76.242C120.397 76.0647 120.178 75.9293 119.916 75.836C119.655 75.7427 119.296 75.6447 118.838 75.542C118.269 75.4113 117.812 75.2807 117.466 75.15C117.13 75.0193 116.841 74.814 116.598 74.534C116.365 74.2447 116.248 73.8573 116.248 73.372C116.248 72.728 116.486 72.21 116.962 71.818C117.438 71.4167 118.087 71.216 118.908 71.216ZM127.191 77.88V79H126.239C125.455 79 124.867 78.8133 124.475 78.44C124.092 78.0667 123.901 77.4413 123.901 76.564V72.42H122.753V71.314H123.901V69.396H125.189V71.314H127.177V72.42H125.189V76.592C125.189 77.0867 125.278 77.4273 125.455 77.614C125.642 77.7913 125.959 77.88 126.407 77.88H127.191ZM132.022 71.216C132.759 71.216 133.417 71.3747 133.996 71.692C134.584 72.0093 135.041 72.4667 135.368 73.064C135.704 73.6613 135.872 74.3613 135.872 75.164C135.872 75.9667 135.704 76.6667 135.368 77.264C135.041 77.852 134.584 78.3047 133.996 78.622C133.417 78.9393 132.759 79.098 132.022 79.098C131.284 79.098 130.622 78.9393 130.034 78.622C129.455 78.3047 128.998 77.852 128.662 77.264C128.326 76.6667 128.158 75.9667 128.158 75.164C128.158 74.3613 128.326 73.6613 128.662 73.064C128.998 72.4667 129.455 72.0093 130.034 71.692C130.622 71.3747 131.284 71.216 132.022 71.216ZM132.022 72.336C131.564 72.336 131.14 72.4387 130.748 72.644C130.365 72.8493 130.052 73.1667 129.81 73.596C129.576 74.016 129.46 74.5387 129.46 75.164C129.46 75.78 129.576 76.3027 129.81 76.732C130.052 77.152 130.365 77.4647 130.748 77.67C131.14 77.8753 131.564 77.978 132.022 77.978C132.479 77.978 132.899 77.8753 133.282 77.67C133.674 77.4647 133.986 77.152 134.22 76.732C134.462 76.3027 134.584 75.78 134.584 75.164C134.584 74.5387 134.462 74.016 134.22 73.596C133.986 73.1667 133.674 72.8493 133.282 72.644C132.899 72.4387 132.479 72.336 132.022 72.336ZM138.596 72.868C138.848 72.336 139.216 71.9253 139.702 71.636C140.187 71.3373 140.766 71.188 141.438 71.188V72.574H141.046C140.327 72.574 139.739 72.7607 139.282 73.134C138.824 73.498 138.596 74.1047 138.596 74.954V79H137.322V71.314H138.596V72.868ZM149.555 74.73C149.555 75.0007 149.536 75.234 149.499 75.43H143.353C143.381 76.3073 143.628 76.9653 144.095 77.404C144.571 77.8427 145.149 78.062 145.831 78.062C146.447 78.062 146.96 77.908 147.371 77.6C147.791 77.2827 148.047 76.8627 148.141 76.34H149.499C149.405 76.872 149.195 77.348 148.869 77.768C148.551 78.188 148.136 78.5147 147.623 78.748C147.109 78.9813 146.531 79.098 145.887 79.098C145.149 79.098 144.496 78.9393 143.927 78.622C143.357 78.3047 142.909 77.852 142.583 77.264C142.265 76.6667 142.107 75.9667 142.107 75.164C142.107 74.3613 142.265 73.6613 142.583 73.064C142.909 72.4667 143.357 72.0093 143.927 71.692C144.496 71.3747 145.149 71.216 145.887 71.216C146.633 71.216 147.282 71.3747 147.833 71.692C148.393 72.0093 148.817 72.434 149.107 72.966C149.405 73.498 149.555 74.086 149.555 74.73ZM148.267 74.814C148.295 74.2447 148.201 73.7687 147.987 73.386C147.772 73.0033 147.478 72.7187 147.105 72.532C146.731 72.3453 146.325 72.252 145.887 72.252C145.187 72.252 144.599 72.4713 144.123 72.91C143.647 73.3393 143.39 73.974 143.353 74.814H148.267ZM158.502 71.216C159.183 71.216 159.79 71.3747 160.322 71.692C160.854 72.0093 161.269 72.4667 161.568 73.064C161.876 73.6613 162.03 74.3613 162.03 75.164C162.03 75.9667 161.876 76.6667 161.568 77.264C161.269 77.852 160.854 78.3047 160.322 78.622C159.79 78.9393 159.183 79.098 158.502 79.098C157.755 79.098 157.121 78.9113 156.598 78.538C156.085 78.1553 155.73 77.656 155.534 77.04V82.64H154.26V71.314H155.534V73.274C155.73 72.658 156.085 72.1633 156.598 71.79C157.121 71.4073 157.755 71.216 158.502 71.216ZM158.138 72.35C157.643 72.35 157.195 72.4667 156.794 72.7C156.393 72.924 156.08 73.2507 155.856 73.68C155.632 74.1093 155.52 74.604 155.52 75.164C155.52 75.724 155.632 76.2187 155.856 76.648C156.08 77.068 156.393 77.3947 156.794 77.628C157.195 77.8613 157.643 77.978 158.138 77.978C158.931 77.978 159.561 77.7307 160.028 77.236C160.504 76.732 160.742 76.0413 160.742 75.164C160.742 74.2867 160.504 73.6007 160.028 73.106C159.561 72.602 158.931 72.35 158.138 72.35ZM170.316 71.314V79H169.042V77.194C168.846 77.8193 168.496 78.3 167.992 78.636C167.497 78.9627 166.918 79.126 166.256 79.126C165.369 79.126 164.65 78.8413 164.1 78.272C163.549 77.6933 163.274 76.8673 163.274 75.794V71.314H164.548V75.668C164.548 76.4333 164.744 77.026 165.136 77.446C165.528 77.8567 166.06 78.062 166.732 78.062C167.432 78.062 167.992 77.838 168.412 77.39C168.832 76.9327 169.042 76.27 169.042 75.402V71.314H170.316ZM173.421 72.868C173.673 72.336 174.041 71.9253 174.527 71.636C175.012 71.3373 175.591 71.188 176.263 71.188V72.574H175.871C175.152 72.574 174.564 72.7607 174.107 73.134C173.649 73.498 173.421 74.1047 173.421 74.954V79H172.147V71.314H173.421V72.868ZM180.712 71.216C181.692 71.216 182.504 71.4773 183.148 72C183.792 72.5227 184.188 73.2227 184.338 74.1H182.994C182.9 73.5493 182.644 73.12 182.224 72.812C181.813 72.4947 181.3 72.336 180.684 72.336C180.236 72.336 179.825 72.4387 179.452 72.644C179.088 72.8493 178.794 73.1667 178.57 73.596C178.346 74.016 178.234 74.5387 178.234 75.164C178.234 75.7893 178.346 76.3167 178.57 76.746C178.794 77.166 179.088 77.4787 179.452 77.684C179.825 77.8893 180.236 77.992 180.684 77.992C181.3 77.992 181.813 77.8333 182.224 77.516C182.644 77.1987 182.9 76.7647 182.994 76.214H184.338C184.188 77.1007 183.792 77.8053 183.148 78.328C182.504 78.8413 181.692 79.098 180.712 79.098C179.974 79.098 179.321 78.9393 178.752 78.622C178.182 78.3047 177.734 77.852 177.408 77.264C177.09 76.6667 176.932 75.9667 176.932 75.164C176.932 74.3613 177.09 73.6613 177.408 73.064C177.734 72.4667 178.182 72.0093 178.752 71.692C179.321 71.3747 179.974 71.216 180.712 71.216ZM189.841 71.188C190.737 71.188 191.46 71.4773 192.011 72.056C192.562 72.6253 192.837 73.4513 192.837 74.534V79H191.563V74.646C191.563 73.8807 191.367 73.2927 190.975 72.882C190.583 72.4713 190.051 72.266 189.379 72.266C188.679 72.266 188.119 72.4947 187.699 72.952C187.279 73.4 187.069 74.058 187.069 74.926V79H185.795V68.64H187.069V73.134C187.265 72.5087 187.61 72.028 188.105 71.692C188.609 71.356 189.188 71.188 189.841 71.188ZM197.731 71.216C198.478 71.216 199.108 71.4027 199.621 71.776C200.144 72.1493 200.508 72.6487 200.713 73.274V71.314H201.987V79H200.713V77.04C200.508 77.6653 200.144 78.1647 199.621 78.538C199.108 78.9113 198.478 79.098 197.731 79.098C197.05 79.098 196.443 78.9393 195.911 78.622C195.379 78.3047 194.959 77.852 194.651 77.264C194.352 76.6667 194.203 75.9667 194.203 75.164C194.203 74.3613 194.352 73.6613 194.651 73.064C194.959 72.4667 195.379 72.0093 195.911 71.692C196.443 71.3747 197.05 71.216 197.731 71.216ZM198.095 72.35C197.311 72.35 196.681 72.602 196.205 73.106C195.738 73.6007 195.505 74.2867 195.505 75.164C195.505 76.0413 195.738 76.732 196.205 77.236C196.681 77.7307 197.311 77.978 198.095 77.978C198.599 77.978 199.047 77.8613 199.439 77.628C199.84 77.3947 200.153 77.068 200.377 76.648C200.601 76.2187 200.713 75.724 200.713 75.164C200.713 74.604 200.601 74.1093 200.377 73.68C200.153 73.2507 199.84 72.924 199.439 72.7C199.047 72.4667 198.599 72.35 198.095 72.35ZM206.213 71.216C207.081 71.216 207.776 71.4447 208.299 71.902C208.831 72.35 209.153 72.9567 209.265 73.722H208.047C207.991 73.2647 207.799 72.8913 207.473 72.602C207.155 72.3033 206.726 72.154 206.185 72.154C205.727 72.154 205.368 72.266 205.107 72.49C204.855 72.7047 204.729 72.9987 204.729 73.372C204.729 73.652 204.813 73.8807 204.981 74.058C205.158 74.226 205.373 74.3567 205.625 74.45C205.886 74.534 206.241 74.6273 206.689 74.73C207.258 74.8607 207.715 74.996 208.061 75.136C208.415 75.2667 208.714 75.4813 208.957 75.78C209.209 76.0787 209.335 76.48 209.335 76.984C209.335 77.6093 209.097 78.118 208.621 78.51C208.154 78.902 207.529 79.098 206.745 79.098C205.83 79.098 205.083 78.8787 204.505 78.44C203.926 78.0013 203.585 77.39 203.483 76.606H204.715C204.761 77.0727 204.962 77.4507 205.317 77.74C205.681 78.0293 206.157 78.174 206.745 78.174C207.183 78.174 207.524 78.062 207.767 77.838C208.019 77.614 208.145 77.32 208.145 76.956C208.145 76.6573 208.056 76.4193 207.879 76.242C207.701 76.0647 207.482 75.9293 207.221 75.836C206.959 75.7427 206.6 75.6447 206.143 75.542C205.573 75.4113 205.116 75.2807 204.771 75.15C204.435 75.0193 204.145 74.814 203.903 74.534C203.669 74.2447 203.553 73.8573 203.553 73.372C203.553 72.728 203.791 72.21 204.267 71.818C204.743 71.4167 205.391 71.216 206.213 71.216ZM217.897 74.73C217.897 75.0007 217.878 75.234 217.841 75.43H211.695C211.723 76.3073 211.97 76.9653 212.437 77.404C212.913 77.8427 213.492 78.062 214.173 78.062C214.789 78.062 215.302 77.908 215.713 77.6C216.133 77.2827 216.39 76.8627 216.483 76.34H217.841C217.748 76.872 217.538 77.348 217.211 77.768C216.894 78.188 216.478 78.5147 215.965 78.748C215.452 78.9813 214.873 79.098 214.229 79.098C213.492 79.098 212.838 78.9393 212.269 78.622C211.7 78.3047 211.252 77.852 210.925 77.264C210.608 76.6667 210.449 75.9667 210.449 75.164C210.449 74.3613 210.608 73.6613 210.925 73.064C211.252 72.4667 211.7 72.0093 212.269 71.692C212.838 71.3747 213.492 71.216 214.229 71.216C214.976 71.216 215.624 71.3747 216.175 71.692C216.735 72.0093 217.16 72.434 217.449 72.966C217.748 73.498 217.897 74.086 217.897 74.73ZM216.609 74.814C216.637 74.2447 216.544 73.7687 216.329 73.386C216.114 73.0033 215.82 72.7187 215.447 72.532C215.074 72.3453 214.668 72.252 214.229 72.252C213.529 72.252 212.941 72.4713 212.465 72.91C211.989 73.3393 211.732 73.974 211.695 74.814H216.609Z" fill="white" fill-opacity="0.7"/>
</svg>
