<svg width="30" height="30" viewBox="0 0 30 30" fill="none" xmlns="http://www.w3.org/2000/svg">
<g clip-path="url(#clip0_1_2489)">
<path d="M15.0006 30C23.2845 30 30 23.2846 30 15.0006C30 6.71673 23.2845 0.00128174 15.0006 0.00128174C6.71669 0.00128174 0.00125122 6.71673 0.00125122 15.0006C0.00125122 23.2846 6.71669 30 15.0006 30Z" fill="white"/>
<path d="M29.1424 9.99896H19.9007C20.3019 13.2032 20.3045 16.7338 19.9083 19.9421H29.1624C29.7024 18.3941 29.9996 16.7322 29.9996 15.0001C29.9999 13.2458 29.6957 11.5633 29.1424 9.99896Z" fill="#EFECEC"/>
<path d="M19.9007 9.99895H29.1425C29.1409 9.9942 29.1394 9.99021 29.1378 9.9859C27.218 4.57295 22.28 0.590446 16.3468 0.0617981C18.6429 1.32037 19.3133 5.30787 19.9007 9.99895Z" fill="#E63026"/>
<path d="M16.3471 29.938C22.2908 29.4084 27.2359 25.4122 29.1481 19.9847C29.1531 19.9703 29.1573 19.9561 29.1625 19.9421H19.9082C19.3259 24.6586 18.6525 28.6742 16.3471 29.938Z" fill="#2B479D"/>
<path d="M9.15527e-05 15.0001C9.15527e-05 16.7322 0.297318 18.3941 0.837302 19.9421H20.6806C21.0768 16.7336 21.0743 13.2032 20.673 9.99896H0.857189C0.303904 11.5633 9.15527e-05 13.2458 9.15527e-05 15.0001Z" fill="#EFEFEF"/>
<path d="M0.861539 9.98598C0.859892 9.99023 0.858435 9.99428 0.856789 9.99903H20.6729C20.0855 5.30789 18.6427 1.32045 16.347 0.0618772C15.903 0.0224835 15.4539 0 14.9996 0C8.47446 0 2.92502 4.16769 0.861539 9.98598Z" fill="#E73B36"/>
<path d="M20.6806 19.9421H0.837303C0.842307 19.9561 0.846803 19.9703 0.851743 19.9847C2.90705 25.8179 8.46378 30 14.9997 30C15.454 30 15.903 29.9777 16.3471 29.9379C18.6525 28.6742 20.0982 24.6586 20.6806 19.9421Z" fill="#3757A6"/>
</g>
<defs>
<clipPath id="clip0_1_2489">
<rect width="30" height="30" fill="white"/>
</clipPath>
</defs>
</svg>
