<svg width="63" height="63" viewBox="0 0 63 63" fill="none" xmlns="http://www.w3.org/2000/svg">
<g filter="url(#filter0_b_1_1801)">
<rect width="63" height="63" rx="31.5" fill="url(#paint0_linear_1_1801)" fill-opacity="0.2"/>
</g>
<g filter="url(#filter1_bd_1_1801)">
<mask id="path-2-inside-1_1_1801" fill="white">
<path fill-rule="evenodd" clip-rule="evenodd" d="M38.5654 27.8168C38.707 27.8781 38.8658 27.8863 39.0129 27.8401L46.1362 25.6015C46.1362 25.6015 46.4564 25.3928 46.6468 25.5831C46.8372 25.7735 46.7851 26.0323 46.7851 26.0323L43.5179 40.6931H20.4914L16.3792 26.0029C16.3792 26.0029 16.2782 25.7122 16.3792 25.5831C16.5128 25.4125 16.9335 25.608 16.9335 25.608L23.6585 27.8366C23.8038 27.8848 23.9616 27.8795 24.1033 27.8217C24.2451 27.7639 24.3615 27.6574 24.4317 27.5213L30.6482 15.4591C30.6482 15.4591 30.8121 14.9229 31.5736 14.9229C32.1446 14.9229 32.3296 15.4591 32.3296 15.4591L38.242 27.5066C38.3091 27.6455 38.4239 27.7556 38.5654 27.8168ZM22.0903 41.9543C21.2493 41.9543 20.5674 42.6361 20.5674 43.4772C20.5674 44.3182 21.2493 45.0001 22.0903 45.0001H41.888C42.729 45.0001 43.4109 44.3182 43.4109 43.4772C43.4109 42.6361 42.729 41.9543 41.888 41.9543H22.0903Z"/>
</mask>
<path fill-rule="evenodd" clip-rule="evenodd" d="M38.5654 27.8168C38.707 27.8781 38.8658 27.8863 39.0129 27.8401L46.1362 25.6015C46.1362 25.6015 46.4564 25.3928 46.6468 25.5831C46.8372 25.7735 46.7851 26.0323 46.7851 26.0323L43.5179 40.6931H20.4914L16.3792 26.0029C16.3792 26.0029 16.2782 25.7122 16.3792 25.5831C16.5128 25.4125 16.9335 25.608 16.9335 25.608L23.6585 27.8366C23.8038 27.8848 23.9616 27.8795 24.1033 27.8217C24.2451 27.7639 24.3615 27.6574 24.4317 27.5213L30.6482 15.4591C30.6482 15.4591 30.8121 14.9229 31.5736 14.9229C32.1446 14.9229 32.3296 15.4591 32.3296 15.4591L38.242 27.5066C38.3091 27.6455 38.4239 27.7556 38.5654 27.8168ZM22.0903 41.9543C21.2493 41.9543 20.5674 42.6361 20.5674 43.4772C20.5674 44.3182 21.2493 45.0001 22.0903 45.0001H41.888C42.729 45.0001 43.4109 44.3182 43.4109 43.4772C43.4109 42.6361 42.729 41.9543 41.888 41.9543H22.0903Z" fill="url(#paint1_linear_1_1801)"/>
<path d="M39.0129 27.8401L39.0729 28.031L39.0729 28.0309L39.0129 27.8401ZM38.5654 27.8168L38.486 28.0004H38.486L38.5654 27.8168ZM46.1362 25.6015L46.1962 25.7923L46.2224 25.784L46.2455 25.769L46.1362 25.6015ZM46.6468 25.5831L46.7882 25.4417H46.7882L46.6468 25.5831ZM46.7851 26.0323L46.9804 26.0758L46.9812 26.0717L46.7851 26.0323ZM43.5179 40.6931V40.8931H43.6782L43.7131 40.7366L43.5179 40.6931ZM20.4914 40.6931L20.2988 40.747L20.3397 40.8931H20.4914V40.6931ZM16.3792 26.0029L16.5722 25.9489L16.5682 25.9372L16.3792 26.0029ZM16.3792 25.5831L16.2217 25.4599H16.2217L16.3792 25.5831ZM16.9335 25.608L16.8492 25.7894L16.8596 25.7942L16.8706 25.7978L16.9335 25.608ZM23.6585 27.8366L23.7215 27.6468L23.7214 27.6468L23.6585 27.8366ZM24.1033 27.8217L24.0278 27.6365H24.0278L24.1033 27.8217ZM24.4317 27.5213L24.6094 27.613L24.6095 27.6129L24.4317 27.5213ZM30.6482 15.4591L30.826 15.5507L30.8342 15.5347L30.8394 15.5175L30.6482 15.4591ZM32.3296 15.4591L32.1405 15.5243L32.1445 15.536L32.15 15.5472L32.3296 15.4591ZM38.242 27.5066L38.4221 27.4196L38.4215 27.4185L38.242 27.5066ZM38.953 27.6493C38.8517 27.6811 38.7423 27.6754 38.6448 27.6333L38.486 28.0004C38.6716 28.0807 38.8799 28.0915 39.0729 28.031L38.953 27.6493ZM46.0763 25.4107L38.953 27.6493L39.0729 28.0309L46.1962 25.7923L46.0763 25.4107ZM46.7882 25.4417C46.6166 25.2701 46.3965 25.2927 46.2674 25.328C46.1989 25.3467 46.1402 25.3726 46.0994 25.3932C46.0786 25.4036 46.0617 25.4131 46.0494 25.4202C46.0433 25.4238 46.0383 25.4269 46.0345 25.4292C46.0326 25.4304 46.0311 25.4313 46.0298 25.4321C46.0292 25.4325 46.0286 25.4329 46.0282 25.4332C46.0279 25.4333 46.0277 25.4335 46.0275 25.4336C46.0274 25.4337 46.0273 25.4337 46.0273 25.4338C46.0272 25.4338 46.0272 25.4338 46.0271 25.4339C46.0271 25.4339 46.027 25.4339 46.1362 25.6015C46.2455 25.769 46.2454 25.7691 46.2453 25.7691C46.2453 25.7691 46.2453 25.7691 46.2452 25.7692C46.2452 25.7692 46.2451 25.7692 46.2451 25.7693C46.2449 25.7694 46.2449 25.7694 46.2448 25.7695C46.2446 25.7696 46.2445 25.7696 46.2445 25.7696C46.2445 25.7697 46.2447 25.7695 46.2452 25.7692C46.2463 25.7686 46.2483 25.7673 46.2513 25.7655C46.2573 25.762 46.2669 25.7567 46.2791 25.7505C46.3043 25.7379 46.3375 25.7235 46.3729 25.7138C46.4515 25.6924 46.4866 25.7058 46.5054 25.7245L46.7882 25.4417ZM46.7851 26.0323C46.9812 26.0717 46.9812 26.0716 46.9812 26.0715C46.9813 26.0715 46.9813 26.0714 46.9813 26.0714C46.9813 26.0713 46.9813 26.0711 46.9814 26.071C46.9814 26.0708 46.9815 26.0705 46.9815 26.0702C46.9816 26.0696 46.9817 26.069 46.9819 26.0683C46.9821 26.0669 46.9824 26.0652 46.9828 26.0633C46.9834 26.0594 46.9842 26.0546 46.985 26.0487C46.9867 26.0371 46.9885 26.0216 46.9898 26.0028C46.9924 25.9656 46.9931 25.9142 46.9859 25.8549C46.9714 25.7364 46.9239 25.5774 46.7882 25.4417L46.5054 25.7245C46.56 25.7792 46.5817 25.8447 46.5888 25.9033C46.5924 25.9325 46.592 25.9577 46.5908 25.9749C46.5902 25.9834 46.5894 25.9896 46.589 25.9929C46.5887 25.9945 46.5886 25.9954 46.5886 25.9954C46.5886 25.9954 46.5886 25.9952 46.5887 25.9948C46.5887 25.9946 46.5888 25.9943 46.5888 25.994C46.5889 25.9939 46.5889 25.9937 46.5889 25.9935C46.589 25.9934 46.589 25.9933 46.589 25.9932C46.589 25.9932 46.589 25.9931 46.589 25.993C46.589 25.993 46.5891 25.9929 46.7851 26.0323ZM43.7131 40.7366L46.9803 26.0758L46.5899 25.9888L43.3227 40.6496L43.7131 40.7366ZM20.4914 40.8931H43.5179V40.4931H20.4914V40.8931ZM16.1866 26.0568L20.2988 40.747L20.684 40.6392L16.5718 25.949L16.1866 26.0568ZM16.2217 25.4599C16.1647 25.5328 16.1446 25.6166 16.1377 25.6824C16.1307 25.7498 16.1357 25.8158 16.1434 25.8696C16.1511 25.9243 16.1626 25.9729 16.1719 26.0075C16.1767 26.025 16.181 26.0394 16.1842 26.0498C16.1859 26.0551 16.1872 26.0593 16.1883 26.0624C16.1888 26.064 16.1892 26.0653 16.1896 26.0663C16.1897 26.0669 16.1899 26.0673 16.19 26.0677C16.1901 26.0678 16.1901 26.068 16.1902 26.0682C16.1902 26.0682 16.1902 26.0683 16.1903 26.0684C16.1903 26.0684 16.1903 26.0684 16.1903 26.0685C16.1903 26.0685 16.1903 26.0685 16.3792 26.0029C16.5682 25.9372 16.5682 25.9373 16.5682 25.9373C16.5682 25.9373 16.5682 25.9374 16.5682 25.9374C16.5682 25.9374 16.5682 25.9375 16.5683 25.9375C16.5683 25.9376 16.5683 25.9376 16.5683 25.9377C16.5683 25.9378 16.5684 25.9378 16.5683 25.9378C16.5683 25.9377 16.5682 25.9373 16.568 25.9367C16.5676 25.9356 16.5669 25.9334 16.566 25.9304C16.5641 25.9244 16.5613 25.9151 16.5581 25.9034C16.5517 25.8794 16.5442 25.8474 16.5394 25.8133C16.5344 25.7782 16.5331 25.7474 16.5356 25.7239C16.5382 25.6989 16.5433 25.698 16.5368 25.7064L16.2217 25.4599ZM16.9335 25.608C17.0178 25.4266 17.0177 25.4266 17.0177 25.4266C17.0177 25.4266 17.0176 25.4265 17.0176 25.4265C17.0175 25.4265 17.0174 25.4265 17.0174 25.4264C17.0172 25.4263 17.017 25.4263 17.0168 25.4262C17.0164 25.426 17.0159 25.4257 17.0152 25.4254C17.014 25.4249 17.0123 25.4241 17.0103 25.4232C17.0062 25.4214 17.0005 25.4189 16.9935 25.4159C16.9796 25.41 16.96 25.4019 16.9362 25.393C16.8893 25.3753 16.8233 25.3529 16.7505 25.3365C16.6797 25.3205 16.5911 25.3074 16.5028 25.316C16.4143 25.3246 16.3014 25.3581 16.2217 25.4599L16.5368 25.7064C16.5239 25.7228 16.5136 25.7168 16.5415 25.7141C16.5697 25.7113 16.6113 25.7151 16.6623 25.7266C16.7114 25.7377 16.7589 25.7536 16.7951 25.7672C16.8129 25.7739 16.8272 25.7798 16.8368 25.7839C16.8415 25.7859 16.8451 25.7875 16.8472 25.7885C16.8483 25.7889 16.849 25.7893 16.8493 25.7894C16.8495 25.7895 16.8496 25.7895 16.8496 25.7895C16.8495 25.7895 16.8495 25.7895 16.8495 25.7895C16.8494 25.7895 16.8494 25.7894 16.8493 25.7894C16.8493 25.7894 16.8493 25.7894 16.8493 25.7894C16.8492 25.7894 16.8492 25.7894 16.9335 25.608ZM23.7214 27.6468L16.9964 25.4181L16.8706 25.7978L23.5956 28.0265L23.7214 27.6468ZM24.0278 27.6365C23.9302 27.6763 23.8215 27.68 23.7215 27.6468L23.5956 28.0265C23.7861 28.0897 23.993 28.0827 24.1788 28.0069L24.0278 27.6365ZM24.2539 27.4296C24.2056 27.5233 24.1254 27.5967 24.0278 27.6365L24.1788 28.0069C24.3647 27.9311 24.5174 27.7914 24.6094 27.613L24.2539 27.4296ZM30.4704 15.3674L24.2539 27.4297L24.6095 27.6129L30.826 15.5507L30.4704 15.3674ZM31.5736 14.7229C31.1401 14.7229 30.8584 14.8777 30.685 15.0484C30.6004 15.1318 30.5448 15.2156 30.5099 15.2799C30.4924 15.3122 30.4799 15.3398 30.4715 15.3606C30.4672 15.371 30.464 15.3797 30.4616 15.3865C30.4604 15.3898 30.4594 15.3927 30.4587 15.3951C30.4583 15.3963 30.4579 15.3973 30.4577 15.3982C30.4575 15.3987 30.4574 15.3991 30.4572 15.3995C30.4572 15.3997 30.4571 15.3999 30.4571 15.4001C30.457 15.4002 30.457 15.4003 30.457 15.4004C30.457 15.4005 30.4569 15.4006 30.6482 15.4591C30.8394 15.5175 30.8394 15.5177 30.8394 15.5178C30.8394 15.5178 30.8393 15.5179 30.8393 15.518C30.8393 15.5181 30.8392 15.5183 30.8392 15.5184C30.8391 15.5187 30.839 15.5189 30.839 15.5191C30.8388 15.5195 30.8387 15.5198 30.8387 15.52C30.8386 15.5203 30.8386 15.5202 30.8388 15.5196C30.8392 15.5185 30.8402 15.5157 30.8419 15.5114C30.8454 15.5029 30.8517 15.4887 30.8615 15.4706C30.8811 15.4344 30.9141 15.3842 30.9656 15.3335C31.0645 15.2361 31.2456 15.1229 31.5736 15.1229V14.7229ZM32.3296 15.4591C32.5186 15.3939 32.5186 15.3938 32.5186 15.3937C32.5186 15.3936 32.5185 15.3936 32.5185 15.3935C32.5185 15.3934 32.5184 15.3932 32.5184 15.3931C32.5182 15.3928 32.5181 15.3924 32.518 15.3921C32.5177 15.3913 32.5174 15.3904 32.5171 15.3894C32.5163 15.3875 32.5154 15.3849 32.5143 15.3819C32.512 15.376 32.5089 15.368 32.5048 15.3584C32.4968 15.3393 32.485 15.3133 32.469 15.2827C32.4373 15.2219 32.3878 15.1408 32.3161 15.0591C32.1707 14.8934 31.9305 14.7229 31.5736 14.7229V15.1229C31.7877 15.1229 31.9255 15.2205 32.0154 15.3229C32.0613 15.3752 32.0937 15.4281 32.1145 15.4679C32.1248 15.4876 32.1319 15.5035 32.1362 15.5136C32.1383 15.5187 32.1397 15.5223 32.1404 15.5242C32.1408 15.5251 32.1409 15.5256 32.141 15.5256C32.141 15.5256 32.1409 15.5255 32.1408 15.5253C32.1408 15.5252 32.1408 15.5251 32.1407 15.5249C32.1407 15.5248 32.1406 15.5247 32.1406 15.5246C32.1406 15.5246 32.1406 15.5245 32.1405 15.5244C32.1405 15.5244 32.1405 15.5243 32.3296 15.4591ZM38.4215 27.4185L32.5091 15.371L32.15 15.5472L38.0624 27.5947L38.4215 27.4185ZM38.6448 27.6333C38.5473 27.5911 38.4683 27.5153 38.4221 27.4196L38.0619 27.5936C38.1499 27.7757 38.3004 27.9201 38.486 28.0004L38.6448 27.6333ZM20.7674 43.4772C20.7674 42.7466 21.3597 42.1543 22.0903 42.1543V41.7543C21.1388 41.7543 20.3674 42.5256 20.3674 43.4772H20.7674ZM22.0903 44.8001C21.3597 44.8001 20.7674 44.2078 20.7674 43.4772H20.3674C20.3674 44.4287 21.1388 45.2001 22.0903 45.2001V44.8001ZM41.888 44.8001H22.0903V45.2001H41.888V44.8001ZM43.2109 43.4772C43.2109 44.2078 42.6186 44.8001 41.888 44.8001V45.2001C42.8395 45.2001 43.6109 44.4287 43.6109 43.4772H43.2109ZM41.888 42.1543C42.6186 42.1543 43.2109 42.7466 43.2109 43.4772H43.6109C43.6109 42.5256 42.8395 41.7543 41.888 41.7543V42.1543ZM22.0903 42.1543H41.888V41.7543H22.0903V42.1543Z" fill="url(#paint2_linear_1_1801)" mask="url(#path-2-inside-1_1_1801)"/>
</g>
<defs>
<filter id="filter0_b_1_1801" x="-25" y="-25" width="113" height="113" filterUnits="userSpaceOnUse" color-interpolation-filters="sRGB">
<feFlood flood-opacity="0" result="BackgroundImageFix"/>
<feGaussianBlur in="BackgroundImageFix" stdDeviation="12.5"/>
<feComposite in2="SourceAlpha" operator="in" result="effect1_backgroundBlur_1_1801"/>
<feBlend mode="normal" in="SourceGraphic" in2="effect1_backgroundBlur_1_1801" result="shape"/>
</filter>
<filter id="filter1_bd_1_1801" x="-8.66565" y="-10.0771" width="80.4573" height="80.0772" filterUnits="userSpaceOnUse" color-interpolation-filters="sRGB">
<feFlood flood-opacity="0" result="BackgroundImageFix"/>
<feGaussianBlur in="BackgroundImageFix" stdDeviation="12.5"/>
<feComposite in2="SourceAlpha" operator="in" result="effect1_backgroundBlur_1_1801"/>
<feColorMatrix in="SourceAlpha" type="matrix" values="0 0 0 0 0 0 0 0 0 0 0 0 0 0 0 0 0 0 127 0" result="hardAlpha"/>
<feOffset dx="5" dy="5"/>
<feGaussianBlur stdDeviation="5"/>
<feColorMatrix type="matrix" values="0 0 0 0 0.0588235 0 0 0 0 0.388235 0 0 0 0 1 0 0 0 0.3 0"/>
<feBlend mode="normal" in2="effect1_backgroundBlur_1_1801" result="effect2_dropShadow_1_1801"/>
<feBlend mode="normal" in="SourceGraphic" in2="effect2_dropShadow_1_1801" result="shape"/>
</filter>
<linearGradient id="paint0_linear_1_1801" x1="12" y1="10.5" x2="53.5" y2="70" gradientUnits="userSpaceOnUse">
<stop stop-color="white"/>
<stop offset="1" stop-color="white" stop-opacity="0"/>
</linearGradient>
<linearGradient id="paint1_linear_1_1801" x1="21" y1="20.5001" x2="42.7302" y2="45.7446" gradientUnits="userSpaceOnUse">
<stop stop-color="white"/>
<stop offset="1" stop-color="white" stop-opacity="0.2"/>
</linearGradient>
<linearGradient id="paint2_linear_1_1801" x1="27.5027" y1="22.3684" x2="42.3939" y2="48.4279" gradientUnits="userSpaceOnUse">
<stop stop-color="white"/>
<stop offset="1" stop-color="white" stop-opacity="0"/>
</linearGradient>
</defs>
</svg>
