<svg width="20" height="20" viewBox="0 0 20 20" fill="none" xmlns="http://www.w3.org/2000/svg">
<path d="M18.5417 15.8334H16.0417C15.6967 15.8334 15.4167 15.5534 15.4167 15.2084V4.79169C15.4167 4.44669 15.6967 4.16669 16.0417 4.16669H18.5417C18.8867 4.16669 19.1667 4.44669 19.1667 4.79169V15.2084C19.1667 15.5534 18.8867 15.8334 18.5417 15.8334Z" fill="#852BFF"/>
<path d="M13.5417 15.8334H11.0417C10.6967 15.8334 10.4167 15.5534 10.4167 15.2084V6.45837C10.4167 6.11337 10.6967 5.83337 11.0417 5.83337H13.5417C13.8867 5.83337 14.1667 6.11337 14.1667 6.45837V15.2084C14.1667 15.5534 13.8867 15.8334 13.5417 15.8334Z" fill="#852BFF" fill-opacity="0.85"/>
<path d="M8.54169 15.8333H6.04169C5.69669 15.8333 5.41669 15.5533 5.41669 15.2083V8.95831C5.41669 8.61331 5.69669 8.33331 6.04169 8.33331H8.54169C8.88669 8.33331 9.16669 8.61331 9.16669 8.95831V15.2083C9.16669 15.5533 8.88669 15.8333 8.54169 15.8333Z" fill="#852BFF" fill-opacity="0.7"/>
<path d="M3.54169 15.8333H1.04169C0.696687 15.8333 0.416687 15.5533 0.416687 15.2083V11.4583C0.416687 11.1133 0.696687 10.8333 1.04169 10.8333H3.54169C3.88669 10.8333 4.16669 11.1133 4.16669 11.4583V15.2083C4.16669 15.5533 3.88669 15.8333 3.54169 15.8333Z" fill="#6A37FF" fill-opacity="0.4"/>
</svg>
