<svg width="41" height="40" viewBox="0 0 41 40" fill="none" xmlns="http://www.w3.org/2000/svg">
<g filter="url(#filter0_bd_4_5927)">
<mask id="path-1-inside-1_4_5927" fill="white">
<path fill-rule="evenodd" clip-rule="evenodd" d="M25.0985 16.8169C25.9024 15.4246 25.9024 13.7092 25.0985 12.3169L22.1732 7.25C21.3693 5.8577 19.8838 5 18.2761 5H12.4254C10.8177 5 9.33209 5.85769 8.52824 7.25L5.60289 12.3169C4.79904 13.7092 4.79904 15.4246 5.60288 16.8169L8.52824 21.8837C9.33209 23.276 10.8177 24.1337 12.4254 24.1337L18.2761 24.1337C19.8838 24.1337 21.3693 23.276 22.1732 21.8837L25.0985 16.8169ZM18.7971 16.4486C19.4933 15.2428 19.4933 13.7572 18.7971 12.5514C18.101 11.3457 16.8144 10.6029 15.4221 10.6029C14.0298 10.6029 12.7433 11.3457 12.0471 12.5514C11.351 13.7572 11.351 15.2428 12.0471 16.4486C12.7433 17.6543 14.0298 18.3971 15.4221 18.3971C16.8144 18.3971 18.101 17.6543 18.7971 16.4486Z"/>
</mask>
<path fill-rule="evenodd" clip-rule="evenodd" d="M25.0985 16.8169C25.9024 15.4246 25.9024 13.7092 25.0985 12.3169L22.1732 7.25C21.3693 5.8577 19.8838 5 18.2761 5H12.4254C10.8177 5 9.33209 5.85769 8.52824 7.25L5.60289 12.3169C4.79904 13.7092 4.79904 15.4246 5.60288 16.8169L8.52824 21.8837C9.33209 23.276 10.8177 24.1337 12.4254 24.1337L18.2761 24.1337C19.8838 24.1337 21.3693 23.276 22.1732 21.8837L25.0985 16.8169ZM18.7971 16.4486C19.4933 15.2428 19.4933 13.7572 18.7971 12.5514C18.101 11.3457 16.8144 10.6029 15.4221 10.6029C14.0298 10.6029 12.7433 11.3457 12.0471 12.5514C11.351 13.7572 11.351 15.2428 12.0471 16.4486C12.7433 17.6543 14.0298 18.3971 15.4221 18.3971C16.8144 18.3971 18.101 17.6543 18.7971 16.4486Z" fill="url(#paint0_linear_4_5927)"/>
<path d="M25.0985 12.3169L25.2717 12.2169L25.0985 12.3169ZM25.0985 16.8169L25.2717 16.9169L25.0985 16.8169ZM22.1732 7.25L22.3464 7.15V7.15L22.1732 7.25ZM8.52824 7.25L8.70145 7.35L8.52824 7.25ZM5.60289 12.3169L5.77609 12.4169L5.60289 12.3169ZM5.60288 16.8169L5.42968 16.9169H5.42968L5.60288 16.8169ZM8.52824 21.8837L8.70145 21.7837L8.52824 21.8837ZM12.4254 24.1337V23.9337V24.1337ZM18.2761 24.1337V24.3337V24.1337ZM22.1732 21.8837L22.3464 21.9837L22.1732 21.8837ZM18.7971 12.5514L18.9703 12.4514H18.9703L18.7971 12.5514ZM15.4221 10.6029V10.8029V10.6029ZM12.0471 12.5514L12.2203 12.6514L12.0471 12.5514ZM12.0471 16.4486L12.2203 16.3486L12.0471 16.4486ZM24.9253 12.4169C25.6934 13.7473 25.6934 15.3864 24.9253 16.7169L25.2717 16.9169C26.1113 15.4627 26.1113 13.6711 25.2717 12.2169L24.9253 12.4169ZM22 7.35L24.9253 12.4169L25.2717 12.2169L22.3464 7.15L22 7.35ZM18.2761 5.2C19.8123 5.2 21.2318 6.01958 22 7.35L22.3464 7.15C21.5068 5.69582 19.9552 4.8 18.2761 4.8V5.2ZM12.4254 5.2H18.2761V4.8H12.4254V5.2ZM8.70145 7.35C9.46957 6.01957 10.8891 5.2 12.4254 5.2V4.8C10.7462 4.8 9.19461 5.69581 8.35504 7.15L8.70145 7.35ZM5.77609 12.4169L8.70145 7.35L8.35504 7.15L5.42968 12.2169L5.77609 12.4169ZM5.77609 16.7169C5.00797 15.3864 5.00797 13.7473 5.77609 12.4169L5.42968 12.2169C4.59011 13.671 4.59011 15.4627 5.42968 16.9169L5.77609 16.7169ZM8.70145 21.7837L5.77609 16.7169L5.42968 16.9169L8.35504 21.9837L8.70145 21.7837ZM12.4254 23.9337C10.8891 23.9337 9.46957 23.1141 8.70145 21.7837L8.35503 21.9837C9.19461 23.4379 10.7462 24.3337 12.4254 24.3337V23.9337ZM18.2761 23.9337L12.4254 23.9337V24.3337L18.2761 24.3337V23.9337ZM22 21.7837C21.2318 23.1142 19.8123 23.9337 18.2761 23.9337V24.3337C19.9552 24.3337 21.5068 23.4379 22.3464 21.9837L22 21.7837ZM24.9253 16.7169L22 21.7837L22.3464 21.9837L25.2717 16.9169L24.9253 16.7169ZM18.6239 12.6514C19.2843 13.7953 19.2843 15.2047 18.6239 16.3486L18.9703 16.5486C19.7022 15.2809 19.7022 13.7191 18.9703 12.4514L18.6239 12.6514ZM15.4221 10.8029C16.743 10.8029 17.9635 11.5076 18.6239 12.6514L18.9703 12.4514C18.2384 11.1838 16.8859 10.4029 15.4221 10.4029V10.8029ZM12.2203 12.6514C12.8808 11.5076 14.1013 10.8029 15.4221 10.8029V10.4029C13.9584 10.4029 12.6058 11.1838 11.8739 12.4514L12.2203 12.6514ZM12.2203 16.3486C11.5599 15.2047 11.5599 13.7953 12.2203 12.6514L11.8739 12.4514C11.142 13.7191 11.142 15.2809 11.8739 16.5486L12.2203 16.3486ZM15.4221 18.1971C14.1013 18.1971 12.8808 17.4924 12.2203 16.3486L11.8739 16.5486C12.6058 17.8162 13.9584 18.5971 15.4221 18.5971V18.1971ZM18.6239 16.3486C17.9635 17.4924 16.743 18.1971 15.4221 18.1971V18.5971C16.8859 18.5971 18.2384 17.8162 18.9703 16.5486L18.6239 16.3486Z" fill="url(#paint1_linear_4_5927)" mask="url(#path-1-inside-1_4_5927)"/>
</g>
<defs>
<filter id="filter0_bd_4_5927" x="-20" y="-20" width="70.7014" height="69.1337" filterUnits="userSpaceOnUse" color-interpolation-filters="sRGB">
<feFlood flood-opacity="0" result="BackgroundImageFix"/>
<feGaussianBlur in="BackgroundImageFix" stdDeviation="12.5"/>
<feComposite in2="SourceAlpha" operator="in" result="effect1_backgroundBlur_4_5927"/>
<feColorMatrix in="SourceAlpha" type="matrix" values="0 0 0 0 0 0 0 0 0 0 0 0 0 0 0 0 0 0 127 0" result="hardAlpha"/>
<feOffset dx="5" dy="5"/>
<feGaussianBlur stdDeviation="5"/>
<feColorMatrix type="matrix" values="0 0 0 0 0 0 0 0 0 0 0 0 0 0 0 0 0 0 0.1 0"/>
<feBlend mode="normal" in2="effect1_backgroundBlur_4_5927" result="effect2_dropShadow_4_5927"/>
<feBlend mode="normal" in="SourceGraphic" in2="effect2_dropShadow_4_5927" result="shape"/>
</filter>
<linearGradient id="paint0_linear_4_5927" x1="8.92215" y1="7" x2="24.4221" y2="24" gradientUnits="userSpaceOnUse">
<stop stop-color="white"/>
<stop offset="1" stop-color="white" stop-opacity="0.2"/>
</linearGradient>
<linearGradient id="paint1_linear_4_5927" x1="15.3507" y1="5" x2="15.3507" y2="24.1337" gradientUnits="userSpaceOnUse">
<stop stop-color="white"/>
<stop offset="1" stop-color="white" stop-opacity="0"/>
</linearGradient>
</defs>
</svg>
