<svg width="40" height="40" viewBox="0 0 40 40" fill="none" xmlns="http://www.w3.org/2000/svg">
<g filter="url(#filter0_bd_4_5959)">
<mask id="path-1-inside-1_4_5959" fill="white">
<path fill-rule="evenodd" clip-rule="evenodd" d="M19.5982 13.5739C19.6911 13.6146 19.7954 13.6201 19.8921 13.5894L24.5696 12.1008C24.5696 12.1008 24.7799 11.962 24.9049 12.0886C25.0299 12.2152 24.9957 12.3873 24.9957 12.3873L22.8503 22.136H7.72977L5.02948 12.3677C5.02948 12.3677 4.96315 12.1745 5.02948 12.0886C5.11715 11.9751 5.39342 12.1051 5.39342 12.1051L9.80947 13.5871C9.90489 13.6191 10.0085 13.6156 10.1015 13.5772C10.1946 13.5387 10.2711 13.4679 10.3172 13.3774L14.3993 5.35656C14.3993 5.35656 14.5069 5 15.0069 5C15.3819 5 15.5034 5.35656 15.5034 5.35656L19.3858 13.3676C19.4299 13.46 19.5052 13.5332 19.5982 13.5739ZM8.79234 22.9747C8.23306 22.9747 7.77968 23.4281 7.77968 23.9873C7.77968 24.5466 8.23306 25 8.79234 25H21.7673C22.3266 25 22.78 24.5466 22.78 23.9873C22.78 23.4281 22.3266 22.9747 21.7673 22.9747H8.79234Z"/>
</mask>
<path fill-rule="evenodd" clip-rule="evenodd" d="M19.5982 13.5739C19.6911 13.6146 19.7954 13.6201 19.8921 13.5894L24.5696 12.1008C24.5696 12.1008 24.7799 11.962 24.9049 12.0886C25.0299 12.2152 24.9957 12.3873 24.9957 12.3873L22.8503 22.136H7.72977L5.02948 12.3677C5.02948 12.3677 4.96315 12.1745 5.02948 12.0886C5.11715 11.9751 5.39342 12.1051 5.39342 12.1051L9.80947 13.5871C9.90489 13.6191 10.0085 13.6156 10.1015 13.5772C10.1946 13.5387 10.2711 13.4679 10.3172 13.3774L14.3993 5.35656C14.3993 5.35656 14.5069 5 15.0069 5C15.3819 5 15.5034 5.35656 15.5034 5.35656L19.3858 13.3676C19.4299 13.46 19.5052 13.5332 19.5982 13.5739ZM8.79234 22.9747C8.23306 22.9747 7.77968 23.4281 7.77968 23.9873C7.77968 24.5466 8.23306 25 8.79234 25H21.7673C22.3266 25 22.78 24.5466 22.78 23.9873C22.78 23.4281 22.3266 22.9747 21.7673 22.9747H8.79234Z" fill="url(#paint0_linear_4_5959)"/>
<path d="M19.8921 13.5894L19.9527 13.78L19.9527 13.78L19.8921 13.5894ZM19.5982 13.5739L19.5179 13.7571L19.5179 13.7571L19.5982 13.5739ZM24.5696 12.1008L24.6303 12.2914L24.6567 12.283L24.6798 12.2677L24.5696 12.1008ZM24.9049 12.0886L24.7626 12.2291L24.7626 12.2291L24.9049 12.0886ZM24.9957 12.3873L25.1911 12.4303L25.1919 12.4262L24.9957 12.3873ZM22.8503 22.136V22.336H23.011L23.0456 22.179L22.8503 22.136ZM7.72977 22.136L7.537 22.1893L7.57756 22.336H7.72977V22.136ZM5.02948 12.3677L5.22261 12.3143L5.21865 12.3028L5.02948 12.3677ZM5.02948 12.0886L4.87121 11.9663H4.87121L5.02948 12.0886ZM5.39342 12.1051L5.30827 12.2861L5.31878 12.291L5.3298 12.2947L5.39342 12.1051ZM9.80947 13.5871L9.87313 13.3975L9.8731 13.3975L9.80947 13.5871ZM10.1015 13.5772L10.0252 13.3923H10.0252L10.1015 13.5772ZM10.3172 13.3774L10.4954 13.4682L10.4954 13.4681L10.3172 13.3774ZM14.3993 5.35656L14.5775 5.44728L14.5856 5.43141L14.5907 5.41436L14.3993 5.35656ZM15.5034 5.35656L15.3141 5.42104L15.318 5.4327L15.3234 5.44378L15.5034 5.35656ZM19.3858 13.3676L19.5663 13.2815L19.5658 13.2804L19.3858 13.3676ZM19.8315 13.3988C19.7812 13.4148 19.7269 13.412 19.6784 13.3907L19.5179 13.7571C19.6553 13.8173 19.8097 13.8255 19.9527 13.78L19.8315 13.3988ZM24.509 11.9102L19.8314 13.3988L19.9527 13.78L24.6303 12.2914L24.509 11.9102ZM25.0472 11.9481C24.9082 11.8073 24.731 11.8285 24.637 11.8545C24.5862 11.8685 24.5432 11.8879 24.5137 11.9029C24.4986 11.9106 24.4861 11.9176 24.477 11.923C24.4725 11.9257 24.4687 11.928 24.4657 11.9299C24.4642 11.9308 24.463 11.9316 24.4619 11.9323C24.4614 11.9326 24.4609 11.9329 24.4605 11.9332C24.4603 11.9333 24.4601 11.9335 24.4599 11.9336C24.4599 11.9336 24.4598 11.9337 24.4597 11.9337C24.4596 11.9338 24.4596 11.9338 24.4596 11.9338C24.4595 11.9339 24.4594 11.9339 24.5696 12.1008C24.6798 12.2677 24.6798 12.2678 24.6797 12.2678C24.6797 12.2678 24.6796 12.2678 24.6796 12.2679C24.6795 12.2679 24.6795 12.268 24.6794 12.268C24.6793 12.2681 24.6792 12.2682 24.679 12.2682C24.6788 12.2684 24.6787 12.2685 24.6786 12.2685C24.6783 12.2687 24.6782 12.2687 24.6783 12.2687C24.6785 12.2686 24.6794 12.268 24.6808 12.2672C24.6837 12.2655 24.6886 12.2627 24.6952 12.2593C24.709 12.2523 24.7264 12.2448 24.7437 12.24C24.7861 12.2283 24.7766 12.2433 24.7626 12.2291L25.0472 11.9481ZM24.9957 12.3873C25.1919 12.4262 25.1919 12.4261 25.1919 12.4261C25.1919 12.426 25.192 12.4259 25.192 12.4259C25.192 12.4258 25.192 12.4257 25.192 12.4255C25.1921 12.4253 25.1921 12.4251 25.1922 12.4248C25.1923 12.4243 25.1924 12.4237 25.1925 12.4231C25.1927 12.4219 25.193 12.4204 25.1933 12.4189C25.1938 12.4157 25.1944 12.4118 25.195 12.4072C25.1963 12.3981 25.1977 12.3863 25.1986 12.3722C25.2006 12.3442 25.2011 12.3058 25.1958 12.2615C25.1851 12.1732 25.1498 12.052 25.0472 11.9481L24.7626 12.2291C24.785 12.2518 24.7951 12.2799 24.7986 12.3093C24.8004 12.3238 24.8002 12.3364 24.7996 12.3447C24.7993 12.3486 24.799 12.3512 24.7989 12.352C24.7988 12.3524 24.7988 12.3524 24.7989 12.3518C24.799 12.3515 24.799 12.3511 24.7992 12.3505C24.7992 12.3502 24.7993 12.3499 24.7993 12.3495C24.7994 12.3493 24.7994 12.3492 24.7994 12.349C24.7995 12.3489 24.7995 12.3488 24.7995 12.3487C24.7995 12.3486 24.7995 12.3485 24.7995 12.3485C24.7995 12.3484 24.7996 12.3483 24.9957 12.3873ZM23.0456 22.179L25.1911 12.4303L24.8004 12.3443L22.6549 22.0931L23.0456 22.179ZM7.72977 22.336H22.8503V21.936H7.72977V22.336ZM4.83671 12.421L7.537 22.1893L7.92254 22.0828L5.22225 12.3144L4.83671 12.421ZM4.87121 11.9663C4.82327 12.0284 4.80772 12.0977 4.80255 12.1479C4.79721 12.1998 4.80111 12.2494 4.80655 12.2882C4.81212 12.3279 4.8203 12.3629 4.82689 12.3876C4.83023 12.4002 4.83331 12.4106 4.83567 12.4183C4.83685 12.4221 4.83786 12.4253 4.83865 12.4277C4.83905 12.4289 4.83939 12.4299 4.83966 12.4307C4.8398 12.4312 4.83993 12.4315 4.84004 12.4318C4.84009 12.432 4.84014 12.4321 4.84019 12.4323C4.84021 12.4323 4.84023 12.4324 4.84025 12.4325C4.84026 12.4325 4.84028 12.4325 4.84028 12.4326C4.8403 12.4326 4.84031 12.4326 5.02948 12.3677C5.21865 12.3028 5.21866 12.3028 5.21868 12.3029C5.21868 12.3029 5.21869 12.3029 5.2187 12.303C5.21872 12.303 5.21874 12.3031 5.21875 12.3031C5.21878 12.3032 5.21881 12.3033 5.21883 12.3033C5.21887 12.3035 5.2189 12.3035 5.21892 12.3036C5.21895 12.3037 5.21893 12.3036 5.21885 12.3034C5.2187 12.3029 5.21835 12.3019 5.21785 12.3002C5.21684 12.297 5.21525 12.2916 5.21342 12.2847C5.20964 12.2705 5.20538 12.2519 5.20266 12.2325C5.19981 12.2122 5.19957 12.1974 5.20044 12.1889C5.20149 12.1788 5.20252 12.1918 5.18775 12.2109L4.87121 11.9663ZM5.39342 12.1051C5.47858 11.9242 5.47854 11.9241 5.47849 11.9241C5.47848 11.9241 5.47843 11.9241 5.4784 11.9241C5.47834 11.9241 5.47827 11.924 5.4782 11.924C5.47806 11.9239 5.4779 11.9238 5.47772 11.9238C5.47736 11.9236 5.47694 11.9234 5.47644 11.9232C5.47546 11.9227 5.4742 11.9221 5.47269 11.9215C5.46966 11.9201 5.4656 11.9183 5.46061 11.9161C5.45066 11.9118 5.43688 11.9061 5.42024 11.8998C5.38757 11.8873 5.34095 11.8713 5.28895 11.8594C5.23897 11.8479 5.1724 11.8375 5.10371 11.8443C5.03456 11.8511 4.9391 11.8785 4.87121 11.9663L5.18775 12.2109C5.16369 12.242 5.13565 12.2431 5.14295 12.2423C5.15072 12.2416 5.16966 12.2424 5.19971 12.2493C5.22773 12.2557 5.25566 12.2651 5.27753 12.2734C5.28816 12.2775 5.29665 12.281 5.30216 12.2834C5.30489 12.2846 5.30685 12.2855 5.30791 12.2859C5.30845 12.2862 5.30875 12.2863 5.30882 12.2864C5.30885 12.2864 5.30882 12.2864 5.30873 12.2863C5.30869 12.2863 5.30863 12.2863 5.30855 12.2862C5.30851 12.2862 5.30847 12.2862 5.30842 12.2862C5.3084 12.2862 5.30836 12.2861 5.30835 12.2861C5.30831 12.2861 5.30827 12.2861 5.39342 12.1051ZM9.8731 13.3975L5.45705 11.9155L5.3298 12.2947L9.74584 13.7767L9.8731 13.3975ZM10.0252 13.3923C9.97667 13.4124 9.92281 13.4142 9.87313 13.3975L9.74581 13.7767C9.88697 13.8241 10.0403 13.8189 10.1779 13.762L10.0252 13.3923ZM10.139 13.2866C10.1143 13.335 10.0738 13.3722 10.0252 13.3923L10.1779 13.762C10.3155 13.7052 10.4279 13.6008 10.4954 13.4682L10.139 13.2866ZM14.221 5.26585L10.1389 13.2867L10.4954 13.4681L14.5775 5.44728L14.221 5.26585ZM15.0069 4.8C14.7034 4.8 14.5009 4.91055 14.3744 5.03664C14.3133 5.0976 14.273 5.15899 14.2476 5.20642C14.2349 5.23021 14.2257 5.25083 14.2193 5.26663C14.2161 5.27455 14.2136 5.28131 14.2118 5.28672C14.2108 5.28942 14.21 5.29179 14.2094 5.29381C14.209 5.29481 14.2088 5.29573 14.2085 5.29656C14.2084 5.29697 14.2082 5.29736 14.2081 5.29773C14.2081 5.29791 14.208 5.29809 14.208 5.29826C14.2079 5.29835 14.2079 5.29847 14.2079 5.29851C14.2079 5.29864 14.2078 5.29876 14.3993 5.35656C14.5907 5.41436 14.5907 5.41448 14.5907 5.4146C14.5907 5.41464 14.5906 5.41475 14.5906 5.41483C14.5906 5.41498 14.5905 5.41512 14.5905 5.41526C14.5904 5.41555 14.5903 5.41581 14.5902 5.41605C14.5901 5.41653 14.5899 5.41694 14.5898 5.41727C14.5896 5.41794 14.5895 5.4183 14.5895 5.4184C14.5894 5.41858 14.5897 5.41768 14.5904 5.41585C14.5919 5.41215 14.5951 5.40491 14.6002 5.39528C14.6106 5.37585 14.6285 5.3481 14.6568 5.31992C14.7092 5.26773 14.8105 5.2 15.0069 5.2V4.8ZM15.5034 5.35656C15.6927 5.29209 15.6927 5.292 15.6926 5.29191C15.6926 5.29188 15.6926 5.29178 15.6926 5.29172C15.6925 5.29159 15.6925 5.29146 15.6924 5.29132C15.6923 5.29104 15.6922 5.29074 15.6921 5.29042C15.6919 5.28977 15.6916 5.28903 15.6913 5.28821C15.6907 5.28656 15.69 5.28456 15.6891 5.28223C15.6874 5.27758 15.6851 5.2716 15.6821 5.26447C15.6762 5.25026 15.6677 5.2313 15.6563 5.20916C15.6337 5.16529 15.5983 5.10663 15.5469 5.04732C15.4423 4.92654 15.2669 4.8 15.0069 4.8V5.2C15.122 5.2 15.1948 5.25174 15.2446 5.30925C15.2705 5.33907 15.2889 5.36955 15.3008 5.39254C15.3066 5.40383 15.3105 5.41272 15.3127 5.41801C15.3138 5.42063 15.3145 5.42231 15.3147 5.42288C15.3148 5.42317 15.3148 5.42317 15.3147 5.42287C15.3146 5.42272 15.3146 5.42249 15.3144 5.42219C15.3144 5.42204 15.3143 5.42186 15.3143 5.42167C15.3142 5.42158 15.3142 5.42148 15.3142 5.42137C15.3141 5.42132 15.3141 5.42123 15.3141 5.42121C15.3141 5.42112 15.3141 5.42104 15.5034 5.35656ZM19.5658 13.2804L15.6834 5.26934L15.3234 5.44378L19.2058 13.4549L19.5658 13.2804ZM19.6784 13.3907C19.6299 13.3695 19.5899 13.3309 19.5663 13.2815L19.2053 13.4538C19.2698 13.5891 19.3806 13.6969 19.5179 13.7571L19.6784 13.3907ZM7.97968 23.9873C7.97968 23.5385 8.34352 23.1747 8.79234 23.1747V22.7747C8.1226 22.7747 7.57968 23.3176 7.57968 23.9873H7.97968ZM8.79234 24.8C8.34352 24.8 7.97968 24.4362 7.97968 23.9873H7.57968C7.57968 24.6571 8.1226 25.2 8.79234 25.2V24.8ZM21.7673 24.8H8.79234V25.2H21.7673V24.8ZM22.58 23.9873C22.58 24.4362 22.2161 24.8 21.7673 24.8V25.2C22.4371 25.2 22.98 24.6571 22.98 23.9873H22.58ZM21.7673 23.1747C22.2161 23.1747 22.58 23.5385 22.58 23.9873H22.98C22.98 23.3176 22.4371 22.7747 21.7673 22.7747V23.1747ZM8.79234 23.1747H21.7673V22.7747H8.79234V23.1747Z" fill="url(#paint1_linear_4_5959)" mask="url(#path-1-inside-1_4_5959)"/>
</g>
<defs>
<filter id="filter0_bd_4_5959" x="-20" y="-20" width="70" height="70" filterUnits="userSpaceOnUse" color-interpolation-filters="sRGB">
<feFlood flood-opacity="0" result="BackgroundImageFix"/>
<feGaussianBlur in="BackgroundImageFix" stdDeviation="12.5"/>
<feComposite in2="SourceAlpha" operator="in" result="effect1_backgroundBlur_4_5959"/>
<feColorMatrix in="SourceAlpha" type="matrix" values="0 0 0 0 0 0 0 0 0 0 0 0 0 0 0 0 0 0 127 0" result="hardAlpha"/>
<feOffset dx="5" dy="5"/>
<feGaussianBlur stdDeviation="5"/>
<feColorMatrix type="matrix" values="0 0 0 0 0.0588235 0 0 0 0 0.388235 0 0 0 0 1 0 0 0 0.3 0"/>
<feBlend mode="normal" in2="effect1_backgroundBlur_4_5959" result="effect2_dropShadow_4_5959"/>
<feBlend mode="normal" in="SourceGraphic" in2="effect2_dropShadow_4_5959" result="shape"/>
</filter>
<linearGradient id="paint0_linear_4_5959" x1="8.06373" y1="8.70859" x2="22.5392" y2="25.3153" gradientUnits="userSpaceOnUse">
<stop stop-color="white"/>
<stop offset="1" stop-color="white" stop-opacity="0.2"/>
</linearGradient>
<linearGradient id="paint1_linear_4_5959" x1="12.3338" y1="9.95097" x2="22.2985" y2="27.1716" gradientUnits="userSpaceOnUse">
<stop stop-color="white"/>
<stop offset="1" stop-color="white" stop-opacity="0"/>
</linearGradient>
</defs>
</svg>
