<svg width="30" height="30" viewBox="0 0 30 30" fill="none" xmlns="http://www.w3.org/2000/svg">
<g clip-path="url(#clip0_1_2442)">
<path d="M2.64183 23.4994C1.67453 22.0954 0.939412 20.5189 0.493668 18.8246H7.31688L2.64183 23.4994Z" fill="#29337A"/>
<path d="M10.7992 29.3996C9.07096 28.8963 7.47039 28.0931 6.06095 27.0456L10.7992 22.3073V29.3996Z" fill="#29337A"/>
<path d="M6.41326 2.70424C7.73529 1.77912 9.2123 1.06294 10.7991 0.600861V7.08942L6.41326 2.70424Z" fill="#29337A"/>
<path d="M0.665806 10.571C1.16177 8.96449 1.92178 7.47405 2.89307 6.14822L7.31587 10.571H0.665806Z" fill="#29337A"/>
<path d="M2.88923 23.8475C2.80537 23.7329 2.72272 23.6166 2.64172 23.4991L7.31677 18.8243H0.493558C0.382977 18.4034 0.292726 17.9745 0.218372 17.5396H9.1976L2.88923 23.8475Z" fill="white"/>
<path d="M6.0653 2.95176C6.17943 2.8667 6.29672 2.78576 6.41319 2.70425L10.7991 7.08962V0.60106C11.2204 0.477876 11.6484 0.371538 12.0837 0.286037V8.97L6.0653 2.95176Z" fill="white"/>
<path d="M0.332504 11.8557C0.425605 11.4204 0.535489 10.9917 0.665514 10.571H7.31564L2.89284 6.14821C3.37386 5.49099 3.90726 4.87424 4.48683 4.30392L12.0385 11.8557H0.332504Z" fill="white"/>
<path d="M10.7991 29.3996V22.3074L6.06081 27.0454C5.40758 26.5596 4.79698 26.0203 4.23122 25.4365L12.0835 17.5842V29.7146C11.6484 29.6286 11.2205 29.522 10.7991 29.3996Z" fill="white"/>
<path d="M10.7991 10.6163L10.7541 10.571H10.7991V10.6163Z" fill="#D32030"/>
<path d="M12.0388 11.8557H12.0838V11.9009L12.0388 11.8557Z" fill="#D32030"/>
<path d="M17.8114 17.5399H17.768V17.4963L17.8114 17.5399Z" fill="#D32030"/>
<path d="M10.8435 18.8243L10.7992 18.8688V18.8243H10.8435Z" fill="#D32030"/>
<path d="M12.0837 17.5842V17.5399H12.1281L12.0837 17.5842Z" fill="#D32030"/>
<path d="M19.0525 3.92139V0.558927C20.6599 1.00891 22.1587 1.71825 23.4992 2.64242L19.8558 6.28577C19.5647 5.26286 19.4582 4.73402 19.0525 3.92139Z" fill="#252F6C"/>
<path d="M19.8749 23.1301L23.8523 27.1074C22.4234 28.1538 20.8024 28.9513 19.0524 29.4415V25.9874C19.5202 25.0507 19.5595 24.339 19.8749 23.1301Z" fill="#252F6C"/>
<path d="M27.0454 6.06082C28.0471 7.40824 28.8277 8.92921 29.3348 10.571H22.5352L27.0454 6.06082Z" fill="#252F6C"/>
<path d="M29.5065 18.8243C29.0512 20.5544 28.2941 22.1605 27.2962 23.5865L22.5335 18.8243H29.5065Z" fill="#252F6C"/>
<path d="M20.7506 11.6015L21.7813 10.5707L26.7152 5.63684C26.8273 5.77706 26.9386 5.91678 27.0457 6.06054L22.5355 10.5707H29.335C29.4646 10.9912 29.5746 11.4201 29.6675 11.8554H20.847C20.8325 11.6733 20.7679 11.7824 20.7506 11.6015Z" fill="#E7E7E7"/>
<path d="M19.7191 22.3779L24.191 26.8502C24.0789 26.9371 23.9667 27.0236 23.8523 27.1074L19.8749 23.1301C19.9162 22.9729 19.6808 22.539 19.7191 22.3779Z" fill="#E7E7E7"/>
<path d="M19.0524 26.2638V29.4418C18.6315 29.5597 18.2031 29.6596 17.7677 29.7411V28.191C18.2457 27.6728 18.6742 27.0219 19.0524 26.2638Z" fill="#E7E7E7"/>
<path d="M20.6495 17.5399H29.7819C29.7077 17.9747 29.6173 18.4034 29.5067 18.8245H22.5338L27.2965 23.5867C26.8282 24.2556 26.3079 24.8846 25.7395 25.4675L20.375 20.1035C20.5194 19.1305 20.5841 18.5654 20.6495 17.5399Z" fill="#E7E7E7"/>
<path d="M19.6391 6.50298L23.4994 2.64221C24.1415 3.08441 24.7461 3.57658 25.3103 4.11086L20.2326 9.18878C20.0706 8.24967 19.8783 7.3426 19.6391 6.50298Z" fill="#E7E7E7"/>
<path d="M17.768 1.98736V0.259611C18.2033 0.340615 18.6316 0.441062 19.0527 0.55899V3.92145C18.6742 3.16302 18.2457 2.50486 17.768 1.98736Z" fill="#E7E7E7"/>
<path d="M20.3749 20.1035L25.7389 25.4675C25.256 25.9635 24.7383 26.4251 24.1907 26.8502L19.9758 22.6347C20.1631 21.8517 20.2482 20.9554 20.3749 20.1035Z" fill="#D71F28"/>
<path d="M14.2513 29.9815C14.5012 29.9936 14.7504 30 14.9997 30C14.7489 30 14.4993 29.9936 14.2513 29.9815Z" fill="#D32030"/>
<path d="M14.9997 1.33514e-05C14.7503 1.33514e-05 14.5012 0.00685308 14.2518 0.0189514C14.4998 0.00640968 14.7489 1.33514e-05 14.9997 1.33514e-05Z" fill="#D32030"/>
<path d="M14.9997 9.53674e-06C15.9461 9.53674e-06 16.8703 0.0916537 17.7679 0.259615V1.98737C16.98 1.13331 16.0582 9.53674e-06 14.9997 9.53674e-06Z" fill="#D32030"/>
<path d="M29.7816 17.5399H20.7679C20.8872 15.6586 20.8728 13.7241 20.7247 11.8557H29.6675C29.8839 12.8701 30 13.9212 30 14.9998C30 15.8662 29.9228 16.7136 29.7816 17.5399Z" fill="#D71F28"/>
<path d="M20.7506 11.6015C20.6672 10.7152 20.3768 10.0246 20.2324 9.18854L25.31 4.11087C25.8124 4.58696 26.282 5.09616 26.715 5.63684L21.7813 10.571L20.7506 11.6015Z" fill="#D71F28"/>
<path d="M17.7681 28.0795V29.7409C16.8707 29.9084 15.9465 30 14.9998 30C16.0583 30 16.9801 28.9333 17.7681 28.0795Z" fill="#D32030"/>
<path d="M19.0525 3.27265C19.4582 4.08548 19.8061 5.02123 20.0974 6.04395L19.0525 7.0889V3.27265Z" fill="#29337A"/>
<path d="M20.2274 23.4825C19.9115 24.6914 19.5202 25.7904 19.0525 26.7271V22.3081L20.2274 23.4825Z" fill="#29337A"/>
<path d="M21.0417 11.3107C21.0587 11.4916 21.0741 11.6733 21.0888 11.8557H20.4967L21.0417 11.3107Z" fill="white"/>
<path d="M19.0524 22.308V26.7273C18.6739 27.4854 18.2457 28.1367 17.7677 28.6545V20.427L20.3476 23.0069C20.3088 23.168 20.268 23.3258 20.2273 23.483L19.0524 22.308Z" fill="white"/>
<path d="M17.8113 17.5399H21.1319C21.0667 18.5654 20.963 19.5743 20.8187 20.5471L17.8113 17.5399Z" fill="white"/>
<path d="M17.768 1.34572C18.246 1.86392 18.6742 2.51481 19.0527 3.27291V7.08916L20.0976 6.04421C20.3373 6.88427 20.5383 7.78172 20.7009 8.72077L17.7681 11.6534L17.768 1.34572Z" fill="white"/>
<path d="M17.768 1.34572V11.6534L20.7006 8.72057C20.8448 9.55689 20.9583 10.4242 21.0414 11.3107L20.4964 11.8557H21.0885C21.2366 13.7241 21.251 15.6587 21.1317 17.5399H17.8111L20.8184 20.5471C20.6916 21.3993 20.5349 22.2235 20.3475 23.0067L17.7681 20.4268V28.6543C16.98 29.5083 16.0582 30 14.9997 30C14.7503 30 14.5012 29.9936 14.2513 29.9815C13.5136 29.9446 12.79 29.8538 12.0837 29.7146V17.5841L4.23121 25.4365C3.74873 24.9386 3.29995 24.4081 2.88923 23.8475L7.91243 18.8243L9.19754 17.5396H0.218375C0.0777107 16.7136 0 15.8662 0 14.9997C0 13.9209 0.116534 12.8701 0.332503 11.8557H12.0388L4.48702 4.30392C4.98153 3.81815 5.50802 3.36575 6.06536 2.9518L12.0835 8.96998V0.285889C12.7898 0.146618 13.5138 0.0559216 14.2516 0.0189342C14.501 0.00683784 14.7501 0 14.9996 0C16.0582 0 16.98 0.491659 17.768 1.34572Z" fill="#E51D35"/>
</g>
<defs>
<clipPath id="clip0_1_2442">
<rect width="30" height="30" fill="white" transform="matrix(1 0 0 -1 0 30)"/>
</clipPath>
</defs>
</svg>
