<svg width="30" height="30" viewBox="0 0 30 30" fill="none" xmlns="http://www.w3.org/2000/svg">
<g clip-path="url(#clip0_1_2352)">
<path d="M29.9336 16.403H0.0676575V16.4034H29.9336V16.403Z" fill="#C42126"/>
<path d="M28.3768 8.21442H1.62317V8.21486H28.3768V8.21442Z" fill="#C42126"/>
<path d="M29.4397 10.9435H0.559265V10.944H29.4397V10.9435Z" fill="#C42126"/>
<path d="M6.44694 27.3199H23.5532L23.5541 27.3189H6.44599L6.44694 27.3199Z" fill="#C42126"/>
<path d="M14.9999 0C14.7053 0 14.413 0.0106402 14.1228 0.0272337H15.8771C15.5867 0.0106402 15.2945 0 14.9999 0Z" fill="#C42126"/>
<path d="M29.9374 13.6732H0.0619278V13.6737H29.9374V13.6732Z" fill="#C42126"/>
<path d="M19.4334 5.48535H26.596C25.7452 4.44964 24.7564 3.53281 23.661 2.75665H18.2825C18.7276 3.53966 19.1103 4.46358 19.4334 5.48535Z" fill="#E7E7E7"/>
<path d="M18.2825 2.75661H23.661C21.4375 1.18092 18.768 0.194171 15.8771 0.0272217H15.4153C16.776 0.198478 17.401 1.20549 18.2825 2.75661Z" fill="#DC3027"/>
<path d="M29.4408 10.9438C29.1741 9.99263 28.8164 9.08005 28.3769 8.21509H20.1366C20.3035 9.09119 20.4353 10.0063 20.5328 10.9438H29.4408Z" fill="#E7E7E7"/>
<path d="M19.673 8.21467H28.3765C27.8806 7.23913 27.2847 6.3237 26.596 5.48553H18.9931C19.2612 6.33415 19.4888 7.24958 19.673 8.21467Z" fill="#DC3027"/>
<path d="M20.8483 16.4023H29.9324C29.9755 15.9408 29.9999 15.473 29.9999 15.0002C29.9999 14.5529 29.9765 14.1112 29.9381 13.6735H20.8504C20.88 14.581 20.8795 15.4953 20.8483 16.4023Z" fill="#E7E7E7"/>
<path d="M29.9382 13.673C29.856 12.7357 29.6872 11.8239 29.4406 10.9443H20.15C20.2433 11.8379 20.3049 12.7521 20.335 13.673H29.9382Z" fill="#DC3027"/>
<path d="M19.9798 21.8609H28.3375C28.7832 20.9968 29.1465 20.0836 29.4189 19.1317H20.3839C20.2844 20.0706 20.1493 20.9855 19.9798 21.8609Z" fill="#E7E7E7"/>
<path d="M29.4192 19.1315C29.6709 18.2521 29.8457 17.3403 29.9326 16.4028H20.5652C20.5333 17.3244 20.4698 18.2384 20.3746 19.1315H29.4192Z" fill="#DC3027"/>
<path d="M23.5541 27.3189C24.6654 26.5458 25.6682 25.6281 26.5324 24.5902H19.4946C19.1657 25.6162 18.7751 26.5387 18.322 27.3189H23.5541Z" fill="#E7E7E7"/>
<path d="M19.2299 24.59H26.5325C27.2293 23.7528 27.8342 22.8374 28.3374 21.8609H19.9184C19.7316 22.8267 19.5016 23.7426 19.2299 24.59Z" fill="#DC3027"/>
<path d="M14.4563 29.9894C14.426 29.9884 14.3957 29.987 14.3654 29.9861C14.3957 29.987 14.426 29.9884 14.4563 29.9894Z" fill="#DC3027"/>
<path d="M14.9999 30C18.18 30 21.1265 29.0074 23.5533 27.3199H18.1246C17.161 28.9799 16.5254 30 14.9999 30Z" fill="#DC3027"/>
<path d="M14.9999 30C14.8178 30 14.6368 29.9958 14.4564 29.9894C14.6387 29.9955 14.8198 30 14.9999 30Z" fill="#C42126"/>
<path d="M18.7793 2.75665H6.33933C5.24371 3.53281 4.25512 4.44958 3.4041 5.48535H19.9299C19.6068 4.46358 19.2243 3.53966 18.7793 2.75665Z" fill="#F3F4F5"/>
<path d="M6.33923 2.75661H18.7792C17.8974 1.20549 16.776 0.198478 15.4153 0.0272217H14.1228C11.2319 0.194171 8.56245 1.18092 6.33923 2.75661Z" fill="#E73625"/>
<path d="M0.559593 10.9438H21.0058C20.9082 10.0061 20.7765 9.09119 20.6096 8.21509H1.62348C1.18388 9.08011 0.826294 9.99263 0.559593 10.9438Z" fill="#F3F4F5"/>
<path d="M3.40406 5.48529C2.71581 6.32346 2.11945 7.23883 1.62373 8.21444H20.6096C20.4255 7.24954 20.198 6.33416 19.9298 5.48529C19.9298 5.48529 3.40406 5.48529 3.40406 5.48529Z" fill="#E73625"/>
<path d="M0.000175476 15.0002C0.000175476 15.473 0.0248125 15.9408 0.0676898 16.4023H21.1891C21.2204 15.4952 21.2208 14.5812 21.1913 13.6736H0.0619897C0.0236092 14.1112 0.000175476 14.5529 0.000175476 15.0002Z" fill="#F3F4F5"/>
<path d="M0.0619278 13.673H21.1909C21.1609 12.7519 21.099 11.8379 21.0059 10.9443H0.559292C0.312732 11.8241 0.143882 12.7357 0.0619278 13.673Z" fill="#E73625"/>
<path d="M20.9984 19.1315H0.581055C0.853455 20.0836 1.21699 20.9967 1.66249 21.8607H20.5943C20.7639 20.9855 20.8986 20.0706 20.9984 19.1315Z" fill="#F3F4F5"/>
<path d="M0.581105 19.1315H20.9984C21.0934 18.2384 21.1571 17.3242 21.1891 16.4028H0.0676537C0.154548 17.3405 0.329604 18.2521 0.581105 19.1315Z" fill="#E73625"/>
<path d="M6.446 27.3189H18.7334C19.1865 26.5385 19.5773 25.6162 19.9061 24.5902H3.4677C4.33196 25.6281 5.33448 26.5458 6.446 27.3189Z" fill="#F3F4F5"/>
<path d="M1.66276 21.8608C2.16608 22.8373 2.77092 23.7528 3.46772 24.59H19.9061C20.1775 23.7426 20.4075 22.8267 20.5943 21.8608H1.66276Z" fill="#E73625"/>
<path d="M14.3654 29.986C14.3957 29.987 14.426 29.9884 14.4563 29.9893C14.6368 29.9957 14.8178 29.9999 14.9999 29.9999C16.5254 29.9999 17.7693 28.9799 18.733 27.3198H6.44703C8.71104 28.8944 11.4286 29.8636 14.3654 29.986Z" fill="#E73625"/>
<path d="M14.6897 0.0078125C7.00305 0.164185 0.738023 6.09918 0.0637665 13.6486H14.69V0.0078125H14.6897Z" fill="#283991"/>
<path d="M3.00149 8.49866L3.23 9.2023H3.97038L3.37142 9.63741L3.60019 10.3416L3.00149 9.9062L2.40298 10.3416L2.6313 9.63741L2.03254 9.2023H2.77292L3.00149 8.49866Z" fill="#EFEFEF"/>
<path d="M3.00149 10.9846L3.23 11.6886H3.97038L3.37142 12.1238L3.60019 12.8279L3.00149 12.3925L2.40298 12.8279L2.6313 12.1238L2.03254 11.6886H2.77292L3.00149 10.9846Z" fill="#EFEFEF"/>
<path d="M5.48782 4.7688L5.71639 5.4727H6.45652L5.85776 5.90806L6.08633 6.6117L5.48782 6.17685L4.88906 6.6117L5.11763 5.90806L4.51862 5.4727H5.25899L5.48782 4.7688Z" fill="#EFEFEF"/>
<path d="M5.48782 7.25519L5.71639 7.95909H6.45652L5.85776 8.39394L6.08633 9.09809L5.48782 8.66324L4.88906 9.09809L5.11763 8.39394L4.51862 7.95909H5.25899L5.48782 7.25519Z" fill="#EFEFEF"/>
<path d="M5.48782 9.74152L5.71639 10.4457H6.45652L5.85776 10.8803L6.08633 11.5844L5.48782 11.1491L4.88906 11.5844L5.11763 10.8803L4.51862 10.4457H5.25899L5.48782 9.74152Z" fill="#EFEFEF"/>
<path d="M1.11379 11.5845L0.885026 10.8803L1.48379 10.4455H0.743854L0.727261 10.3941C0.646003 10.6454 0.572599 10.8998 0.504894 11.157L0.515344 11.1492L1.11379 11.5845Z" fill="#EFEFEF"/>
<path d="M2.40297 7.85518L3.00148 7.41988L3.60025 7.85518L3.37148 7.15103L3.97025 6.71573H3.22987L3.00129 6.01208L2.77272 6.71573H2.49988C2.44921 6.79249 2.40019 6.8697 2.35091 6.9476L2.63136 7.15103L2.40297 7.85518Z" fill="#EFEFEF"/>
<path d="M5.48788 3.69048L6.08639 4.12533L5.85782 3.42169L6.45633 2.98639H6.02882C5.66572 3.25784 5.31542 3.54512 4.97886 3.84824L4.88861 4.12533L5.48788 3.69048Z" fill="#EFEFEF"/>
<path d="M7.3755 2.88237L7.97426 2.44707L8.57277 2.88237L8.3442 2.17822L8.94271 1.74337H8.20258L8.17155 1.64862C7.92074 1.77675 7.67253 1.91006 7.42996 2.05193L7.60382 2.17816L7.3755 2.88237Z" fill="#EFEFEF"/>
<path d="M7.97417 3.52588L8.20274 4.22933H8.94287L8.3441 4.66463L8.57268 5.36878L7.97417 4.93342L7.3754 5.36878L7.60397 4.66463L7.00502 4.22933H7.74534L7.97417 3.52588Z" fill="#EFEFEF"/>
<path d="M7.97417 6.01227L8.20274 6.71572H8.94287L8.3441 7.15102L8.57268 7.85517L7.97417 7.41981L7.3754 7.85517L7.60397 7.15102L7.00502 6.71572H7.74534L7.97417 6.01227Z" fill="#EFEFEF"/>
<path d="M7.97417 8.49866L8.20274 9.2023H8.94287L8.3441 9.63741L8.57268 10.3416L7.97417 9.9062L7.3754 10.3416L7.60397 9.63741L7.00502 9.2023H7.74534L7.97417 8.49866Z" fill="#EFEFEF"/>
<path d="M7.97417 10.9846L8.20274 11.6886H8.94287L8.3441 12.1238L8.57268 12.8279L7.97417 12.3925L7.3754 12.8279L7.60397 12.1238L7.00502 11.6886H7.74534L7.97417 10.9846Z" fill="#EFEFEF"/>
<path d="M10.4606 2.28241L10.6892 2.98631H11.4293L10.8308 3.42167L11.0591 4.12531L10.4606 3.69046L9.86166 4.12531L10.0904 3.42167L9.49147 2.98631H10.2318L10.4606 2.28241Z" fill="#EFEFEF"/>
<path d="M10.4606 4.7688L10.6892 5.4727H11.4293L10.8308 5.90806L11.0591 6.6117L10.4606 6.17685L9.86166 6.6117L10.0904 5.90806L9.49147 5.4727H10.2318L10.4606 4.7688Z" fill="#EFEFEF"/>
<path d="M10.4606 7.25519L10.6892 7.95909H11.4293L10.8308 8.39394L11.0591 9.09809L10.4606 8.66324L9.86166 9.09809L10.0904 8.39394L9.49147 7.95909H10.2318L10.4606 7.25519Z" fill="#EFEFEF"/>
<path d="M10.4606 9.74152L10.6892 10.4457H11.4293L10.8308 10.8803L11.0591 11.5844L10.4606 11.1491L9.86166 11.5844L10.0904 10.8803L9.49147 10.4457H10.2318L10.4606 9.74152Z" fill="#EFEFEF"/>
<path d="M12.9469 1.03949L13.1755 1.74339H13.9156L13.3169 2.17824L13.5455 2.88239L12.9469 2.44703L12.348 2.88239L12.5768 2.17824L11.9778 1.74339H12.7179L12.9469 1.03949Z" fill="#EFEFEF"/>
<path d="M12.9469 3.52588L13.1755 4.22933H13.9156L13.3169 4.66463L13.5455 5.36878L12.9469 4.93342L12.348 5.36878L12.5768 4.66463L11.9778 4.22933H12.7179L12.9469 3.52588Z" fill="#EFEFEF"/>
<path d="M12.9469 6.01227L13.1755 6.71572H13.9156L13.3169 7.15102L13.5455 7.85517L12.9469 7.41981L12.348 7.85517L12.5768 7.15102L11.9778 6.71572H12.7179L12.9469 6.01227Z" fill="#EFEFEF"/>
<path d="M12.9469 8.49866L13.1755 9.2023H13.9156L13.3169 9.63741L13.5455 10.3416L12.9469 9.9062L12.348 10.3416L12.5768 9.63741L11.9778 9.2023H12.7179L12.9469 8.49866Z" fill="#EFEFEF"/>
<path d="M12.9469 10.9846L13.1755 11.6886H13.9156L13.3169 12.1238L13.5455 12.8279L12.9469 12.3925L12.348 12.8279L12.5768 12.1238L11.9778 11.6886H12.7179L12.9469 10.9846Z" fill="#EFEFEF"/>
</g>
<defs>
<clipPath id="clip0_1_2352">
<rect width="30" height="30" fill="white"/>
</clipPath>
</defs>
</svg>
