<svg width="108" height="20" viewBox="0 0 108 20" fill="none" xmlns="http://www.w3.org/2000/svg">
<path d="M22.872 2.272L18.024 19H15.576L11.688 5.536L7.656 19L5.232 19.024L0.552 2.272H2.88L6.528 16.456L10.56 2.272H13.008L16.848 16.408L20.52 2.272H22.872ZM25.9101 3.712C25.4941 3.712 25.1421 3.568 24.8541 3.28C24.5661 2.992 24.4221 2.64 24.4221 2.224C24.4221 1.808 24.5661 1.456 24.8541 1.168C25.1421 0.879999 25.4941 0.735999 25.9101 0.735999C26.3101 0.735999 26.6461 0.879999 26.9181 1.168C27.2061 1.456 27.3501 1.808 27.3501 2.224C27.3501 2.64 27.2061 2.992 26.9181 3.28C26.6461 3.568 26.3101 3.712 25.9101 3.712ZM26.9661 5.848V19H24.7821V5.848H26.9661ZM47.7283 5.848L43.6243 19H41.3683L38.2003 8.56L35.0323 19H32.7763L28.6483 5.848H30.8803L33.9043 16.888L37.1683 5.848H39.4003L42.5923 16.912L45.5683 5.848H47.7283ZM50.5438 3.712C50.1278 3.712 49.7758 3.568 49.4878 3.28C49.1998 2.992 49.0558 2.64 49.0558 2.224C49.0558 1.808 49.1998 1.456 49.4878 1.168C49.7758 0.879999 50.1278 0.735999 50.5438 0.735999C50.9438 0.735999 51.2798 0.879999 51.5518 1.168C51.8398 1.456 51.9838 1.808 51.9838 2.224C51.9838 2.64 51.8398 2.992 51.5518 3.28C51.2798 3.568 50.9438 3.712 50.5438 3.712ZM51.5998 5.848V19H49.4158V5.848H51.5998Z" fill="url(#paint0_linear_4_5951)"/>
<path d="M76.2165 2.152L70.2405 19H65.1045L59.1285 2.152H63.4965L67.6725 14.872L71.8725 2.152H76.2165ZM90.2918 7.576C90.2918 8.552 90.0678 9.448 89.6198 10.264C89.1718 11.064 88.4838 11.712 87.5558 12.208C86.6278 12.704 85.4758 12.952 84.0998 12.952H81.5558V19H77.4518V2.152H84.0998C85.4438 2.152 86.5798 2.384 87.5078 2.848C88.4358 3.312 89.1318 3.952 89.5958 4.768C90.0598 5.584 90.2918 6.52 90.2918 7.576ZM83.7878 9.688C84.5718 9.688 85.1558 9.504 85.5398 9.136C85.9238 8.768 86.1158 8.248 86.1158 7.576C86.1158 6.904 85.9238 6.384 85.5398 6.016C85.1558 5.648 84.5718 5.464 83.7878 5.464H81.5558V9.688H83.7878ZM107.02 19H102.916L96.0523 8.608V19H91.9483V2.152H96.0523L102.916 12.592V2.152H107.02V19Z" fill="black"/>
<defs>
<linearGradient id="paint0_linear_4_5951" x1="0" y1="11" x2="58.4878" y2="11" gradientUnits="userSpaceOnUse">
<stop stop-color="#0027FE"/>
<stop offset="1" stop-color="#8200FF"/>
</linearGradient>
</defs>
</svg>
