<svg width="10" height="18" viewBox="0 0 10 18" fill="none" xmlns="http://www.w3.org/2000/svg">
<path d="M4.29074 17.7709L4.29 17.7702L0.227497 13.688C-0.076839 13.3821 -0.0757065 12.8875 0.230153 12.5831C0.535973 12.2787 1.03062 12.2799 1.335 12.5857L4.0625 15.3265L4.0625 0.78125C4.0625 0.349766 4.41226 1.92866e-07 4.84375 2.11727e-07C5.27523 2.30588e-07 5.625 0.349766 5.625 0.78125L5.625 15.3264L8.3525 12.5857C8.65687 12.2799 9.15152 12.2788 9.45734 12.5831C9.76324 12.8875 9.76429 13.3822 9.46 13.688L5.3975 17.7702L5.39675 17.7709C5.09136 18.0769 4.59511 18.0759 4.29074 17.7709Z" fill="#7000FF"/>
</svg>
